<?xml version="1.0" standalone="no"?>
<!DOCTYPE svg PUBLIC "-//W3C//DTD SVG 1.1//EN" "http://www.w3.org/Graphics/SVG/1.1/DTD/svg11.dtd" >
<svg xmlns="http://www.w3.org/2000/svg" xmlns:xlink="http://www.w3.org/1999/xlink" version="1.1">
<metadata>
Created by FontForge 20150715 at Tue Feb  2 12:44:16 2016
 By Jimmy Wärting
Copyright (c) 2014 by Jeff Schreiber. All rights reserved.
</metadata>
<defs>
<font id="FatFrank-Free" horiz-adv-x="660" >
  <font-face 
    font-family="FatFrank Free"
    font-weight="900"
    font-stretch="normal"
    units-per-em="1000"
    panose-1="0 0 10 0 0 0 0 0 0 0"
    ascent="725"
    descent="-275"
    x-height="550"
    cap-height="690"
    bbox="-28.4444 -211.285 975.865 770"
    underline-thickness="50"
    underline-position="-100"
    unicode-range="U+0020-20AC"
  />
<missing-glyph horiz-adv-x="500" 
d="M0 0v700h500v-700h-500zM250 395l170 255h-340zM280 350l170 -255v510zM80 50h340l-170 255zM50 605v-510l170 255z" />
    <glyph glyph-name="f_f" unicode="ff" 
d="M454 401v61c0 22 19 41 42 41s42 -19 42 -41v-61c0 -1 -2 -3 -3 -3h-18c-2 0 -3 2 -3 3v20l-36 -8v-12c0 -1 -2 -3 -3 -3h-18c-2 0 -3 2 -3 3zM288 455v-46c0 -1 -1 -2 -1 -3c0 0 -15 -9 -37 -9c-29 0 -53 23 -53 52c0 30 24 53 53 53c13 0 26 -5 36 -13c1 -2 2 -3 0 -4
l-11 -13c-1 -1 -3 -1 -4 0c-6 5 -12 7 -19 7c-16 0 -29 -13 -29 -30c0 -16 13 -29 29 -29c4 0 8 1 13 3v9l-10 -2c-2 0 -3 1 -3 3v15c0 2 1 3 3 3l30 7c1 0 3 -1 3 -3zM23 501h44c18 0 32 -14 32 -32c0 -13 -9 -24 -21 -29l21 -38c1 -2 0 -4 -3 -4h-20c-1 0 -2 1 -2 1
l-17 35l-14 -4v-29c0 -2 -1 -3 -2 -3h-18c-2 0 -3 1 -3 3v97c0 2 1 3 3 3zM122 501h60c2 0 3 -1 3 -3v-16c0 -1 -1 -3 -3 -3h-40v-18h17c2 0 4 -1 4 -3v-17c0 -2 -2 -3 -4 -3h-17v-18h40c2 0 3 -2 3 -3v-16c0 -2 -1 -3 -3 -3h-60c-2 0 -3 1 -3 3v97c0 2 1 3 3 3zM369 501h18
c2 0 3 -1 3 -3v-60c0 -23 -19 -41 -42 -41s-42 18 -42 41v60c0 2 2 3 3 3h18c2 0 3 -1 3 -3v-59c0 -11 8 -19 18 -19c11 0 19 8 19 19v59c0 2 1 3 2 3zM618 440l21 -38c1 -2 0 -4 -2 -4h-20c-1 0 -2 1 -2 1l-18 35l-13 -4v-29c0 -2 -1 -3 -3 -3h-17c-2 0 -3 1 -3 3v97
c0 2 1 3 3 3h43c18 0 33 -14 33 -32c0 -13 -9 -23 -22 -29zM549 370v-189c0 -2 -1 -3 -3 -3h-174c-2 0 -3 1 -3 3v143c0 2 1 3 3 3h17c2 0 3 -1 3 -3v-124h135v152h-115c-2 0 -3 1 -3 2v144c0 1 1 2 3 2h17c1 0 3 -1 3 -2v-124h114c2 0 3 -2 3 -4zM43 450l22 7
c6 1 11 6 11 12s-5 11 -11 11h-22v-30zM584 450l22 7c6 2 11 6 11 12s-5 11 -11 11h-22v-30zM514 443v18c0 10 -8 18 -18 18c-11 0 -18 -8 -18 -18v-27zM115 374h274c1 0 3 -2 3 -4v-15c0 -2 -2 -3 -3 -3h-256v-152h215c1 0 2 -1 2 -3v-127h36c2 0 3 -2 3 -3v-17
c0 -1 -1 -2 -3 -2h-56c-2 0 -3 1 -3 2v128h-213c-2 0 -3 1 -3 3v189c0 2 1 3 3 3c0 1 0 1 1 1zM300 329c-29 0 -52 -24 -52 -53c0 -30 23 -53 52 -53c30 0 53 23 53 53c0 29 -23 53 -53 53zM161 327h44c17 0 32 -14 32 -32c0 -8 -3 -15 -8 -20c4 -5 7 -12 7 -19
c0 -18 -15 -32 -32 -32h-43c-2 0 -3 1 -3 3v97c0 2 1 3 3 3zM412 324v-97c0 -1 1 -3 3 -3h36c28 0 51 23 51 52c0 28 -23 51 -51 51h-36c-2 0 -3 -1 -3 -3zM181 306v-30l22 7c6 1 11 6 11 12s-5 11 -11 11h-22zM435 246v60h14c17 0 29 -13 29 -30s-12 -30 -29 -30h-14z
M300 246c-16 0 -29 14 -29 30s13 29 29 29c17 0 30 -13 30 -29s-13 -30 -30 -30zM181 245h21c6 0 11 5 11 11c0 3 -1 6 -3 8l-29 -8v-11zM532 124l12 13c1 1 1 3 -1 4c-10 9 -21 14 -36 14c-29 0 -53 -24 -53 -55c0 -30 24 -54 53 -54c14 0 26 5 37 15c1 1 1 3 0 4l-12 12
c-1 1 -3 1 -4 1c-5 -5 -13 -8 -20 -8c-17 0 -29 14 -29 31s12 31 29 31c7 0 15 -3 20 -8c1 -1 3 -1 4 0zM169 132v-82c0 -1 1 -2 2 -2h18c1 0 3 1 3 2v82h21c1 0 3 1 3 3v16c0 1 -2 3 -3 3h-65c-2 0 -3 -2 -3 -3v-16c0 -2 1 -3 3 -3h21zM111 150v-100c0 -1 1 -3 3 -3h18
c1 0 2 2 2 3v100c0 2 -1 3 -2 3h-18c-2 0 -3 -1 -3 -3zM222 50v62c0 23 19 41 42 41s42 -18 42 -41v-62c0 -1 -1 -2 -3 -2h-18c-1 0 -3 1 -3 2v22l-36 -9v-13c0 -1 -1 -2 -3 -2h-18c-1 0 -3 1 -3 2zM410 151v-101c0 -1 1 -2 3 -2h18c1 0 2 1 2 2v101c0 1 -1 2 -2 2h-18
c-2 0 -3 -1 -3 -2zM282 93v18c0 10 -7 19 -18 19c-10 0 -18 -9 -18 -19v-26z" />
    <glyph glyph-name=".notdef" horiz-adv-x="500" 
d="M0 0v700h500v-700h-500zM250 395l170 255h-340zM280 350l170 -255v510zM80 50h340l-170 255zM50 605v-510l170 255z" />
    <glyph glyph-name="A" unicode="A" horiz-adv-x="686" 
d="M469 677l226 -664c3 -6 -1 -13 -9 -13h-198c-9 0 -17 5 -21 13l-30 105h-188l-30 -105c-4 -8 -12 -13 -21 -13h-198c-8 0 -12 7 -9 13l226 664c3 6 14 13 24 13h204c10 0 21 -7 24 -13zM397 261l-54 190l-54 -190h108z" />
    <glyph glyph-name="Aacute" unicode="&#xc1;" horiz-adv-x="686" 
d="M480 401v61c0 22 19 41 42 41s42 -19 42 -41v-61c0 -1 -2 -3 -3 -3h-18c-2 0 -3 2 -3 3v20l-36 -8v-12c0 -1 -2 -3 -3 -3h-18c-2 0 -3 2 -3 3zM314 455v-46c0 -1 -1 -2 -1 -3c0 0 -15 -9 -37 -9c-29 0 -53 23 -53 52c0 30 24 53 53 53c13 0 26 -5 36 -13c1 -2 2 -3 0 -4
l-11 -13c-1 -1 -3 -1 -4 0c-6 5 -12 7 -19 7c-16 0 -29 -13 -29 -30c0 -16 13 -29 29 -29c4 0 8 1 13 3v9l-10 -2c-2 0 -3 1 -3 3v15c0 2 1 3 3 3l30 7c1 0 3 -1 3 -3zM49 501h44c18 0 32 -14 32 -32c0 -13 -9 -24 -21 -29l21 -38c1 -2 0 -4 -3 -4h-20c-1 0 -2 1 -2 1
l-17 35l-14 -4v-29c0 -2 -1 -3 -2 -3h-18c-2 0 -3 1 -3 3v97c0 2 1 3 3 3zM148 501h60c2 0 3 -1 3 -3v-16c0 -1 -1 -3 -3 -3h-40v-18h17c2 0 4 -1 4 -3v-17c0 -2 -2 -3 -4 -3h-17v-18h40c2 0 3 -2 3 -3v-16c0 -2 -1 -3 -3 -3h-60c-2 0 -3 1 -3 3v97c0 2 1 3 3 3zM395 501h18
c2 0 3 -1 3 -3v-60c0 -23 -19 -41 -42 -41s-42 18 -42 41v60c0 2 2 3 3 3h18c2 0 3 -1 3 -3v-59c0 -11 8 -19 18 -19c11 0 19 8 19 19v59c0 2 1 3 2 3zM644 440l21 -38c1 -2 0 -4 -2 -4h-20c-1 0 -2 1 -2 1l-18 35l-13 -4v-29c0 -2 -1 -3 -3 -3h-17c-2 0 -3 1 -3 3v97
c0 2 1 3 3 3h43c18 0 33 -14 33 -32c0 -13 -9 -23 -22 -29zM575 370v-189c0 -2 -1 -3 -3 -3h-174c-2 0 -3 1 -3 3v143c0 2 1 3 3 3h17c2 0 3 -1 3 -3v-124h135v152h-115c-2 0 -3 1 -3 2v144c0 1 1 2 3 2h17c1 0 3 -1 3 -2v-124h114c2 0 3 -2 3 -4zM69 450l22 7
c6 1 11 6 11 12s-5 11 -11 11h-22v-30zM610 450l22 7c6 2 11 6 11 12s-5 11 -11 11h-22v-30zM540 443v18c0 10 -8 18 -18 18c-11 0 -18 -8 -18 -18v-27zM141 374h274c1 0 3 -2 3 -4v-15c0 -2 -2 -3 -3 -3h-256v-152h215c1 0 2 -1 2 -3v-127h36c2 0 3 -2 3 -3v-17
c0 -1 -1 -2 -3 -2h-56c-2 0 -3 1 -3 2v128h-213c-2 0 -3 1 -3 3v189c0 2 1 3 3 3c0 1 0 1 1 1zM326 329c-29 0 -52 -24 -52 -53c0 -30 23 -53 52 -53c30 0 53 23 53 53c0 29 -23 53 -53 53zM187 327h44c17 0 32 -14 32 -32c0 -8 -3 -15 -8 -20c4 -5 7 -12 7 -19
c0 -18 -15 -32 -32 -32h-43c-2 0 -3 1 -3 3v97c0 2 1 3 3 3zM438 324v-97c0 -1 1 -3 3 -3h36c28 0 51 23 51 52c0 28 -23 51 -51 51h-36c-2 0 -3 -1 -3 -3zM207 306v-30l22 7c6 1 11 6 11 12s-5 11 -11 11h-22zM461 246v60h14c17 0 29 -13 29 -30s-12 -30 -29 -30h-14z
M326 246c-16 0 -29 14 -29 30s13 29 29 29c17 0 30 -13 30 -29s-13 -30 -30 -30zM207 245h21c6 0 11 5 11 11c0 3 -1 6 -3 8l-29 -8v-11zM558 124l12 13c1 1 1 3 -1 4c-10 9 -21 14 -36 14c-29 0 -53 -24 -53 -55c0 -30 24 -54 53 -54c14 0 26 5 37 15c1 1 1 3 0 4l-12 12
c-1 1 -3 1 -4 1c-5 -5 -13 -8 -20 -8c-17 0 -29 14 -29 31s12 31 29 31c7 0 15 -3 20 -8c1 -1 3 -1 4 0zM195 132v-82c0 -1 1 -2 2 -2h18c1 0 3 1 3 2v82h21c1 0 3 1 3 3v16c0 1 -2 3 -3 3h-65c-2 0 -3 -2 -3 -3v-16c0 -2 1 -3 3 -3h21zM137 150v-100c0 -1 1 -3 3 -3h18
c1 0 2 2 2 3v100c0 2 -1 3 -2 3h-18c-2 0 -3 -1 -3 -3zM248 50v62c0 23 19 41 42 41s42 -18 42 -41v-62c0 -1 -1 -2 -3 -2h-18c-1 0 -3 1 -3 2v22l-36 -9v-13c0 -1 -1 -2 -3 -2h-18c-1 0 -3 1 -3 2zM436 151v-101c0 -1 1 -2 3 -2h18c1 0 2 1 2 2v101c0 1 -1 2 -2 2h-18
c-2 0 -3 -1 -3 -2zM308 93v18c0 10 -7 19 -18 19c-10 0 -18 -9 -18 -19v-26z" />
    <glyph glyph-name="Acircumflex" unicode="&#xc2;" 
d="M454 401v61c0 22 19 41 42 41s42 -19 42 -41v-61c0 -1 -2 -3 -3 -3h-18c-2 0 -3 2 -3 3v20l-36 -8v-12c0 -1 -2 -3 -3 -3h-18c-2 0 -3 2 -3 3zM288 455v-46c0 -1 -1 -2 -1 -3c0 0 -15 -9 -37 -9c-29 0 -53 23 -53 52c0 30 24 53 53 53c13 0 26 -5 36 -13c1 -2 2 -3 0 -4
l-11 -13c-1 -1 -3 -1 -4 0c-6 5 -12 7 -19 7c-16 0 -29 -13 -29 -30c0 -16 13 -29 29 -29c4 0 8 1 13 3v9l-10 -2c-2 0 -3 1 -3 3v15c0 2 1 3 3 3l30 7c1 0 3 -1 3 -3zM23 501h44c18 0 32 -14 32 -32c0 -13 -9 -24 -21 -29l21 -38c1 -2 0 -4 -3 -4h-20c-1 0 -2 1 -2 1
l-17 35l-14 -4v-29c0 -2 -1 -3 -2 -3h-18c-2 0 -3 1 -3 3v97c0 2 1 3 3 3zM122 501h60c2 0 3 -1 3 -3v-16c0 -1 -1 -3 -3 -3h-40v-18h17c2 0 4 -1 4 -3v-17c0 -2 -2 -3 -4 -3h-17v-18h40c2 0 3 -2 3 -3v-16c0 -2 -1 -3 -3 -3h-60c-2 0 -3 1 -3 3v97c0 2 1 3 3 3zM369 501h18
c2 0 3 -1 3 -3v-60c0 -23 -19 -41 -42 -41s-42 18 -42 41v60c0 2 2 3 3 3h18c2 0 3 -1 3 -3v-59c0 -11 8 -19 18 -19c11 0 19 8 19 19v59c0 2 1 3 2 3zM618 440l21 -38c1 -2 0 -4 -2 -4h-20c-1 0 -2 1 -2 1l-18 35l-13 -4v-29c0 -2 -1 -3 -3 -3h-17c-2 0 -3 1 -3 3v97
c0 2 1 3 3 3h43c18 0 33 -14 33 -32c0 -13 -9 -23 -22 -29zM549 370v-189c0 -2 -1 -3 -3 -3h-174c-2 0 -3 1 -3 3v143c0 2 1 3 3 3h17c2 0 3 -1 3 -3v-124h135v152h-115c-2 0 -3 1 -3 2v144c0 1 1 2 3 2h17c1 0 3 -1 3 -2v-124h114c2 0 3 -2 3 -4zM43 450l22 7
c6 1 11 6 11 12s-5 11 -11 11h-22v-30zM584 450l22 7c6 2 11 6 11 12s-5 11 -11 11h-22v-30zM514 443v18c0 10 -8 18 -18 18c-11 0 -18 -8 -18 -18v-27zM115 374h274c1 0 3 -2 3 -4v-15c0 -2 -2 -3 -3 -3h-256v-152h215c1 0 2 -1 2 -3v-127h36c2 0 3 -2 3 -3v-17
c0 -1 -1 -2 -3 -2h-56c-2 0 -3 1 -3 2v128h-213c-2 0 -3 1 -3 3v189c0 2 1 3 3 3c0 1 0 1 1 1zM300 329c-29 0 -52 -24 -52 -53c0 -30 23 -53 52 -53c30 0 53 23 53 53c0 29 -23 53 -53 53zM161 327h44c17 0 32 -14 32 -32c0 -8 -3 -15 -8 -20c4 -5 7 -12 7 -19
c0 -18 -15 -32 -32 -32h-43c-2 0 -3 1 -3 3v97c0 2 1 3 3 3zM412 324v-97c0 -1 1 -3 3 -3h36c28 0 51 23 51 52c0 28 -23 51 -51 51h-36c-2 0 -3 -1 -3 -3zM181 306v-30l22 7c6 1 11 6 11 12s-5 11 -11 11h-22zM435 246v60h14c17 0 29 -13 29 -30s-12 -30 -29 -30h-14z
M300 246c-16 0 -29 14 -29 30s13 29 29 29c17 0 30 -13 30 -29s-13 -30 -30 -30zM181 245h21c6 0 11 5 11 11c0 3 -1 6 -3 8l-29 -8v-11zM532 124l12 13c1 1 1 3 -1 4c-10 9 -21 14 -36 14c-29 0 -53 -24 -53 -55c0 -30 24 -54 53 -54c14 0 26 5 37 15c1 1 1 3 0 4l-12 12
c-1 1 -3 1 -4 1c-5 -5 -13 -8 -20 -8c-17 0 -29 14 -29 31s12 31 29 31c7 0 15 -3 20 -8c1 -1 3 -1 4 0zM169 132v-82c0 -1 1 -2 2 -2h18c1 0 3 1 3 2v82h21c1 0 3 1 3 3v16c0 1 -2 3 -3 3h-65c-2 0 -3 -2 -3 -3v-16c0 -2 1 -3 3 -3h21zM111 150v-100c0 -1 1 -3 3 -3h18
c1 0 2 2 2 3v100c0 2 -1 3 -2 3h-18c-2 0 -3 -1 -3 -3zM222 50v62c0 23 19 41 42 41s42 -18 42 -41v-62c0 -1 -1 -2 -3 -2h-18c-1 0 -3 1 -3 2v22l-36 -9v-13c0 -1 -1 -2 -3 -2h-18c-1 0 -3 1 -3 2zM410 151v-101c0 -1 1 -2 3 -2h18c1 0 2 1 2 2v101c0 1 -1 2 -2 2h-18
c-2 0 -3 -1 -3 -2zM282 93v18c0 10 -7 19 -18 19c-10 0 -18 -9 -18 -19v-26z" />
    <glyph glyph-name="Adieresis" unicode="&#xc4;" horiz-adv-x="674" 
d="M468 401v61c0 22 19 41 42 41s42 -19 42 -41v-61c0 -1 -2 -3 -3 -3h-18c-2 0 -3 2 -3 3v20l-36 -8v-12c0 -1 -2 -3 -3 -3h-18c-2 0 -3 2 -3 3zM302 455v-46c0 -1 -1 -2 -1 -3c0 0 -15 -9 -37 -9c-29 0 -53 23 -53 52c0 30 24 53 53 53c13 0 26 -5 36 -13c1 -2 2 -3 0 -4
l-11 -13c-1 -1 -3 -1 -4 0c-6 5 -12 7 -19 7c-16 0 -29 -13 -29 -30c0 -16 13 -29 29 -29c4 0 8 1 13 3v9l-10 -2c-2 0 -3 1 -3 3v15c0 2 1 3 3 3l30 7c1 0 3 -1 3 -3zM37 501h44c18 0 32 -14 32 -32c0 -13 -9 -24 -21 -29l21 -38c1 -2 0 -4 -3 -4h-20c-1 0 -2 1 -2 1
l-17 35l-14 -4v-29c0 -2 -1 -3 -2 -3h-18c-2 0 -3 1 -3 3v97c0 2 1 3 3 3zM136 501h60c2 0 3 -1 3 -3v-16c0 -1 -1 -3 -3 -3h-40v-18h17c2 0 4 -1 4 -3v-17c0 -2 -2 -3 -4 -3h-17v-18h40c2 0 3 -2 3 -3v-16c0 -2 -1 -3 -3 -3h-60c-2 0 -3 1 -3 3v97c0 2 1 3 3 3zM383 501h18
c2 0 3 -1 3 -3v-60c0 -23 -19 -41 -42 -41s-42 18 -42 41v60c0 2 2 3 3 3h18c2 0 3 -1 3 -3v-59c0 -11 8 -19 18 -19c11 0 19 8 19 19v59c0 2 1 3 2 3zM632 440l21 -38c1 -2 0 -4 -2 -4h-20c-1 0 -2 1 -2 1l-18 35l-13 -4v-29c0 -2 -1 -3 -3 -3h-17c-2 0 -3 1 -3 3v97
c0 2 1 3 3 3h43c18 0 33 -14 33 -32c0 -13 -9 -23 -22 -29zM563 370v-189c0 -2 -1 -3 -3 -3h-174c-2 0 -3 1 -3 3v143c0 2 1 3 3 3h17c2 0 3 -1 3 -3v-124h135v152h-115c-2 0 -3 1 -3 2v144c0 1 1 2 3 2h17c1 0 3 -1 3 -2v-124h114c2 0 3 -2 3 -4zM57 450l22 7
c6 1 11 6 11 12s-5 11 -11 11h-22v-30zM598 450l22 7c6 2 11 6 11 12s-5 11 -11 11h-22v-30zM528 443v18c0 10 -8 18 -18 18c-11 0 -18 -8 -18 -18v-27zM129 374h274c1 0 3 -2 3 -4v-15c0 -2 -2 -3 -3 -3h-256v-152h215c1 0 2 -1 2 -3v-127h36c2 0 3 -2 3 -3v-17
c0 -1 -1 -2 -3 -2h-56c-2 0 -3 1 -3 2v128h-213c-2 0 -3 1 -3 3v189c0 2 1 3 3 3c0 1 0 1 1 1zM314 329c-29 0 -52 -24 -52 -53c0 -30 23 -53 52 -53c30 0 53 23 53 53c0 29 -23 53 -53 53zM175 327h44c17 0 32 -14 32 -32c0 -8 -3 -15 -8 -20c4 -5 7 -12 7 -19
c0 -18 -15 -32 -32 -32h-43c-2 0 -3 1 -3 3v97c0 2 1 3 3 3zM426 324v-97c0 -1 1 -3 3 -3h36c28 0 51 23 51 52c0 28 -23 51 -51 51h-36c-2 0 -3 -1 -3 -3zM195 306v-30l22 7c6 1 11 6 11 12s-5 11 -11 11h-22zM449 246v60h14c17 0 29 -13 29 -30s-12 -30 -29 -30h-14z
M314 246c-16 0 -29 14 -29 30s13 29 29 29c17 0 30 -13 30 -29s-13 -30 -30 -30zM195 245h21c6 0 11 5 11 11c0 3 -1 6 -3 8l-29 -8v-11zM546 124l12 13c1 1 1 3 -1 4c-10 9 -21 14 -36 14c-29 0 -53 -24 -53 -55c0 -30 24 -54 53 -54c14 0 26 5 37 15c1 1 1 3 0 4l-12 12
c-1 1 -3 1 -4 1c-5 -5 -13 -8 -20 -8c-17 0 -29 14 -29 31s12 31 29 31c7 0 15 -3 20 -8c1 -1 3 -1 4 0zM183 132v-82c0 -1 1 -2 2 -2h18c1 0 3 1 3 2v82h21c1 0 3 1 3 3v16c0 1 -2 3 -3 3h-65c-2 0 -3 -2 -3 -3v-16c0 -2 1 -3 3 -3h21zM125 150v-100c0 -1 1 -3 3 -3h18
c1 0 2 2 2 3v100c0 2 -1 3 -2 3h-18c-2 0 -3 -1 -3 -3zM236 50v62c0 23 19 41 42 41s42 -18 42 -41v-62c0 -1 -1 -2 -3 -2h-18c-1 0 -3 1 -3 2v22l-36 -9v-13c0 -1 -1 -2 -3 -2h-18c-1 0 -3 1 -3 2zM424 151v-101c0 -1 1 -2 3 -2h18c1 0 2 1 2 2v101c0 1 -1 2 -2 2h-18
c-2 0 -3 -1 -3 -2zM296 93v18c0 10 -7 19 -18 19c-10 0 -18 -9 -18 -19v-26z" />
    <glyph glyph-name="Agrave" unicode="&#xc0;" horiz-adv-x="712" 
d="M506 401v61c0 22 19 41 42 41s42 -19 42 -41v-61c0 -1 -2 -3 -3 -3h-18c-2 0 -3 2 -3 3v20l-36 -8v-12c0 -1 -2 -3 -3 -3h-18c-2 0 -3 2 -3 3zM340 455v-46c0 -1 -1 -2 -1 -3c0 0 -15 -9 -37 -9c-29 0 -53 23 -53 52c0 30 24 53 53 53c13 0 26 -5 36 -13c1 -2 2 -3 0 -4
l-11 -13c-1 -1 -3 -1 -4 0c-6 5 -12 7 -19 7c-16 0 -29 -13 -29 -30c0 -16 13 -29 29 -29c4 0 8 1 13 3v9l-10 -2c-2 0 -3 1 -3 3v15c0 2 1 3 3 3l30 7c1 0 3 -1 3 -3zM75 501h44c18 0 32 -14 32 -32c0 -13 -9 -24 -21 -29l21 -38c1 -2 0 -4 -3 -4h-20c-1 0 -2 1 -2 1
l-17 35l-14 -4v-29c0 -2 -1 -3 -2 -3h-18c-2 0 -3 1 -3 3v97c0 2 1 3 3 3zM174 501h60c2 0 3 -1 3 -3v-16c0 -1 -1 -3 -3 -3h-40v-18h17c2 0 4 -1 4 -3v-17c0 -2 -2 -3 -4 -3h-17v-18h40c2 0 3 -2 3 -3v-16c0 -2 -1 -3 -3 -3h-60c-2 0 -3 1 -3 3v97c0 2 1 3 3 3zM421 501h18
c2 0 3 -1 3 -3v-60c0 -23 -19 -41 -42 -41s-42 18 -42 41v60c0 2 2 3 3 3h18c2 0 3 -1 3 -3v-59c0 -11 8 -19 18 -19c11 0 19 8 19 19v59c0 2 1 3 2 3zM670 440l21 -38c1 -2 0 -4 -2 -4h-20c-1 0 -2 1 -2 1l-18 35l-13 -4v-29c0 -2 -1 -3 -3 -3h-17c-2 0 -3 1 -3 3v97
c0 2 1 3 3 3h43c18 0 33 -14 33 -32c0 -13 -9 -23 -22 -29zM601 370v-189c0 -2 -1 -3 -3 -3h-174c-2 0 -3 1 -3 3v143c0 2 1 3 3 3h17c2 0 3 -1 3 -3v-124h135v152h-115c-2 0 -3 1 -3 2v144c0 1 1 2 3 2h17c1 0 3 -1 3 -2v-124h114c2 0 3 -2 3 -4zM95 450l22 7
c6 1 11 6 11 12s-5 11 -11 11h-22v-30zM636 450l22 7c6 2 11 6 11 12s-5 11 -11 11h-22v-30zM566 443v18c0 10 -8 18 -18 18c-11 0 -18 -8 -18 -18v-27zM167 374h274c1 0 3 -2 3 -4v-15c0 -2 -2 -3 -3 -3h-256v-152h215c1 0 2 -1 2 -3v-127h36c2 0 3 -2 3 -3v-17
c0 -1 -1 -2 -3 -2h-56c-2 0 -3 1 -3 2v128h-213c-2 0 -3 1 -3 3v189c0 2 1 3 3 3c0 1 0 1 1 1zM352 329c-29 0 -52 -24 -52 -53c0 -30 23 -53 52 -53c30 0 53 23 53 53c0 29 -23 53 -53 53zM213 327h44c17 0 32 -14 32 -32c0 -8 -3 -15 -8 -20c4 -5 7 -12 7 -19
c0 -18 -15 -32 -32 -32h-43c-2 0 -3 1 -3 3v97c0 2 1 3 3 3zM464 324v-97c0 -1 1 -3 3 -3h36c28 0 51 23 51 52c0 28 -23 51 -51 51h-36c-2 0 -3 -1 -3 -3zM233 306v-30l22 7c6 1 11 6 11 12s-5 11 -11 11h-22zM487 246v60h14c17 0 29 -13 29 -30s-12 -30 -29 -30h-14z
M352 246c-16 0 -29 14 -29 30s13 29 29 29c17 0 30 -13 30 -29s-13 -30 -30 -30zM233 245h21c6 0 11 5 11 11c0 3 -1 6 -3 8l-29 -8v-11zM584 124l12 13c1 1 1 3 -1 4c-10 9 -21 14 -36 14c-29 0 -53 -24 -53 -55c0 -30 24 -54 53 -54c14 0 26 5 37 15c1 1 1 3 0 4l-12 12
c-1 1 -3 1 -4 1c-5 -5 -13 -8 -20 -8c-17 0 -29 14 -29 31s12 31 29 31c7 0 15 -3 20 -8c1 -1 3 -1 4 0zM221 132v-82c0 -1 1 -2 2 -2h18c1 0 3 1 3 2v82h21c1 0 3 1 3 3v16c0 1 -2 3 -3 3h-65c-2 0 -3 -2 -3 -3v-16c0 -2 1 -3 3 -3h21zM163 150v-100c0 -1 1 -3 3 -3h18
c1 0 2 2 2 3v100c0 2 -1 3 -2 3h-18c-2 0 -3 -1 -3 -3zM274 50v62c0 23 19 41 42 41s42 -18 42 -41v-62c0 -1 -1 -2 -3 -2h-18c-1 0 -3 1 -3 2v22l-36 -9v-13c0 -1 -1 -2 -3 -2h-18c-1 0 -3 1 -3 2zM462 151v-101c0 -1 1 -2 3 -2h18c1 0 2 1 2 2v101c0 1 -1 2 -2 2h-18
c-2 0 -3 -1 -3 -2zM334 93v18c0 10 -7 19 -18 19c-10 0 -18 -9 -18 -19v-26z" />
    <glyph glyph-name="Aring" unicode="&#xc5;" horiz-adv-x="727" 
d="M521 401v61c0 22 19 41 42 41s42 -19 42 -41v-61c0 -1 -2 -3 -3 -3h-18c-2 0 -3 2 -3 3v20l-36 -8v-12c0 -1 -2 -3 -3 -3h-18c-2 0 -3 2 -3 3zM355 455v-46c0 -1 -1 -2 -1 -3c0 0 -15 -9 -37 -9c-29 0 -53 23 -53 52c0 30 24 53 53 53c13 0 26 -5 36 -13c1 -2 2 -3 0 -4
l-11 -13c-1 -1 -3 -1 -4 0c-6 5 -12 7 -19 7c-16 0 -29 -13 -29 -30c0 -16 13 -29 29 -29c4 0 8 1 13 3v9l-10 -2c-2 0 -3 1 -3 3v15c0 2 1 3 3 3l30 7c1 0 3 -1 3 -3zM90 501h44c18 0 32 -14 32 -32c0 -13 -9 -24 -21 -29l21 -38c1 -2 0 -4 -3 -4h-20c-1 0 -2 1 -2 1
l-17 35l-14 -4v-29c0 -2 -1 -3 -2 -3h-18c-2 0 -3 1 -3 3v97c0 2 1 3 3 3zM189 501h60c2 0 3 -1 3 -3v-16c0 -1 -1 -3 -3 -3h-40v-18h17c2 0 4 -1 4 -3v-17c0 -2 -2 -3 -4 -3h-17v-18h40c2 0 3 -2 3 -3v-16c0 -2 -1 -3 -3 -3h-60c-2 0 -3 1 -3 3v97c0 2 1 3 3 3zM436 501h18
c2 0 3 -1 3 -3v-60c0 -23 -19 -41 -42 -41s-42 18 -42 41v60c0 2 2 3 3 3h18c2 0 3 -1 3 -3v-59c0 -11 8 -19 18 -19c11 0 19 8 19 19v59c0 2 1 3 2 3zM685 440l21 -38c1 -2 0 -4 -2 -4h-20c-1 0 -2 1 -2 1l-18 35l-13 -4v-29c0 -2 -1 -3 -3 -3h-17c-2 0 -3 1 -3 3v97
c0 2 1 3 3 3h43c18 0 33 -14 33 -32c0 -13 -9 -23 -22 -29zM616 370v-189c0 -2 -1 -3 -3 -3h-174c-2 0 -3 1 -3 3v143c0 2 1 3 3 3h17c2 0 3 -1 3 -3v-124h135v152h-115c-2 0 -3 1 -3 2v144c0 1 1 2 3 2h17c1 0 3 -1 3 -2v-124h114c2 0 3 -2 3 -4zM110 450l22 7
c6 1 11 6 11 12s-5 11 -11 11h-22v-30zM651 450l22 7c6 2 11 6 11 12s-5 11 -11 11h-22v-30zM581 443v18c0 10 -8 18 -18 18c-11 0 -18 -8 -18 -18v-27zM182 374h274c1 0 3 -2 3 -4v-15c0 -2 -2 -3 -3 -3h-256v-152h215c1 0 2 -1 2 -3v-127h36c2 0 3 -2 3 -3v-17
c0 -1 -1 -2 -3 -2h-56c-2 0 -3 1 -3 2v128h-213c-2 0 -3 1 -3 3v189c0 2 1 3 3 3c0 1 0 1 1 1zM367 329c-29 0 -52 -24 -52 -53c0 -30 23 -53 52 -53c30 0 53 23 53 53c0 29 -23 53 -53 53zM228 327h44c17 0 32 -14 32 -32c0 -8 -3 -15 -8 -20c4 -5 7 -12 7 -19
c0 -18 -15 -32 -32 -32h-43c-2 0 -3 1 -3 3v97c0 2 1 3 3 3zM479 324v-97c0 -1 1 -3 3 -3h36c28 0 51 23 51 52c0 28 -23 51 -51 51h-36c-2 0 -3 -1 -3 -3zM248 306v-30l22 7c6 1 11 6 11 12s-5 11 -11 11h-22zM502 246v60h14c17 0 29 -13 29 -30s-12 -30 -29 -30h-14z
M367 246c-16 0 -29 14 -29 30s13 29 29 29c17 0 30 -13 30 -29s-13 -30 -30 -30zM248 245h21c6 0 11 5 11 11c0 3 -1 6 -3 8l-29 -8v-11zM599 124l12 13c1 1 1 3 -1 4c-10 9 -21 14 -36 14c-29 0 -53 -24 -53 -55c0 -30 24 -54 53 -54c14 0 26 5 37 15c1 1 1 3 0 4l-12 12
c-1 1 -3 1 -4 1c-5 -5 -13 -8 -20 -8c-17 0 -29 14 -29 31s12 31 29 31c7 0 15 -3 20 -8c1 -1 3 -1 4 0zM236 132v-82c0 -1 1 -2 2 -2h18c1 0 3 1 3 2v82h21c1 0 3 1 3 3v16c0 1 -2 3 -3 3h-65c-2 0 -3 -2 -3 -3v-16c0 -2 1 -3 3 -3h21zM178 150v-100c0 -1 1 -3 3 -3h18
c1 0 2 2 2 3v100c0 2 -1 3 -2 3h-18c-2 0 -3 -1 -3 -3zM289 50v62c0 23 19 41 42 41s42 -18 42 -41v-62c0 -1 -1 -2 -3 -2h-18c-1 0 -3 1 -3 2v22l-36 -9v-13c0 -1 -1 -2 -3 -2h-18c-1 0 -3 1 -3 2zM477 151v-101c0 -1 1 -2 3 -2h18c1 0 2 1 2 2v101c0 1 -1 2 -2 2h-18
c-2 0 -3 -1 -3 -2zM349 93v18c0 10 -7 19 -18 19c-10 0 -18 -9 -18 -19v-26z" />
    <glyph glyph-name="AE" unicode="&#xc6;" 
d="M454 401v61c0 22 19 41 42 41s42 -19 42 -41v-61c0 -1 -2 -3 -3 -3h-18c-2 0 -3 2 -3 3v20l-36 -8v-12c0 -1 -2 -3 -3 -3h-18c-2 0 -3 2 -3 3zM288 455v-46c0 -1 -1 -2 -1 -3c0 0 -15 -9 -37 -9c-29 0 -53 23 -53 52c0 30 24 53 53 53c13 0 26 -5 36 -13c1 -2 2 -3 0 -4
l-11 -13c-1 -1 -3 -1 -4 0c-6 5 -12 7 -19 7c-16 0 -29 -13 -29 -30c0 -16 13 -29 29 -29c4 0 8 1 13 3v9l-10 -2c-2 0 -3 1 -3 3v15c0 2 1 3 3 3l30 7c1 0 3 -1 3 -3zM23 501h44c18 0 32 -14 32 -32c0 -13 -9 -24 -21 -29l21 -38c1 -2 0 -4 -3 -4h-20c-1 0 -2 1 -2 1
l-17 35l-14 -4v-29c0 -2 -1 -3 -2 -3h-18c-2 0 -3 1 -3 3v97c0 2 1 3 3 3zM122 501h60c2 0 3 -1 3 -3v-16c0 -1 -1 -3 -3 -3h-40v-18h17c2 0 4 -1 4 -3v-17c0 -2 -2 -3 -4 -3h-17v-18h40c2 0 3 -2 3 -3v-16c0 -2 -1 -3 -3 -3h-60c-2 0 -3 1 -3 3v97c0 2 1 3 3 3zM369 501h18
c2 0 3 -1 3 -3v-60c0 -23 -19 -41 -42 -41s-42 18 -42 41v60c0 2 2 3 3 3h18c2 0 3 -1 3 -3v-59c0 -11 8 -19 18 -19c11 0 19 8 19 19v59c0 2 1 3 2 3zM618 440l21 -38c1 -2 0 -4 -2 -4h-20c-1 0 -2 1 -2 1l-18 35l-13 -4v-29c0 -2 -1 -3 -3 -3h-17c-2 0 -3 1 -3 3v97
c0 2 1 3 3 3h43c18 0 33 -14 33 -32c0 -13 -9 -23 -22 -29zM549 370v-189c0 -2 -1 -3 -3 -3h-174c-2 0 -3 1 -3 3v143c0 2 1 3 3 3h17c2 0 3 -1 3 -3v-124h135v152h-115c-2 0 -3 1 -3 2v144c0 1 1 2 3 2h17c1 0 3 -1 3 -2v-124h114c2 0 3 -2 3 -4zM43 450l22 7
c6 1 11 6 11 12s-5 11 -11 11h-22v-30zM584 450l22 7c6 2 11 6 11 12s-5 11 -11 11h-22v-30zM514 443v18c0 10 -8 18 -18 18c-11 0 -18 -8 -18 -18v-27zM115 374h274c1 0 3 -2 3 -4v-15c0 -2 -2 -3 -3 -3h-256v-152h215c1 0 2 -1 2 -3v-127h36c2 0 3 -2 3 -3v-17
c0 -1 -1 -2 -3 -2h-56c-2 0 -3 1 -3 2v128h-213c-2 0 -3 1 -3 3v189c0 2 1 3 3 3c0 1 0 1 1 1zM300 329c-29 0 -52 -24 -52 -53c0 -30 23 -53 52 -53c30 0 53 23 53 53c0 29 -23 53 -53 53zM161 327h44c17 0 32 -14 32 -32c0 -8 -3 -15 -8 -20c4 -5 7 -12 7 -19
c0 -18 -15 -32 -32 -32h-43c-2 0 -3 1 -3 3v97c0 2 1 3 3 3zM412 324v-97c0 -1 1 -3 3 -3h36c28 0 51 23 51 52c0 28 -23 51 -51 51h-36c-2 0 -3 -1 -3 -3zM181 306v-30l22 7c6 1 11 6 11 12s-5 11 -11 11h-22zM435 246v60h14c17 0 29 -13 29 -30s-12 -30 -29 -30h-14z
M300 246c-16 0 -29 14 -29 30s13 29 29 29c17 0 30 -13 30 -29s-13 -30 -30 -30zM181 245h21c6 0 11 5 11 11c0 3 -1 6 -3 8l-29 -8v-11zM532 124l12 13c1 1 1 3 -1 4c-10 9 -21 14 -36 14c-29 0 -53 -24 -53 -55c0 -30 24 -54 53 -54c14 0 26 5 37 15c1 1 1 3 0 4l-12 12
c-1 1 -3 1 -4 1c-5 -5 -13 -8 -20 -8c-17 0 -29 14 -29 31s12 31 29 31c7 0 15 -3 20 -8c1 -1 3 -1 4 0zM169 132v-82c0 -1 1 -2 2 -2h18c1 0 3 1 3 2v82h21c1 0 3 1 3 3v16c0 1 -2 3 -3 3h-65c-2 0 -3 -2 -3 -3v-16c0 -2 1 -3 3 -3h21zM111 150v-100c0 -1 1 -3 3 -3h18
c1 0 2 2 2 3v100c0 2 -1 3 -2 3h-18c-2 0 -3 -1 -3 -3zM222 50v62c0 23 19 41 42 41s42 -18 42 -41v-62c0 -1 -1 -2 -3 -2h-18c-1 0 -3 1 -3 2v22l-36 -9v-13c0 -1 -1 -2 -3 -2h-18c-1 0 -3 1 -3 2zM410 151v-101c0 -1 1 -2 3 -2h18c1 0 2 1 2 2v101c0 1 -1 2 -2 2h-18
c-2 0 -3 -1 -3 -2zM282 93v18c0 10 -7 19 -18 19c-10 0 -18 -9 -18 -19v-26z" />
    <glyph glyph-name="B" unicode="B" horiz-adv-x="609" 
d="M50 690h286c139 0 232 -78 232 -195c0 -71 -33 -123 -87 -140c66 -15 108 -76 108 -160c0 -117 -87 -195 -217 -195h-322c-8 0 -14 7 -14 14v661c0 7 6 15 14 15zM242 413h57c33 0 55 21 55 52s-22 52 -55 52h-57v-104zM242 173h76c35 0 59 22 59 54s-24 54 -59 54h-76
v-108z" />
    <glyph glyph-name="C" unicode="C" horiz-adv-x="604" 
d="M520 194l63 -133c3 -7 -1 -12 -9 -18c-47 -35 -131 -58 -210 -58c-190 0 -344 161 -344 360s154 360 344 360c79 0 163 -23 210 -58c8 -6 12 -11 9 -18l-63 -133c-4 -9 -11 -12 -19 -8c-37 21 -73 28 -116 28c-85 0 -153 -77 -153 -171s68 -171 153 -171
c43 0 79 7 116 28c8 4 15 1 19 -8z" />
    <glyph glyph-name="Ccedilla" unicode="&#xc7;" horiz-adv-x="718" 
d="M512 401v61c0 22 19 41 42 41s42 -19 42 -41v-61c0 -1 -2 -3 -3 -3h-18c-2 0 -3 2 -3 3v20l-36 -8v-12c0 -1 -2 -3 -3 -3h-18c-2 0 -3 2 -3 3zM346 455v-46c0 -1 -1 -2 -1 -3c0 0 -15 -9 -37 -9c-29 0 -53 23 -53 52c0 30 24 53 53 53c13 0 26 -5 36 -13c1 -2 2 -3 0 -4
l-11 -13c-1 -1 -3 -1 -4 0c-6 5 -12 7 -19 7c-16 0 -29 -13 -29 -30c0 -16 13 -29 29 -29c4 0 8 1 13 3v9l-10 -2c-2 0 -3 1 -3 3v15c0 2 1 3 3 3l30 7c1 0 3 -1 3 -3zM81 501h44c18 0 32 -14 32 -32c0 -13 -9 -24 -21 -29l21 -38c1 -2 0 -4 -3 -4h-20c-1 0 -2 1 -2 1
l-17 35l-14 -4v-29c0 -2 -1 -3 -2 -3h-18c-2 0 -3 1 -3 3v97c0 2 1 3 3 3zM180 501h60c2 0 3 -1 3 -3v-16c0 -1 -1 -3 -3 -3h-40v-18h17c2 0 4 -1 4 -3v-17c0 -2 -2 -3 -4 -3h-17v-18h40c2 0 3 -2 3 -3v-16c0 -2 -1 -3 -3 -3h-60c-2 0 -3 1 -3 3v97c0 2 1 3 3 3zM427 501h18
c2 0 3 -1 3 -3v-60c0 -23 -19 -41 -42 -41s-42 18 -42 41v60c0 2 2 3 3 3h18c2 0 3 -1 3 -3v-59c0 -11 8 -19 18 -19c11 0 19 8 19 19v59c0 2 1 3 2 3zM676 440l21 -38c1 -2 0 -4 -2 -4h-20c-1 0 -2 1 -2 1l-18 35l-13 -4v-29c0 -2 -1 -3 -3 -3h-17c-2 0 -3 1 -3 3v97
c0 2 1 3 3 3h43c18 0 33 -14 33 -32c0 -13 -9 -23 -22 -29zM607 370v-189c0 -2 -1 -3 -3 -3h-174c-2 0 -3 1 -3 3v143c0 2 1 3 3 3h17c2 0 3 -1 3 -3v-124h135v152h-115c-2 0 -3 1 -3 2v144c0 1 1 2 3 2h17c1 0 3 -1 3 -2v-124h114c2 0 3 -2 3 -4zM101 450l22 7
c6 1 11 6 11 12s-5 11 -11 11h-22v-30zM642 450l22 7c6 2 11 6 11 12s-5 11 -11 11h-22v-30zM572 443v18c0 10 -8 18 -18 18c-11 0 -18 -8 -18 -18v-27zM173 374h274c1 0 3 -2 3 -4v-15c0 -2 -2 -3 -3 -3h-256v-152h215c1 0 2 -1 2 -3v-127h36c2 0 3 -2 3 -3v-17
c0 -1 -1 -2 -3 -2h-56c-2 0 -3 1 -3 2v128h-213c-2 0 -3 1 -3 3v189c0 2 1 3 3 3c0 1 0 1 1 1zM358 329c-29 0 -52 -24 -52 -53c0 -30 23 -53 52 -53c30 0 53 23 53 53c0 29 -23 53 -53 53zM219 327h44c17 0 32 -14 32 -32c0 -8 -3 -15 -8 -20c4 -5 7 -12 7 -19
c0 -18 -15 -32 -32 -32h-43c-2 0 -3 1 -3 3v97c0 2 1 3 3 3zM470 324v-97c0 -1 1 -3 3 -3h36c28 0 51 23 51 52c0 28 -23 51 -51 51h-36c-2 0 -3 -1 -3 -3zM239 306v-30l22 7c6 1 11 6 11 12s-5 11 -11 11h-22zM493 246v60h14c17 0 29 -13 29 -30s-12 -30 -29 -30h-14z
M358 246c-16 0 -29 14 -29 30s13 29 29 29c17 0 30 -13 30 -29s-13 -30 -30 -30zM239 245h21c6 0 11 5 11 11c0 3 -1 6 -3 8l-29 -8v-11zM590 124l12 13c1 1 1 3 -1 4c-10 9 -21 14 -36 14c-29 0 -53 -24 -53 -55c0 -30 24 -54 53 -54c14 0 26 5 37 15c1 1 1 3 0 4l-12 12
c-1 1 -3 1 -4 1c-5 -5 -13 -8 -20 -8c-17 0 -29 14 -29 31s12 31 29 31c7 0 15 -3 20 -8c1 -1 3 -1 4 0zM227 132v-82c0 -1 1 -2 2 -2h18c1 0 3 1 3 2v82h21c1 0 3 1 3 3v16c0 1 -2 3 -3 3h-65c-2 0 -3 -2 -3 -3v-16c0 -2 1 -3 3 -3h21zM169 150v-100c0 -1 1 -3 3 -3h18
c1 0 2 2 2 3v100c0 2 -1 3 -2 3h-18c-2 0 -3 -1 -3 -3zM280 50v62c0 23 19 41 42 41s42 -18 42 -41v-62c0 -1 -1 -2 -3 -2h-18c-1 0 -3 1 -3 2v22l-36 -9v-13c0 -1 -1 -2 -3 -2h-18c-1 0 -3 1 -3 2zM468 151v-101c0 -1 1 -2 3 -2h18c1 0 2 1 2 2v101c0 1 -1 2 -2 2h-18
c-2 0 -3 -1 -3 -2zM340 93v18c0 10 -7 19 -18 19c-10 0 -18 -9 -18 -19v-26z" />
    <glyph glyph-name="D" unicode="D" horiz-adv-x="655" 
d="M50 690h232c212 0 353 -137 353 -345c0 -206 -141 -345 -353 -345h-232c-7 0 -14 7 -14 15v660c0 8 7 15 14 15zM242 180h52c77 0 129 66 129 165s-52 165 -129 165h-52v-330z" />
    <glyph glyph-name="Eth" unicode="&#xd0;" 
d="M454 401v61c0 22 19 41 42 41s42 -19 42 -41v-61c0 -1 -2 -3 -3 -3h-18c-2 0 -3 2 -3 3v20l-36 -8v-12c0 -1 -2 -3 -3 -3h-18c-2 0 -3 2 -3 3zM288 455v-46c0 -1 -1 -2 -1 -3c0 0 -15 -9 -37 -9c-29 0 -53 23 -53 52c0 30 24 53 53 53c13 0 26 -5 36 -13c1 -2 2 -3 0 -4
l-11 -13c-1 -1 -3 -1 -4 0c-6 5 -12 7 -19 7c-16 0 -29 -13 -29 -30c0 -16 13 -29 29 -29c4 0 8 1 13 3v9l-10 -2c-2 0 -3 1 -3 3v15c0 2 1 3 3 3l30 7c1 0 3 -1 3 -3zM23 501h44c18 0 32 -14 32 -32c0 -13 -9 -24 -21 -29l21 -38c1 -2 0 -4 -3 -4h-20c-1 0 -2 1 -2 1
l-17 35l-14 -4v-29c0 -2 -1 -3 -2 -3h-18c-2 0 -3 1 -3 3v97c0 2 1 3 3 3zM122 501h60c2 0 3 -1 3 -3v-16c0 -1 -1 -3 -3 -3h-40v-18h17c2 0 4 -1 4 -3v-17c0 -2 -2 -3 -4 -3h-17v-18h40c2 0 3 -2 3 -3v-16c0 -2 -1 -3 -3 -3h-60c-2 0 -3 1 -3 3v97c0 2 1 3 3 3zM369 501h18
c2 0 3 -1 3 -3v-60c0 -23 -19 -41 -42 -41s-42 18 -42 41v60c0 2 2 3 3 3h18c2 0 3 -1 3 -3v-59c0 -11 8 -19 18 -19c11 0 19 8 19 19v59c0 2 1 3 2 3zM618 440l21 -38c1 -2 0 -4 -2 -4h-20c-1 0 -2 1 -2 1l-18 35l-13 -4v-29c0 -2 -1 -3 -3 -3h-17c-2 0 -3 1 -3 3v97
c0 2 1 3 3 3h43c18 0 33 -14 33 -32c0 -13 -9 -23 -22 -29zM549 370v-189c0 -2 -1 -3 -3 -3h-174c-2 0 -3 1 -3 3v143c0 2 1 3 3 3h17c2 0 3 -1 3 -3v-124h135v152h-115c-2 0 -3 1 -3 2v144c0 1 1 2 3 2h17c1 0 3 -1 3 -2v-124h114c2 0 3 -2 3 -4zM43 450l22 7
c6 1 11 6 11 12s-5 11 -11 11h-22v-30zM584 450l22 7c6 2 11 6 11 12s-5 11 -11 11h-22v-30zM514 443v18c0 10 -8 18 -18 18c-11 0 -18 -8 -18 -18v-27zM115 374h274c1 0 3 -2 3 -4v-15c0 -2 -2 -3 -3 -3h-256v-152h215c1 0 2 -1 2 -3v-127h36c2 0 3 -2 3 -3v-17
c0 -1 -1 -2 -3 -2h-56c-2 0 -3 1 -3 2v128h-213c-2 0 -3 1 -3 3v189c0 2 1 3 3 3c0 1 0 1 1 1zM300 329c-29 0 -52 -24 -52 -53c0 -30 23 -53 52 -53c30 0 53 23 53 53c0 29 -23 53 -53 53zM161 327h44c17 0 32 -14 32 -32c0 -8 -3 -15 -8 -20c4 -5 7 -12 7 -19
c0 -18 -15 -32 -32 -32h-43c-2 0 -3 1 -3 3v97c0 2 1 3 3 3zM412 324v-97c0 -1 1 -3 3 -3h36c28 0 51 23 51 52c0 28 -23 51 -51 51h-36c-2 0 -3 -1 -3 -3zM181 306v-30l22 7c6 1 11 6 11 12s-5 11 -11 11h-22zM435 246v60h14c17 0 29 -13 29 -30s-12 -30 -29 -30h-14z
M300 246c-16 0 -29 14 -29 30s13 29 29 29c17 0 30 -13 30 -29s-13 -30 -30 -30zM181 245h21c6 0 11 5 11 11c0 3 -1 6 -3 8l-29 -8v-11zM532 124l12 13c1 1 1 3 -1 4c-10 9 -21 14 -36 14c-29 0 -53 -24 -53 -55c0 -30 24 -54 53 -54c14 0 26 5 37 15c1 1 1 3 0 4l-12 12
c-1 1 -3 1 -4 1c-5 -5 -13 -8 -20 -8c-17 0 -29 14 -29 31s12 31 29 31c7 0 15 -3 20 -8c1 -1 3 -1 4 0zM169 132v-82c0 -1 1 -2 2 -2h18c1 0 3 1 3 2v82h21c1 0 3 1 3 3v16c0 1 -2 3 -3 3h-65c-2 0 -3 -2 -3 -3v-16c0 -2 1 -3 3 -3h21zM111 150v-100c0 -1 1 -3 3 -3h18
c1 0 2 2 2 3v100c0 2 -1 3 -2 3h-18c-2 0 -3 -1 -3 -3zM222 50v62c0 23 19 41 42 41s42 -18 42 -41v-62c0 -1 -1 -2 -3 -2h-18c-1 0 -3 1 -3 2v22l-36 -9v-13c0 -1 -1 -2 -3 -2h-18c-1 0 -3 1 -3 2zM410 151v-101c0 -1 1 -2 3 -2h18c1 0 2 1 2 2v101c0 1 -1 2 -2 2h-18
c-2 0 -3 -1 -3 -2zM282 93v18c0 10 -7 19 -18 19c-10 0 -18 -9 -18 -19v-26z" />
    <glyph glyph-name="E" unicode="E" horiz-adv-x="542" 
d="M244 180h253c8 0 15 -6 15 -13v-153c0 -7 -7 -14 -15 -14h-445c-7 0 -14 8 -16 15v661c0 9 5 14 14 14h440c9 0 16 -7 16 -14v-151c0 -9 -7 -15 -16 -15h-246v-79h228c9 0 14 -7 13 -13l-14 -140c-1 -6 -8 -13 -17 -13h-210v-85z" />
    <glyph glyph-name="Eacute" unicode="&#xc9;" horiz-adv-x="755" 
d="M549 401v61c0 22 19 41 42 41s42 -19 42 -41v-61c0 -1 -2 -3 -3 -3h-18c-2 0 -3 2 -3 3v20l-36 -8v-12c0 -1 -2 -3 -3 -3h-18c-2 0 -3 2 -3 3zM383 455v-46c0 -1 -1 -2 -1 -3c0 0 -15 -9 -37 -9c-29 0 -53 23 -53 52c0 30 24 53 53 53c13 0 26 -5 36 -13c1 -2 2 -3 0 -4
l-11 -13c-1 -1 -3 -1 -4 0c-6 5 -12 7 -19 7c-16 0 -29 -13 -29 -30c0 -16 13 -29 29 -29c4 0 8 1 13 3v9l-10 -2c-2 0 -3 1 -3 3v15c0 2 1 3 3 3l30 7c1 0 3 -1 3 -3zM118 501h44c18 0 32 -14 32 -32c0 -13 -9 -24 -21 -29l21 -38c1 -2 0 -4 -3 -4h-20c-1 0 -2 1 -2 1
l-17 35l-14 -4v-29c0 -2 -1 -3 -2 -3h-18c-2 0 -3 1 -3 3v97c0 2 1 3 3 3zM217 501h60c2 0 3 -1 3 -3v-16c0 -1 -1 -3 -3 -3h-40v-18h17c2 0 4 -1 4 -3v-17c0 -2 -2 -3 -4 -3h-17v-18h40c2 0 3 -2 3 -3v-16c0 -2 -1 -3 -3 -3h-60c-2 0 -3 1 -3 3v97c0 2 1 3 3 3zM464 501h18
c2 0 3 -1 3 -3v-60c0 -23 -19 -41 -42 -41s-42 18 -42 41v60c0 2 2 3 3 3h18c2 0 3 -1 3 -3v-59c0 -11 8 -19 18 -19c11 0 19 8 19 19v59c0 2 1 3 2 3zM713 440l21 -38c1 -2 0 -4 -2 -4h-20c-1 0 -2 1 -2 1l-18 35l-13 -4v-29c0 -2 -1 -3 -3 -3h-17c-2 0 -3 1 -3 3v97
c0 2 1 3 3 3h43c18 0 33 -14 33 -32c0 -13 -9 -23 -22 -29zM644 370v-189c0 -2 -1 -3 -3 -3h-174c-2 0 -3 1 -3 3v143c0 2 1 3 3 3h17c2 0 3 -1 3 -3v-124h135v152h-115c-2 0 -3 1 -3 2v144c0 1 1 2 3 2h17c1 0 3 -1 3 -2v-124h114c2 0 3 -2 3 -4zM138 450l22 7
c6 1 11 6 11 12s-5 11 -11 11h-22v-30zM679 450l22 7c6 2 11 6 11 12s-5 11 -11 11h-22v-30zM609 443v18c0 10 -8 18 -18 18c-11 0 -18 -8 -18 -18v-27zM210 374h274c1 0 3 -2 3 -4v-15c0 -2 -2 -3 -3 -3h-256v-152h215c1 0 2 -1 2 -3v-127h36c2 0 3 -2 3 -3v-17
c0 -1 -1 -2 -3 -2h-56c-2 0 -3 1 -3 2v128h-213c-2 0 -3 1 -3 3v189c0 2 1 3 3 3c0 1 0 1 1 1zM395 329c-29 0 -52 -24 -52 -53c0 -30 23 -53 52 -53c30 0 53 23 53 53c0 29 -23 53 -53 53zM256 327h44c17 0 32 -14 32 -32c0 -8 -3 -15 -8 -20c4 -5 7 -12 7 -19
c0 -18 -15 -32 -32 -32h-43c-2 0 -3 1 -3 3v97c0 2 1 3 3 3zM507 324v-97c0 -1 1 -3 3 -3h36c28 0 51 23 51 52c0 28 -23 51 -51 51h-36c-2 0 -3 -1 -3 -3zM276 306v-30l22 7c6 1 11 6 11 12s-5 11 -11 11h-22zM530 246v60h14c17 0 29 -13 29 -30s-12 -30 -29 -30h-14z
M395 246c-16 0 -29 14 -29 30s13 29 29 29c17 0 30 -13 30 -29s-13 -30 -30 -30zM276 245h21c6 0 11 5 11 11c0 3 -1 6 -3 8l-29 -8v-11zM627 124l12 13c1 1 1 3 -1 4c-10 9 -21 14 -36 14c-29 0 -53 -24 -53 -55c0 -30 24 -54 53 -54c14 0 26 5 37 15c1 1 1 3 0 4l-12 12
c-1 1 -3 1 -4 1c-5 -5 -13 -8 -20 -8c-17 0 -29 14 -29 31s12 31 29 31c7 0 15 -3 20 -8c1 -1 3 -1 4 0zM264 132v-82c0 -1 1 -2 2 -2h18c1 0 3 1 3 2v82h21c1 0 3 1 3 3v16c0 1 -2 3 -3 3h-65c-2 0 -3 -2 -3 -3v-16c0 -2 1 -3 3 -3h21zM206 150v-100c0 -1 1 -3 3 -3h18
c1 0 2 2 2 3v100c0 2 -1 3 -2 3h-18c-2 0 -3 -1 -3 -3zM317 50v62c0 23 19 41 42 41s42 -18 42 -41v-62c0 -1 -1 -2 -3 -2h-18c-1 0 -3 1 -3 2v22l-36 -9v-13c0 -1 -1 -2 -3 -2h-18c-1 0 -3 1 -3 2zM505 151v-101c0 -1 1 -2 3 -2h18c1 0 2 1 2 2v101c0 1 -1 2 -2 2h-18
c-2 0 -3 -1 -3 -2zM377 93v18c0 10 -7 19 -18 19c-10 0 -18 -9 -18 -19v-26z" />
    <glyph glyph-name="Ecircumflex" unicode="&#xca;" horiz-adv-x="769" 
d="M563 401v61c0 22 19 41 42 41s42 -19 42 -41v-61c0 -1 -2 -3 -3 -3h-18c-2 0 -3 2 -3 3v20l-36 -8v-12c0 -1 -2 -3 -3 -3h-18c-2 0 -3 2 -3 3zM397 455v-46c0 -1 -1 -2 -1 -3c0 0 -15 -9 -37 -9c-29 0 -53 23 -53 52c0 30 24 53 53 53c13 0 26 -5 36 -13c1 -2 2 -3 0 -4
l-11 -13c-1 -1 -3 -1 -4 0c-6 5 -12 7 -19 7c-16 0 -29 -13 -29 -30c0 -16 13 -29 29 -29c4 0 8 1 13 3v9l-10 -2c-2 0 -3 1 -3 3v15c0 2 1 3 3 3l30 7c1 0 3 -1 3 -3zM132 501h44c18 0 32 -14 32 -32c0 -13 -9 -24 -21 -29l21 -38c1 -2 0 -4 -3 -4h-20c-1 0 -2 1 -2 1
l-17 35l-14 -4v-29c0 -2 -1 -3 -2 -3h-18c-2 0 -3 1 -3 3v97c0 2 1 3 3 3zM231 501h60c2 0 3 -1 3 -3v-16c0 -1 -1 -3 -3 -3h-40v-18h17c2 0 4 -1 4 -3v-17c0 -2 -2 -3 -4 -3h-17v-18h40c2 0 3 -2 3 -3v-16c0 -2 -1 -3 -3 -3h-60c-2 0 -3 1 -3 3v97c0 2 1 3 3 3zM478 501h18
c2 0 3 -1 3 -3v-60c0 -23 -19 -41 -42 -41s-42 18 -42 41v60c0 2 2 3 3 3h18c2 0 3 -1 3 -3v-59c0 -11 8 -19 18 -19c11 0 19 8 19 19v59c0 2 1 3 2 3zM727 440l21 -38c1 -2 0 -4 -2 -4h-20c-1 0 -2 1 -2 1l-18 35l-13 -4v-29c0 -2 -1 -3 -3 -3h-17c-2 0 -3 1 -3 3v97
c0 2 1 3 3 3h43c18 0 33 -14 33 -32c0 -13 -9 -23 -22 -29zM658 370v-189c0 -2 -1 -3 -3 -3h-174c-2 0 -3 1 -3 3v143c0 2 1 3 3 3h17c2 0 3 -1 3 -3v-124h135v152h-115c-2 0 -3 1 -3 2v144c0 1 1 2 3 2h17c1 0 3 -1 3 -2v-124h114c2 0 3 -2 3 -4zM152 450l22 7
c6 1 11 6 11 12s-5 11 -11 11h-22v-30zM693 450l22 7c6 2 11 6 11 12s-5 11 -11 11h-22v-30zM623 443v18c0 10 -8 18 -18 18c-11 0 -18 -8 -18 -18v-27zM224 374h274c1 0 3 -2 3 -4v-15c0 -2 -2 -3 -3 -3h-256v-152h215c1 0 2 -1 2 -3v-127h36c2 0 3 -2 3 -3v-17
c0 -1 -1 -2 -3 -2h-56c-2 0 -3 1 -3 2v128h-213c-2 0 -3 1 -3 3v189c0 2 1 3 3 3c0 1 0 1 1 1zM409 329c-29 0 -52 -24 -52 -53c0 -30 23 -53 52 -53c30 0 53 23 53 53c0 29 -23 53 -53 53zM270 327h44c17 0 32 -14 32 -32c0 -8 -3 -15 -8 -20c4 -5 7 -12 7 -19
c0 -18 -15 -32 -32 -32h-43c-2 0 -3 1 -3 3v97c0 2 1 3 3 3zM521 324v-97c0 -1 1 -3 3 -3h36c28 0 51 23 51 52c0 28 -23 51 -51 51h-36c-2 0 -3 -1 -3 -3zM290 306v-30l22 7c6 1 11 6 11 12s-5 11 -11 11h-22zM544 246v60h14c17 0 29 -13 29 -30s-12 -30 -29 -30h-14z
M409 246c-16 0 -29 14 -29 30s13 29 29 29c17 0 30 -13 30 -29s-13 -30 -30 -30zM290 245h21c6 0 11 5 11 11c0 3 -1 6 -3 8l-29 -8v-11zM641 124l12 13c1 1 1 3 -1 4c-10 9 -21 14 -36 14c-29 0 -53 -24 -53 -55c0 -30 24 -54 53 -54c14 0 26 5 37 15c1 1 1 3 0 4l-12 12
c-1 1 -3 1 -4 1c-5 -5 -13 -8 -20 -8c-17 0 -29 14 -29 31s12 31 29 31c7 0 15 -3 20 -8c1 -1 3 -1 4 0zM278 132v-82c0 -1 1 -2 2 -2h18c1 0 3 1 3 2v82h21c1 0 3 1 3 3v16c0 1 -2 3 -3 3h-65c-2 0 -3 -2 -3 -3v-16c0 -2 1 -3 3 -3h21zM220 150v-100c0 -1 1 -3 3 -3h18
c1 0 2 2 2 3v100c0 2 -1 3 -2 3h-18c-2 0 -3 -1 -3 -3zM331 50v62c0 23 19 41 42 41s42 -18 42 -41v-62c0 -1 -1 -2 -3 -2h-18c-1 0 -3 1 -3 2v22l-36 -9v-13c0 -1 -1 -2 -3 -2h-18c-1 0 -3 1 -3 2zM519 151v-101c0 -1 1 -2 3 -2h18c1 0 2 1 2 2v101c0 1 -1 2 -2 2h-18
c-2 0 -3 -1 -3 -2zM391 93v18c0 10 -7 19 -18 19c-10 0 -18 -9 -18 -19v-26z" />
    <glyph glyph-name="Edieresis" unicode="&#xcb;" horiz-adv-x="542" 
d="M244 180h253c8 0 15 -6 15 -13v-153c0 -7 -7 -14 -15 -14h-445c-7 0 -14 8 -16 15v661c0 9 5 14 14 14h440c9 0 16 -7 16 -14v-151c0 -9 -7 -15 -16 -15h-246v-79h228c9 0 14 -7 13 -13l-14 -140c-1 -6 -8 -13 -17 -13h-210v-85z" />
    <glyph glyph-name="Egrave" unicode="&#xc8;" horiz-adv-x="781" 
d="M575 401v61c0 22 19 41 42 41s42 -19 42 -41v-61c0 -1 -2 -3 -3 -3h-18c-2 0 -3 2 -3 3v20l-36 -8v-12c0 -1 -2 -3 -3 -3h-18c-2 0 -3 2 -3 3zM409 455v-46c0 -1 -1 -2 -1 -3c0 0 -15 -9 -37 -9c-29 0 -53 23 -53 52c0 30 24 53 53 53c13 0 26 -5 36 -13c1 -2 2 -3 0 -4
l-11 -13c-1 -1 -3 -1 -4 0c-6 5 -12 7 -19 7c-16 0 -29 -13 -29 -30c0 -16 13 -29 29 -29c4 0 8 1 13 3v9l-10 -2c-2 0 -3 1 -3 3v15c0 2 1 3 3 3l30 7c1 0 3 -1 3 -3zM144 501h44c18 0 32 -14 32 -32c0 -13 -9 -24 -21 -29l21 -38c1 -2 0 -4 -3 -4h-20c-1 0 -2 1 -2 1
l-17 35l-14 -4v-29c0 -2 -1 -3 -2 -3h-18c-2 0 -3 1 -3 3v97c0 2 1 3 3 3zM243 501h60c2 0 3 -1 3 -3v-16c0 -1 -1 -3 -3 -3h-40v-18h17c2 0 4 -1 4 -3v-17c0 -2 -2 -3 -4 -3h-17v-18h40c2 0 3 -2 3 -3v-16c0 -2 -1 -3 -3 -3h-60c-2 0 -3 1 -3 3v97c0 2 1 3 3 3zM490 501h18
c2 0 3 -1 3 -3v-60c0 -23 -19 -41 -42 -41s-42 18 -42 41v60c0 2 2 3 3 3h18c2 0 3 -1 3 -3v-59c0 -11 8 -19 18 -19c11 0 19 8 19 19v59c0 2 1 3 2 3zM739 440l21 -38c1 -2 0 -4 -2 -4h-20c-1 0 -2 1 -2 1l-18 35l-13 -4v-29c0 -2 -1 -3 -3 -3h-17c-2 0 -3 1 -3 3v97
c0 2 1 3 3 3h43c18 0 33 -14 33 -32c0 -13 -9 -23 -22 -29zM670 370v-189c0 -2 -1 -3 -3 -3h-174c-2 0 -3 1 -3 3v143c0 2 1 3 3 3h17c2 0 3 -1 3 -3v-124h135v152h-115c-2 0 -3 1 -3 2v144c0 1 1 2 3 2h17c1 0 3 -1 3 -2v-124h114c2 0 3 -2 3 -4zM164 450l22 7
c6 1 11 6 11 12s-5 11 -11 11h-22v-30zM705 450l22 7c6 2 11 6 11 12s-5 11 -11 11h-22v-30zM635 443v18c0 10 -8 18 -18 18c-11 0 -18 -8 -18 -18v-27zM236 374h274c1 0 3 -2 3 -4v-15c0 -2 -2 -3 -3 -3h-256v-152h215c1 0 2 -1 2 -3v-127h36c2 0 3 -2 3 -3v-17
c0 -1 -1 -2 -3 -2h-56c-2 0 -3 1 -3 2v128h-213c-2 0 -3 1 -3 3v189c0 2 1 3 3 3c0 1 0 1 1 1zM421 329c-29 0 -52 -24 -52 -53c0 -30 23 -53 52 -53c30 0 53 23 53 53c0 29 -23 53 -53 53zM282 327h44c17 0 32 -14 32 -32c0 -8 -3 -15 -8 -20c4 -5 7 -12 7 -19
c0 -18 -15 -32 -32 -32h-43c-2 0 -3 1 -3 3v97c0 2 1 3 3 3zM533 324v-97c0 -1 1 -3 3 -3h36c28 0 51 23 51 52c0 28 -23 51 -51 51h-36c-2 0 -3 -1 -3 -3zM302 306v-30l22 7c6 1 11 6 11 12s-5 11 -11 11h-22zM556 246v60h14c17 0 29 -13 29 -30s-12 -30 -29 -30h-14z
M421 246c-16 0 -29 14 -29 30s13 29 29 29c17 0 30 -13 30 -29s-13 -30 -30 -30zM302 245h21c6 0 11 5 11 11c0 3 -1 6 -3 8l-29 -8v-11zM653 124l12 13c1 1 1 3 -1 4c-10 9 -21 14 -36 14c-29 0 -53 -24 -53 -55c0 -30 24 -54 53 -54c14 0 26 5 37 15c1 1 1 3 0 4l-12 12
c-1 1 -3 1 -4 1c-5 -5 -13 -8 -20 -8c-17 0 -29 14 -29 31s12 31 29 31c7 0 15 -3 20 -8c1 -1 3 -1 4 0zM290 132v-82c0 -1 1 -2 2 -2h18c1 0 3 1 3 2v82h21c1 0 3 1 3 3v16c0 1 -2 3 -3 3h-65c-2 0 -3 -2 -3 -3v-16c0 -2 1 -3 3 -3h21zM232 150v-100c0 -1 1 -3 3 -3h18
c1 0 2 2 2 3v100c0 2 -1 3 -2 3h-18c-2 0 -3 -1 -3 -3zM343 50v62c0 23 19 41 42 41s42 -18 42 -41v-62c0 -1 -1 -2 -3 -2h-18c-1 0 -3 1 -3 2v22l-36 -9v-13c0 -1 -1 -2 -3 -2h-18c-1 0 -3 1 -3 2zM531 151v-101c0 -1 1 -2 3 -2h18c1 0 2 1 2 2v101c0 1 -1 2 -2 2h-18
c-2 0 -3 -1 -3 -2zM403 93v18c0 10 -7 19 -18 19c-10 0 -18 -9 -18 -19v-26z" />
    <glyph glyph-name="F" unicode="F" horiz-adv-x="517" 
d="M50 690h446c9 0 15 -7 15 -14v-151c0 -9 -6 -15 -15 -15h-254v-91h206c9 0 14 -7 13 -13l-14 -140c-1 -6 -8 -13 -17 -13h-188v-239c0 -7 -7 -14 -15 -14h-177c-8 0 -14 8 -14 15v661c0 7 6 14 14 14z" />
    <glyph glyph-name="G" unicode="G" horiz-adv-x="670" 
d="M354 423h271c8 0 15 -7 15 -14v-318c0 -9 -5 -18 -12 -24c-60 -51 -152 -81 -248 -81c-216 0 -360 144 -360 360s144 360 360 360c74 0 152 -22 210 -58c8 -4 11 -12 9 -18l-50 -147c-3 -7 -10 -10 -19 -8c-41 22 -94 35 -144 35c-92 0 -154 -66 -154 -164
c0 -100 62 -166 154 -166c37 0 62 7 73 19v58h-92c-9 0 -15 4 -16 11l-13 138c-1 10 5 17 16 17zM465 210v4v-4z" />
    <glyph glyph-name="H" unicode="H" horiz-adv-x="644" 
d="M406 690h187c9 0 15 -7 15 -15v-661c0 -7 -6 -14 -15 -14h-187c-8 0 -14 7 -14 14v224h-140v-224c0 -7 -6 -14 -15 -14h-187c-7 0 -14 7 -14 14v661c0 8 7 15 14 15h187c9 0 15 -7 15 -15v-261h140v261c0 8 6 15 14 15z" />
    <glyph glyph-name="I" unicode="I" horiz-adv-x="278" 
d="M50 690h177c9 0 15 -7 15 -15v-661c0 -7 -6 -14 -15 -14h-177c-7 0 -14 7 -14 14v661c0 8 7 15 14 15z" />
    <glyph glyph-name="Iacute" unicode="&#xcd;" horiz-adv-x="890" 
d="M684 401v61c0 22 19 41 42 41s42 -19 42 -41v-61c0 -1 -2 -3 -3 -3h-18c-2 0 -3 2 -3 3v20l-36 -8v-12c0 -1 -2 -3 -3 -3h-18c-2 0 -3 2 -3 3zM518 455v-46c0 -1 -1 -2 -1 -3c0 0 -15 -9 -37 -9c-29 0 -53 23 -53 52c0 30 24 53 53 53c13 0 26 -5 36 -13c1 -2 2 -3 0 -4
l-11 -13c-1 -1 -3 -1 -4 0c-6 5 -12 7 -19 7c-16 0 -29 -13 -29 -30c0 -16 13 -29 29 -29c4 0 8 1 13 3v9l-10 -2c-2 0 -3 1 -3 3v15c0 2 1 3 3 3l30 7c1 0 3 -1 3 -3zM253 501h44c18 0 32 -14 32 -32c0 -13 -9 -24 -21 -29l21 -38c1 -2 0 -4 -3 -4h-20c-1 0 -2 1 -2 1
l-17 35l-14 -4v-29c0 -2 -1 -3 -2 -3h-18c-2 0 -3 1 -3 3v97c0 2 1 3 3 3zM352 501h60c2 0 3 -1 3 -3v-16c0 -1 -1 -3 -3 -3h-40v-18h17c2 0 4 -1 4 -3v-17c0 -2 -2 -3 -4 -3h-17v-18h40c2 0 3 -2 3 -3v-16c0 -2 -1 -3 -3 -3h-60c-2 0 -3 1 -3 3v97c0 2 1 3 3 3zM599 501h18
c2 0 3 -1 3 -3v-60c0 -23 -19 -41 -42 -41s-42 18 -42 41v60c0 2 2 3 3 3h18c2 0 3 -1 3 -3v-59c0 -11 8 -19 18 -19c11 0 19 8 19 19v59c0 2 1 3 2 3zM848 440l21 -38c1 -2 0 -4 -2 -4h-20c-1 0 -2 1 -2 1l-18 35l-13 -4v-29c0 -2 -1 -3 -3 -3h-17c-2 0 -3 1 -3 3v97
c0 2 1 3 3 3h43c18 0 33 -14 33 -32c0 -13 -9 -23 -22 -29zM779 370v-189c0 -2 -1 -3 -3 -3h-174c-2 0 -3 1 -3 3v143c0 2 1 3 3 3h17c2 0 3 -1 3 -3v-124h135v152h-115c-2 0 -3 1 -3 2v144c0 1 1 2 3 2h17c1 0 3 -1 3 -2v-124h114c2 0 3 -2 3 -4zM273 450l22 7
c6 1 11 6 11 12s-5 11 -11 11h-22v-30zM814 450l22 7c6 2 11 6 11 12s-5 11 -11 11h-22v-30zM744 443v18c0 10 -8 18 -18 18c-11 0 -18 -8 -18 -18v-27zM345 374h274c1 0 3 -2 3 -4v-15c0 -2 -2 -3 -3 -3h-256v-152h215c1 0 2 -1 2 -3v-127h36c2 0 3 -2 3 -3v-17
c0 -1 -1 -2 -3 -2h-56c-2 0 -3 1 -3 2v128h-213c-2 0 -3 1 -3 3v189c0 2 1 3 3 3c0 1 0 1 1 1zM530 329c-29 0 -52 -24 -52 -53c0 -30 23 -53 52 -53c30 0 53 23 53 53c0 29 -23 53 -53 53zM391 327h44c17 0 32 -14 32 -32c0 -8 -3 -15 -8 -20c4 -5 7 -12 7 -19
c0 -18 -15 -32 -32 -32h-43c-2 0 -3 1 -3 3v97c0 2 1 3 3 3zM642 324v-97c0 -1 1 -3 3 -3h36c28 0 51 23 51 52c0 28 -23 51 -51 51h-36c-2 0 -3 -1 -3 -3zM411 306v-30l22 7c6 1 11 6 11 12s-5 11 -11 11h-22zM665 246v60h14c17 0 29 -13 29 -30s-12 -30 -29 -30h-14z
M530 246c-16 0 -29 14 -29 30s13 29 29 29c17 0 30 -13 30 -29s-13 -30 -30 -30zM411 245h21c6 0 11 5 11 11c0 3 -1 6 -3 8l-29 -8v-11zM762 124l12 13c1 1 1 3 -1 4c-10 9 -21 14 -36 14c-29 0 -53 -24 -53 -55c0 -30 24 -54 53 -54c14 0 26 5 37 15c1 1 1 3 0 4l-12 12
c-1 1 -3 1 -4 1c-5 -5 -13 -8 -20 -8c-17 0 -29 14 -29 31s12 31 29 31c7 0 15 -3 20 -8c1 -1 3 -1 4 0zM399 132v-82c0 -1 1 -2 2 -2h18c1 0 3 1 3 2v82h21c1 0 3 1 3 3v16c0 1 -2 3 -3 3h-65c-2 0 -3 -2 -3 -3v-16c0 -2 1 -3 3 -3h21zM341 150v-100c0 -1 1 -3 3 -3h18
c1 0 2 2 2 3v100c0 2 -1 3 -2 3h-18c-2 0 -3 -1 -3 -3zM452 50v62c0 23 19 41 42 41s42 -18 42 -41v-62c0 -1 -1 -2 -3 -2h-18c-1 0 -3 1 -3 2v22l-36 -9v-13c0 -1 -1 -2 -3 -2h-18c-1 0 -3 1 -3 2zM640 151v-101c0 -1 1 -2 3 -2h18c1 0 2 1 2 2v101c0 1 -1 2 -2 2h-18
c-2 0 -3 -1 -3 -2zM512 93v18c0 10 -7 19 -18 19c-10 0 -18 -9 -18 -19v-26z" />
    <glyph glyph-name="Icircumflex" unicode="&#xce;" horiz-adv-x="904" 
d="M698 401v61c0 22 19 41 42 41s42 -19 42 -41v-61c0 -1 -2 -3 -3 -3h-18c-2 0 -3 2 -3 3v20l-36 -8v-12c0 -1 -2 -3 -3 -3h-18c-2 0 -3 2 -3 3zM532 455v-46c0 -1 -1 -2 -1 -3c0 0 -15 -9 -37 -9c-29 0 -53 23 -53 52c0 30 24 53 53 53c13 0 26 -5 36 -13c1 -2 2 -3 0 -4
l-11 -13c-1 -1 -3 -1 -4 0c-6 5 -12 7 -19 7c-16 0 -29 -13 -29 -30c0 -16 13 -29 29 -29c4 0 8 1 13 3v9l-10 -2c-2 0 -3 1 -3 3v15c0 2 1 3 3 3l30 7c1 0 3 -1 3 -3zM267 501h44c18 0 32 -14 32 -32c0 -13 -9 -24 -21 -29l21 -38c1 -2 0 -4 -3 -4h-20c-1 0 -2 1 -2 1
l-17 35l-14 -4v-29c0 -2 -1 -3 -2 -3h-18c-2 0 -3 1 -3 3v97c0 2 1 3 3 3zM366 501h60c2 0 3 -1 3 -3v-16c0 -1 -1 -3 -3 -3h-40v-18h17c2 0 4 -1 4 -3v-17c0 -2 -2 -3 -4 -3h-17v-18h40c2 0 3 -2 3 -3v-16c0 -2 -1 -3 -3 -3h-60c-2 0 -3 1 -3 3v97c0 2 1 3 3 3zM613 501h18
c2 0 3 -1 3 -3v-60c0 -23 -19 -41 -42 -41s-42 18 -42 41v60c0 2 2 3 3 3h18c2 0 3 -1 3 -3v-59c0 -11 8 -19 18 -19c11 0 19 8 19 19v59c0 2 1 3 2 3zM862 440l21 -38c1 -2 0 -4 -2 -4h-20c-1 0 -2 1 -2 1l-18 35l-13 -4v-29c0 -2 -1 -3 -3 -3h-17c-2 0 -3 1 -3 3v97
c0 2 1 3 3 3h43c18 0 33 -14 33 -32c0 -13 -9 -23 -22 -29zM793 370v-189c0 -2 -1 -3 -3 -3h-174c-2 0 -3 1 -3 3v143c0 2 1 3 3 3h17c2 0 3 -1 3 -3v-124h135v152h-115c-2 0 -3 1 -3 2v144c0 1 1 2 3 2h17c1 0 3 -1 3 -2v-124h114c2 0 3 -2 3 -4zM287 450l22 7
c6 1 11 6 11 12s-5 11 -11 11h-22v-30zM828 450l22 7c6 2 11 6 11 12s-5 11 -11 11h-22v-30zM758 443v18c0 10 -8 18 -18 18c-11 0 -18 -8 -18 -18v-27zM359 374h274c1 0 3 -2 3 -4v-15c0 -2 -2 -3 -3 -3h-256v-152h215c1 0 2 -1 2 -3v-127h36c2 0 3 -2 3 -3v-17
c0 -1 -1 -2 -3 -2h-56c-2 0 -3 1 -3 2v128h-213c-2 0 -3 1 -3 3v189c0 2 1 3 3 3c0 1 0 1 1 1zM544 329c-29 0 -52 -24 -52 -53c0 -30 23 -53 52 -53c30 0 53 23 53 53c0 29 -23 53 -53 53zM405 327h44c17 0 32 -14 32 -32c0 -8 -3 -15 -8 -20c4 -5 7 -12 7 -19
c0 -18 -15 -32 -32 -32h-43c-2 0 -3 1 -3 3v97c0 2 1 3 3 3zM656 324v-97c0 -1 1 -3 3 -3h36c28 0 51 23 51 52c0 28 -23 51 -51 51h-36c-2 0 -3 -1 -3 -3zM425 306v-30l22 7c6 1 11 6 11 12s-5 11 -11 11h-22zM679 246v60h14c17 0 29 -13 29 -30s-12 -30 -29 -30h-14z
M544 246c-16 0 -29 14 -29 30s13 29 29 29c17 0 30 -13 30 -29s-13 -30 -30 -30zM425 245h21c6 0 11 5 11 11c0 3 -1 6 -3 8l-29 -8v-11zM776 124l12 13c1 1 1 3 -1 4c-10 9 -21 14 -36 14c-29 0 -53 -24 -53 -55c0 -30 24 -54 53 -54c14 0 26 5 37 15c1 1 1 3 0 4l-12 12
c-1 1 -3 1 -4 1c-5 -5 -13 -8 -20 -8c-17 0 -29 14 -29 31s12 31 29 31c7 0 15 -3 20 -8c1 -1 3 -1 4 0zM413 132v-82c0 -1 1 -2 2 -2h18c1 0 3 1 3 2v82h21c1 0 3 1 3 3v16c0 1 -2 3 -3 3h-65c-2 0 -3 -2 -3 -3v-16c0 -2 1 -3 3 -3h21zM355 150v-100c0 -1 1 -3 3 -3h18
c1 0 2 2 2 3v100c0 2 -1 3 -2 3h-18c-2 0 -3 -1 -3 -3zM466 50v62c0 23 19 41 42 41s42 -18 42 -41v-62c0 -1 -1 -2 -3 -2h-18c-1 0 -3 1 -3 2v22l-36 -9v-13c0 -1 -1 -2 -3 -2h-18c-1 0 -3 1 -3 2zM654 151v-101c0 -1 1 -2 3 -2h18c1 0 2 1 2 2v101c0 1 -1 2 -2 2h-18
c-2 0 -3 -1 -3 -2zM526 93v18c0 10 -7 19 -18 19c-10 0 -18 -9 -18 -19v-26z" />
    <glyph glyph-name="Idieresis" unicode="&#xcf;" horiz-adv-x="877" 
d="M671 401v61c0 22 19 41 42 41s42 -19 42 -41v-61c0 -1 -2 -3 -3 -3h-18c-2 0 -3 2 -3 3v20l-36 -8v-12c0 -1 -2 -3 -3 -3h-18c-2 0 -3 2 -3 3zM505 455v-46c0 -1 -1 -2 -1 -3c0 0 -15 -9 -37 -9c-29 0 -53 23 -53 52c0 30 24 53 53 53c13 0 26 -5 36 -13c1 -2 2 -3 0 -4
l-11 -13c-1 -1 -3 -1 -4 0c-6 5 -12 7 -19 7c-16 0 -29 -13 -29 -30c0 -16 13 -29 29 -29c4 0 8 1 13 3v9l-10 -2c-2 0 -3 1 -3 3v15c0 2 1 3 3 3l30 7c1 0 3 -1 3 -3zM240 501h44c18 0 32 -14 32 -32c0 -13 -9 -24 -21 -29l21 -38c1 -2 0 -4 -3 -4h-20c-1 0 -2 1 -2 1
l-17 35l-14 -4v-29c0 -2 -1 -3 -2 -3h-18c-2 0 -3 1 -3 3v97c0 2 1 3 3 3zM339 501h60c2 0 3 -1 3 -3v-16c0 -1 -1 -3 -3 -3h-40v-18h17c2 0 4 -1 4 -3v-17c0 -2 -2 -3 -4 -3h-17v-18h40c2 0 3 -2 3 -3v-16c0 -2 -1 -3 -3 -3h-60c-2 0 -3 1 -3 3v97c0 2 1 3 3 3zM586 501h18
c2 0 3 -1 3 -3v-60c0 -23 -19 -41 -42 -41s-42 18 -42 41v60c0 2 2 3 3 3h18c2 0 3 -1 3 -3v-59c0 -11 8 -19 18 -19c11 0 19 8 19 19v59c0 2 1 3 2 3zM835 440l21 -38c1 -2 0 -4 -2 -4h-20c-1 0 -2 1 -2 1l-18 35l-13 -4v-29c0 -2 -1 -3 -3 -3h-17c-2 0 -3 1 -3 3v97
c0 2 1 3 3 3h43c18 0 33 -14 33 -32c0 -13 -9 -23 -22 -29zM766 370v-189c0 -2 -1 -3 -3 -3h-174c-2 0 -3 1 -3 3v143c0 2 1 3 3 3h17c2 0 3 -1 3 -3v-124h135v152h-115c-2 0 -3 1 -3 2v144c0 1 1 2 3 2h17c1 0 3 -1 3 -2v-124h114c2 0 3 -2 3 -4zM260 450l22 7
c6 1 11 6 11 12s-5 11 -11 11h-22v-30zM801 450l22 7c6 2 11 6 11 12s-5 11 -11 11h-22v-30zM731 443v18c0 10 -8 18 -18 18c-11 0 -18 -8 -18 -18v-27zM332 374h274c1 0 3 -2 3 -4v-15c0 -2 -2 -3 -3 -3h-256v-152h215c1 0 2 -1 2 -3v-127h36c2 0 3 -2 3 -3v-17
c0 -1 -1 -2 -3 -2h-56c-2 0 -3 1 -3 2v128h-213c-2 0 -3 1 -3 3v189c0 2 1 3 3 3c0 1 0 1 1 1zM517 329c-29 0 -52 -24 -52 -53c0 -30 23 -53 52 -53c30 0 53 23 53 53c0 29 -23 53 -53 53zM378 327h44c17 0 32 -14 32 -32c0 -8 -3 -15 -8 -20c4 -5 7 -12 7 -19
c0 -18 -15 -32 -32 -32h-43c-2 0 -3 1 -3 3v97c0 2 1 3 3 3zM629 324v-97c0 -1 1 -3 3 -3h36c28 0 51 23 51 52c0 28 -23 51 -51 51h-36c-2 0 -3 -1 -3 -3zM398 306v-30l22 7c6 1 11 6 11 12s-5 11 -11 11h-22zM652 246v60h14c17 0 29 -13 29 -30s-12 -30 -29 -30h-14z
M517 246c-16 0 -29 14 -29 30s13 29 29 29c17 0 30 -13 30 -29s-13 -30 -30 -30zM398 245h21c6 0 11 5 11 11c0 3 -1 6 -3 8l-29 -8v-11zM749 124l12 13c1 1 1 3 -1 4c-10 9 -21 14 -36 14c-29 0 -53 -24 -53 -55c0 -30 24 -54 53 -54c14 0 26 5 37 15c1 1 1 3 0 4l-12 12
c-1 1 -3 1 -4 1c-5 -5 -13 -8 -20 -8c-17 0 -29 14 -29 31s12 31 29 31c7 0 15 -3 20 -8c1 -1 3 -1 4 0zM386 132v-82c0 -1 1 -2 2 -2h18c1 0 3 1 3 2v82h21c1 0 3 1 3 3v16c0 1 -2 3 -3 3h-65c-2 0 -3 -2 -3 -3v-16c0 -2 1 -3 3 -3h21zM328 150v-100c0 -1 1 -3 3 -3h18
c1 0 2 2 2 3v100c0 2 -1 3 -2 3h-18c-2 0 -3 -1 -3 -3zM439 50v62c0 23 19 41 42 41s42 -18 42 -41v-62c0 -1 -1 -2 -3 -2h-18c-1 0 -3 1 -3 2v22l-36 -9v-13c0 -1 -1 -2 -3 -2h-18c-1 0 -3 1 -3 2zM627 151v-101c0 -1 1 -2 3 -2h18c1 0 2 1 2 2v101c0 1 -1 2 -2 2h-18
c-2 0 -3 -1 -3 -2zM499 93v18c0 10 -7 19 -18 19c-10 0 -18 -9 -18 -19v-26z" />
    <glyph glyph-name="Igrave" unicode="&#xcc;" horiz-adv-x="916" 
d="M710 401v61c0 22 19 41 42 41s42 -19 42 -41v-61c0 -1 -2 -3 -3 -3h-18c-2 0 -3 2 -3 3v20l-36 -8v-12c0 -1 -2 -3 -3 -3h-18c-2 0 -3 2 -3 3zM544 455v-46c0 -1 -1 -2 -1 -3c0 0 -15 -9 -37 -9c-29 0 -53 23 -53 52c0 30 24 53 53 53c13 0 26 -5 36 -13c1 -2 2 -3 0 -4
l-11 -13c-1 -1 -3 -1 -4 0c-6 5 -12 7 -19 7c-16 0 -29 -13 -29 -30c0 -16 13 -29 29 -29c4 0 8 1 13 3v9l-10 -2c-2 0 -3 1 -3 3v15c0 2 1 3 3 3l30 7c1 0 3 -1 3 -3zM279 501h44c18 0 32 -14 32 -32c0 -13 -9 -24 -21 -29l21 -38c1 -2 0 -4 -3 -4h-20c-1 0 -2 1 -2 1
l-17 35l-14 -4v-29c0 -2 -1 -3 -2 -3h-18c-2 0 -3 1 -3 3v97c0 2 1 3 3 3zM378 501h60c2 0 3 -1 3 -3v-16c0 -1 -1 -3 -3 -3h-40v-18h17c2 0 4 -1 4 -3v-17c0 -2 -2 -3 -4 -3h-17v-18h40c2 0 3 -2 3 -3v-16c0 -2 -1 -3 -3 -3h-60c-2 0 -3 1 -3 3v97c0 2 1 3 3 3zM625 501h18
c2 0 3 -1 3 -3v-60c0 -23 -19 -41 -42 -41s-42 18 -42 41v60c0 2 2 3 3 3h18c2 0 3 -1 3 -3v-59c0 -11 8 -19 18 -19c11 0 19 8 19 19v59c0 2 1 3 2 3zM874 440l21 -38c1 -2 0 -4 -2 -4h-20c-1 0 -2 1 -2 1l-18 35l-13 -4v-29c0 -2 -1 -3 -3 -3h-17c-2 0 -3 1 -3 3v97
c0 2 1 3 3 3h43c18 0 33 -14 33 -32c0 -13 -9 -23 -22 -29zM805 370v-189c0 -2 -1 -3 -3 -3h-174c-2 0 -3 1 -3 3v143c0 2 1 3 3 3h17c2 0 3 -1 3 -3v-124h135v152h-115c-2 0 -3 1 -3 2v144c0 1 1 2 3 2h17c1 0 3 -1 3 -2v-124h114c2 0 3 -2 3 -4zM299 450l22 7
c6 1 11 6 11 12s-5 11 -11 11h-22v-30zM840 450l22 7c6 2 11 6 11 12s-5 11 -11 11h-22v-30zM770 443v18c0 10 -8 18 -18 18c-11 0 -18 -8 -18 -18v-27zM371 374h274c1 0 3 -2 3 -4v-15c0 -2 -2 -3 -3 -3h-256v-152h215c1 0 2 -1 2 -3v-127h36c2 0 3 -2 3 -3v-17
c0 -1 -1 -2 -3 -2h-56c-2 0 -3 1 -3 2v128h-213c-2 0 -3 1 -3 3v189c0 2 1 3 3 3c0 1 0 1 1 1zM556 329c-29 0 -52 -24 -52 -53c0 -30 23 -53 52 -53c30 0 53 23 53 53c0 29 -23 53 -53 53zM417 327h44c17 0 32 -14 32 -32c0 -8 -3 -15 -8 -20c4 -5 7 -12 7 -19
c0 -18 -15 -32 -32 -32h-43c-2 0 -3 1 -3 3v97c0 2 1 3 3 3zM668 324v-97c0 -1 1 -3 3 -3h36c28 0 51 23 51 52c0 28 -23 51 -51 51h-36c-2 0 -3 -1 -3 -3zM437 306v-30l22 7c6 1 11 6 11 12s-5 11 -11 11h-22zM691 246v60h14c17 0 29 -13 29 -30s-12 -30 -29 -30h-14z
M556 246c-16 0 -29 14 -29 30s13 29 29 29c17 0 30 -13 30 -29s-13 -30 -30 -30zM437 245h21c6 0 11 5 11 11c0 3 -1 6 -3 8l-29 -8v-11zM788 124l12 13c1 1 1 3 -1 4c-10 9 -21 14 -36 14c-29 0 -53 -24 -53 -55c0 -30 24 -54 53 -54c14 0 26 5 37 15c1 1 1 3 0 4l-12 12
c-1 1 -3 1 -4 1c-5 -5 -13 -8 -20 -8c-17 0 -29 14 -29 31s12 31 29 31c7 0 15 -3 20 -8c1 -1 3 -1 4 0zM425 132v-82c0 -1 1 -2 2 -2h18c1 0 3 1 3 2v82h21c1 0 3 1 3 3v16c0 1 -2 3 -3 3h-65c-2 0 -3 -2 -3 -3v-16c0 -2 1 -3 3 -3h21zM367 150v-100c0 -1 1 -3 3 -3h18
c1 0 2 2 2 3v100c0 2 -1 3 -2 3h-18c-2 0 -3 -1 -3 -3zM478 50v62c0 23 19 41 42 41s42 -18 42 -41v-62c0 -1 -1 -2 -3 -2h-18c-1 0 -3 1 -3 2v22l-36 -9v-13c0 -1 -1 -2 -3 -2h-18c-1 0 -3 1 -3 2zM666 151v-101c0 -1 1 -2 3 -2h18c1 0 2 1 2 2v101c0 1 -1 2 -2 2h-18
c-2 0 -3 -1 -3 -2zM538 93v18c0 10 -7 19 -18 19c-10 0 -18 -9 -18 -19v-26z" />
    <glyph glyph-name="J" unicode="J" horiz-adv-x="452" 
d="M241 690h176c9 0 15 -6 12 -15v-461c0 -144 -89 -229 -239 -229c-64 0 -131 20 -167 50c-6 5 -9 11 -7 18l49 137c3 9 12 9 19 4c19 -15 44 -25 75 -25c38 0 63 26 67 66v440c0 9 6 15 15 15z" />
    <glyph glyph-name="K" unicode="K" horiz-adv-x="628" 
d="M413 361l213 -349c5 -7 1 -12 -7 -12h-232c-7 0 -17 5 -21 12l-124 250v-248c0 -7 -6 -14 -15 -14h-177c-7 0 -14 7 -14 14v661c0 8 7 15 14 15h177c9 0 15 -7 15 -15v-224l120 227c4 7 14 12 23 12h219c8 0 11 -5 7 -12z" />
    <glyph glyph-name="L" unicode="L" horiz-adv-x="448" 
d="M243 180h186c7 0 13 -6 13 -14l-14 -152c-1 -7 -8 -14 -16 -14h-361c-8 0 -15 7 -15 14v661c0 8 7 15 15 15h177c8 0 15 -7 15 -15v-495z" />
    <glyph glyph-name="M" unicode="M" horiz-adv-x="862" 
d="M574 690h238c8 0 14 -7 14 -15v-661c0 -7 -6 -14 -14 -14h-185c-8 0 -15 7 -15 14v294l-101 -293c-3 -9 -12 -15 -21 -15h-118c-9 0 -18 6 -21 15l-101 293v-294c0 -7 -7 -14 -15 -14h-185c-8 0 -14 7 -14 14v661c0 8 6 15 14 15h238c13 0 25 -8 29 -20l114 -375l114 375
c3 12 15 20 29 20z" />
    <glyph glyph-name="N" unicode="N" horiz-adv-x="661" 
d="M433 690h177c9 0 15 -7 15 -15v-661c0 -7 -6 -14 -15 -14h-173c-7 0 -16 5 -21 13l-174 311v-310c0 -7 -6 -14 -15 -14h-177c-8 0 -14 7 -14 14v661c0 8 6 15 14 15h173c9 0 19 -5 23 -13l173 -311v309c0 8 7 15 14 15z" />
    <glyph glyph-name="Ntilde" unicode="&#xd1;" horiz-adv-x="686" 
d="M480 401v61c0 22 19 41 42 41s42 -19 42 -41v-61c0 -1 -2 -3 -3 -3h-18c-2 0 -3 2 -3 3v20l-36 -8v-12c0 -1 -2 -3 -3 -3h-18c-2 0 -3 2 -3 3zM314 455v-46c0 -1 -1 -2 -1 -3c0 0 -15 -9 -37 -9c-29 0 -53 23 -53 52c0 30 24 53 53 53c13 0 26 -5 36 -13c1 -2 2 -3 0 -4
l-11 -13c-1 -1 -3 -1 -4 0c-6 5 -12 7 -19 7c-16 0 -29 -13 -29 -30c0 -16 13 -29 29 -29c4 0 8 1 13 3v9l-10 -2c-2 0 -3 1 -3 3v15c0 2 1 3 3 3l30 7c1 0 3 -1 3 -3zM49 501h44c18 0 32 -14 32 -32c0 -13 -9 -24 -21 -29l21 -38c1 -2 0 -4 -3 -4h-20c-1 0 -2 1 -2 1
l-17 35l-14 -4v-29c0 -2 -1 -3 -2 -3h-18c-2 0 -3 1 -3 3v97c0 2 1 3 3 3zM148 501h60c2 0 3 -1 3 -3v-16c0 -1 -1 -3 -3 -3h-40v-18h17c2 0 4 -1 4 -3v-17c0 -2 -2 -3 -4 -3h-17v-18h40c2 0 3 -2 3 -3v-16c0 -2 -1 -3 -3 -3h-60c-2 0 -3 1 -3 3v97c0 2 1 3 3 3zM395 501h18
c2 0 3 -1 3 -3v-60c0 -23 -19 -41 -42 -41s-42 18 -42 41v60c0 2 2 3 3 3h18c2 0 3 -1 3 -3v-59c0 -11 8 -19 18 -19c11 0 19 8 19 19v59c0 2 1 3 2 3zM644 440l21 -38c1 -2 0 -4 -2 -4h-20c-1 0 -2 1 -2 1l-18 35l-13 -4v-29c0 -2 -1 -3 -3 -3h-17c-2 0 -3 1 -3 3v97
c0 2 1 3 3 3h43c18 0 33 -14 33 -32c0 -13 -9 -23 -22 -29zM575 370v-189c0 -2 -1 -3 -3 -3h-174c-2 0 -3 1 -3 3v143c0 2 1 3 3 3h17c2 0 3 -1 3 -3v-124h135v152h-115c-2 0 -3 1 -3 2v144c0 1 1 2 3 2h17c1 0 3 -1 3 -2v-124h114c2 0 3 -2 3 -4zM69 450l22 7
c6 1 11 6 11 12s-5 11 -11 11h-22v-30zM610 450l22 7c6 2 11 6 11 12s-5 11 -11 11h-22v-30zM540 443v18c0 10 -8 18 -18 18c-11 0 -18 -8 -18 -18v-27zM141 374h274c1 0 3 -2 3 -4v-15c0 -2 -2 -3 -3 -3h-256v-152h215c1 0 2 -1 2 -3v-127h36c2 0 3 -2 3 -3v-17
c0 -1 -1 -2 -3 -2h-56c-2 0 -3 1 -3 2v128h-213c-2 0 -3 1 -3 3v189c0 2 1 3 3 3c0 1 0 1 1 1zM326 329c-29 0 -52 -24 -52 -53c0 -30 23 -53 52 -53c30 0 53 23 53 53c0 29 -23 53 -53 53zM187 327h44c17 0 32 -14 32 -32c0 -8 -3 -15 -8 -20c4 -5 7 -12 7 -19
c0 -18 -15 -32 -32 -32h-43c-2 0 -3 1 -3 3v97c0 2 1 3 3 3zM438 324v-97c0 -1 1 -3 3 -3h36c28 0 51 23 51 52c0 28 -23 51 -51 51h-36c-2 0 -3 -1 -3 -3zM207 306v-30l22 7c6 1 11 6 11 12s-5 11 -11 11h-22zM461 246v60h14c17 0 29 -13 29 -30s-12 -30 -29 -30h-14z
M326 246c-16 0 -29 14 -29 30s13 29 29 29c17 0 30 -13 30 -29s-13 -30 -30 -30zM207 245h21c6 0 11 5 11 11c0 3 -1 6 -3 8l-29 -8v-11zM558 124l12 13c1 1 1 3 -1 4c-10 9 -21 14 -36 14c-29 0 -53 -24 -53 -55c0 -30 24 -54 53 -54c14 0 26 5 37 15c1 1 1 3 0 4l-12 12
c-1 1 -3 1 -4 1c-5 -5 -13 -8 -20 -8c-17 0 -29 14 -29 31s12 31 29 31c7 0 15 -3 20 -8c1 -1 3 -1 4 0zM195 132v-82c0 -1 1 -2 2 -2h18c1 0 3 1 3 2v82h21c1 0 3 1 3 3v16c0 1 -2 3 -3 3h-65c-2 0 -3 -2 -3 -3v-16c0 -2 1 -3 3 -3h21zM137 150v-100c0 -1 1 -3 3 -3h18
c1 0 2 2 2 3v100c0 2 -1 3 -2 3h-18c-2 0 -3 -1 -3 -3zM248 50v62c0 23 19 41 42 41s42 -18 42 -41v-62c0 -1 -1 -2 -3 -2h-18c-1 0 -3 1 -3 2v22l-36 -9v-13c0 -1 -1 -2 -3 -2h-18c-1 0 -3 1 -3 2zM436 151v-101c0 -1 1 -2 3 -2h18c1 0 2 1 2 2v101c0 1 -1 2 -2 2h-18
c-2 0 -3 -1 -3 -2zM308 93v18c0 10 -7 19 -18 19c-10 0 -18 -9 -18 -19v-26z" />
    <glyph glyph-name="O" unicode="O" horiz-adv-x="760" 
d="M380 706c216 0 360 -144 360 -360s-144 -360 -360 -360s-360 144 -360 360s144 360 360 360zM380 510c-91 0 -152 -66 -152 -165s61 -165 152 -165s152 66 152 165s-61 165 -152 165z" />
    <glyph glyph-name="Oacute" unicode="&#xd3;" 
d="M454 401v61c0 22 19 41 42 41s42 -19 42 -41v-61c0 -1 -2 -3 -3 -3h-18c-2 0 -3 2 -3 3v20l-36 -8v-12c0 -1 -2 -3 -3 -3h-18c-2 0 -3 2 -3 3zM288 455v-46c0 -1 -1 -2 -1 -3c0 0 -15 -9 -37 -9c-29 0 -53 23 -53 52c0 30 24 53 53 53c13 0 26 -5 36 -13c1 -2 2 -3 0 -4
l-11 -13c-1 -1 -3 -1 -4 0c-6 5 -12 7 -19 7c-16 0 -29 -13 -29 -30c0 -16 13 -29 29 -29c4 0 8 1 13 3v9l-10 -2c-2 0 -3 1 -3 3v15c0 2 1 3 3 3l30 7c1 0 3 -1 3 -3zM23 501h44c18 0 32 -14 32 -32c0 -13 -9 -24 -21 -29l21 -38c1 -2 0 -4 -3 -4h-20c-1 0 -2 1 -2 1
l-17 35l-14 -4v-29c0 -2 -1 -3 -2 -3h-18c-2 0 -3 1 -3 3v97c0 2 1 3 3 3zM122 501h60c2 0 3 -1 3 -3v-16c0 -1 -1 -3 -3 -3h-40v-18h17c2 0 4 -1 4 -3v-17c0 -2 -2 -3 -4 -3h-17v-18h40c2 0 3 -2 3 -3v-16c0 -2 -1 -3 -3 -3h-60c-2 0 -3 1 -3 3v97c0 2 1 3 3 3zM369 501h18
c2 0 3 -1 3 -3v-60c0 -23 -19 -41 -42 -41s-42 18 -42 41v60c0 2 2 3 3 3h18c2 0 3 -1 3 -3v-59c0 -11 8 -19 18 -19c11 0 19 8 19 19v59c0 2 1 3 2 3zM618 440l21 -38c1 -2 0 -4 -2 -4h-20c-1 0 -2 1 -2 1l-18 35l-13 -4v-29c0 -2 -1 -3 -3 -3h-17c-2 0 -3 1 -3 3v97
c0 2 1 3 3 3h43c18 0 33 -14 33 -32c0 -13 -9 -23 -22 -29zM549 370v-189c0 -2 -1 -3 -3 -3h-174c-2 0 -3 1 -3 3v143c0 2 1 3 3 3h17c2 0 3 -1 3 -3v-124h135v152h-115c-2 0 -3 1 -3 2v144c0 1 1 2 3 2h17c1 0 3 -1 3 -2v-124h114c2 0 3 -2 3 -4zM43 450l22 7
c6 1 11 6 11 12s-5 11 -11 11h-22v-30zM584 450l22 7c6 2 11 6 11 12s-5 11 -11 11h-22v-30zM514 443v18c0 10 -8 18 -18 18c-11 0 -18 -8 -18 -18v-27zM115 374h274c1 0 3 -2 3 -4v-15c0 -2 -2 -3 -3 -3h-256v-152h215c1 0 2 -1 2 -3v-127h36c2 0 3 -2 3 -3v-17
c0 -1 -1 -2 -3 -2h-56c-2 0 -3 1 -3 2v128h-213c-2 0 -3 1 -3 3v189c0 2 1 3 3 3c0 1 0 1 1 1zM300 329c-29 0 -52 -24 -52 -53c0 -30 23 -53 52 -53c30 0 53 23 53 53c0 29 -23 53 -53 53zM161 327h44c17 0 32 -14 32 -32c0 -8 -3 -15 -8 -20c4 -5 7 -12 7 -19
c0 -18 -15 -32 -32 -32h-43c-2 0 -3 1 -3 3v97c0 2 1 3 3 3zM412 324v-97c0 -1 1 -3 3 -3h36c28 0 51 23 51 52c0 28 -23 51 -51 51h-36c-2 0 -3 -1 -3 -3zM181 306v-30l22 7c6 1 11 6 11 12s-5 11 -11 11h-22zM435 246v60h14c17 0 29 -13 29 -30s-12 -30 -29 -30h-14z
M300 246c-16 0 -29 14 -29 30s13 29 29 29c17 0 30 -13 30 -29s-13 -30 -30 -30zM181 245h21c6 0 11 5 11 11c0 3 -1 6 -3 8l-29 -8v-11zM532 124l12 13c1 1 1 3 -1 4c-10 9 -21 14 -36 14c-29 0 -53 -24 -53 -55c0 -30 24 -54 53 -54c14 0 26 5 37 15c1 1 1 3 0 4l-12 12
c-1 1 -3 1 -4 1c-5 -5 -13 -8 -20 -8c-17 0 -29 14 -29 31s12 31 29 31c7 0 15 -3 20 -8c1 -1 3 -1 4 0zM169 132v-82c0 -1 1 -2 2 -2h18c1 0 3 1 3 2v82h21c1 0 3 1 3 3v16c0 1 -2 3 -3 3h-65c-2 0 -3 -2 -3 -3v-16c0 -2 1 -3 3 -3h21zM111 150v-100c0 -1 1 -3 3 -3h18
c1 0 2 2 2 3v100c0 2 -1 3 -2 3h-18c-2 0 -3 -1 -3 -3zM222 50v62c0 23 19 41 42 41s42 -18 42 -41v-62c0 -1 -1 -2 -3 -2h-18c-1 0 -3 1 -3 2v22l-36 -9v-13c0 -1 -1 -2 -3 -2h-18c-1 0 -3 1 -3 2zM410 151v-101c0 -1 1 -2 3 -2h18c1 0 2 1 2 2v101c0 1 -1 2 -2 2h-18
c-2 0 -3 -1 -3 -2zM282 93v18c0 10 -7 19 -18 19c-10 0 -18 -9 -18 -19v-26z" />
    <glyph glyph-name="Ocircumflex" unicode="&#xd4;" horiz-adv-x="663" 
d="M457 401v61c0 22 19 41 42 41s42 -19 42 -41v-61c0 -1 -2 -3 -3 -3h-18c-2 0 -3 2 -3 3v20l-36 -8v-12c0 -1 -2 -3 -3 -3h-18c-2 0 -3 2 -3 3zM291 455v-46c0 -1 -1 -2 -1 -3c0 0 -15 -9 -37 -9c-29 0 -53 23 -53 52c0 30 24 53 53 53c13 0 26 -5 36 -13c1 -2 2 -3 0 -4
l-11 -13c-1 -1 -3 -1 -4 0c-6 5 -12 7 -19 7c-16 0 -29 -13 -29 -30c0 -16 13 -29 29 -29c4 0 8 1 13 3v9l-10 -2c-2 0 -3 1 -3 3v15c0 2 1 3 3 3l30 7c1 0 3 -1 3 -3zM26 501h44c18 0 32 -14 32 -32c0 -13 -9 -24 -21 -29l21 -38c1 -2 0 -4 -3 -4h-20c-1 0 -2 1 -2 1
l-17 35l-14 -4v-29c0 -2 -1 -3 -2 -3h-18c-2 0 -3 1 -3 3v97c0 2 1 3 3 3zM125 501h60c2 0 3 -1 3 -3v-16c0 -1 -1 -3 -3 -3h-40v-18h17c2 0 4 -1 4 -3v-17c0 -2 -2 -3 -4 -3h-17v-18h40c2 0 3 -2 3 -3v-16c0 -2 -1 -3 -3 -3h-60c-2 0 -3 1 -3 3v97c0 2 1 3 3 3zM372 501h18
c2 0 3 -1 3 -3v-60c0 -23 -19 -41 -42 -41s-42 18 -42 41v60c0 2 2 3 3 3h18c2 0 3 -1 3 -3v-59c0 -11 8 -19 18 -19c11 0 19 8 19 19v59c0 2 1 3 2 3zM621 440l21 -38c1 -2 0 -4 -2 -4h-20c-1 0 -2 1 -2 1l-18 35l-13 -4v-29c0 -2 -1 -3 -3 -3h-17c-2 0 -3 1 -3 3v97
c0 2 1 3 3 3h43c18 0 33 -14 33 -32c0 -13 -9 -23 -22 -29zM552 370v-189c0 -2 -1 -3 -3 -3h-174c-2 0 -3 1 -3 3v143c0 2 1 3 3 3h17c2 0 3 -1 3 -3v-124h135v152h-115c-2 0 -3 1 -3 2v144c0 1 1 2 3 2h17c1 0 3 -1 3 -2v-124h114c2 0 3 -2 3 -4zM46 450l22 7
c6 1 11 6 11 12s-5 11 -11 11h-22v-30zM587 450l22 7c6 2 11 6 11 12s-5 11 -11 11h-22v-30zM517 443v18c0 10 -8 18 -18 18c-11 0 -18 -8 -18 -18v-27zM118 374h274c1 0 3 -2 3 -4v-15c0 -2 -2 -3 -3 -3h-256v-152h215c1 0 2 -1 2 -3v-127h36c2 0 3 -2 3 -3v-17
c0 -1 -1 -2 -3 -2h-56c-2 0 -3 1 -3 2v128h-213c-2 0 -3 1 -3 3v189c0 2 1 3 3 3c0 1 0 1 1 1zM303 329c-29 0 -52 -24 -52 -53c0 -30 23 -53 52 -53c30 0 53 23 53 53c0 29 -23 53 -53 53zM164 327h44c17 0 32 -14 32 -32c0 -8 -3 -15 -8 -20c4 -5 7 -12 7 -19
c0 -18 -15 -32 -32 -32h-43c-2 0 -3 1 -3 3v97c0 2 1 3 3 3zM415 324v-97c0 -1 1 -3 3 -3h36c28 0 51 23 51 52c0 28 -23 51 -51 51h-36c-2 0 -3 -1 -3 -3zM184 306v-30l22 7c6 1 11 6 11 12s-5 11 -11 11h-22zM438 246v60h14c17 0 29 -13 29 -30s-12 -30 -29 -30h-14z
M303 246c-16 0 -29 14 -29 30s13 29 29 29c17 0 30 -13 30 -29s-13 -30 -30 -30zM184 245h21c6 0 11 5 11 11c0 3 -1 6 -3 8l-29 -8v-11zM535 124l12 13c1 1 1 3 -1 4c-10 9 -21 14 -36 14c-29 0 -53 -24 -53 -55c0 -30 24 -54 53 -54c14 0 26 5 37 15c1 1 1 3 0 4l-12 12
c-1 1 -3 1 -4 1c-5 -5 -13 -8 -20 -8c-17 0 -29 14 -29 31s12 31 29 31c7 0 15 -3 20 -8c1 -1 3 -1 4 0zM172 132v-82c0 -1 1 -2 2 -2h18c1 0 3 1 3 2v82h21c1 0 3 1 3 3v16c0 1 -2 3 -3 3h-65c-2 0 -3 -2 -3 -3v-16c0 -2 1 -3 3 -3h21zM114 150v-100c0 -1 1 -3 3 -3h18
c1 0 2 2 2 3v100c0 2 -1 3 -2 3h-18c-2 0 -3 -1 -3 -3zM225 50v62c0 23 19 41 42 41s42 -18 42 -41v-62c0 -1 -1 -2 -3 -2h-18c-1 0 -3 1 -3 2v22l-36 -9v-13c0 -1 -1 -2 -3 -2h-18c-1 0 -3 1 -3 2zM413 151v-101c0 -1 1 -2 3 -2h18c1 0 2 1 2 2v101c0 1 -1 2 -2 2h-18
c-2 0 -3 -1 -3 -2zM285 93v18c0 10 -7 19 -18 19c-10 0 -18 -9 -18 -19v-26z" />
    <glyph glyph-name="Odieresis" unicode="&#xd6;" 
d="M454 401v61c0 22 19 41 42 41s42 -19 42 -41v-61c0 -1 -2 -3 -3 -3h-18c-2 0 -3 2 -3 3v20l-36 -8v-12c0 -1 -2 -3 -3 -3h-18c-2 0 -3 2 -3 3zM288 455v-46c0 -1 -1 -2 -1 -3c0 0 -15 -9 -37 -9c-29 0 -53 23 -53 52c0 30 24 53 53 53c13 0 26 -5 36 -13c1 -2 2 -3 0 -4
l-11 -13c-1 -1 -3 -1 -4 0c-6 5 -12 7 -19 7c-16 0 -29 -13 -29 -30c0 -16 13 -29 29 -29c4 0 8 1 13 3v9l-10 -2c-2 0 -3 1 -3 3v15c0 2 1 3 3 3l30 7c1 0 3 -1 3 -3zM23 501h44c18 0 32 -14 32 -32c0 -13 -9 -24 -21 -29l21 -38c1 -2 0 -4 -3 -4h-20c-1 0 -2 1 -2 1
l-17 35l-14 -4v-29c0 -2 -1 -3 -2 -3h-18c-2 0 -3 1 -3 3v97c0 2 1 3 3 3zM122 501h60c2 0 3 -1 3 -3v-16c0 -1 -1 -3 -3 -3h-40v-18h17c2 0 4 -1 4 -3v-17c0 -2 -2 -3 -4 -3h-17v-18h40c2 0 3 -2 3 -3v-16c0 -2 -1 -3 -3 -3h-60c-2 0 -3 1 -3 3v97c0 2 1 3 3 3zM369 501h18
c2 0 3 -1 3 -3v-60c0 -23 -19 -41 -42 -41s-42 18 -42 41v60c0 2 2 3 3 3h18c2 0 3 -1 3 -3v-59c0 -11 8 -19 18 -19c11 0 19 8 19 19v59c0 2 1 3 2 3zM618 440l21 -38c1 -2 0 -4 -2 -4h-20c-1 0 -2 1 -2 1l-18 35l-13 -4v-29c0 -2 -1 -3 -3 -3h-17c-2 0 -3 1 -3 3v97
c0 2 1 3 3 3h43c18 0 33 -14 33 -32c0 -13 -9 -23 -22 -29zM549 370v-189c0 -2 -1 -3 -3 -3h-174c-2 0 -3 1 -3 3v143c0 2 1 3 3 3h17c2 0 3 -1 3 -3v-124h135v152h-115c-2 0 -3 1 -3 2v144c0 1 1 2 3 2h17c1 0 3 -1 3 -2v-124h114c2 0 3 -2 3 -4zM43 450l22 7
c6 1 11 6 11 12s-5 11 -11 11h-22v-30zM584 450l22 7c6 2 11 6 11 12s-5 11 -11 11h-22v-30zM514 443v18c0 10 -8 18 -18 18c-11 0 -18 -8 -18 -18v-27zM115 374h274c1 0 3 -2 3 -4v-15c0 -2 -2 -3 -3 -3h-256v-152h215c1 0 2 -1 2 -3v-127h36c2 0 3 -2 3 -3v-17
c0 -1 -1 -2 -3 -2h-56c-2 0 -3 1 -3 2v128h-213c-2 0 -3 1 -3 3v189c0 2 1 3 3 3c0 1 0 1 1 1zM300 329c-29 0 -52 -24 -52 -53c0 -30 23 -53 52 -53c30 0 53 23 53 53c0 29 -23 53 -53 53zM161 327h44c17 0 32 -14 32 -32c0 -8 -3 -15 -8 -20c4 -5 7 -12 7 -19
c0 -18 -15 -32 -32 -32h-43c-2 0 -3 1 -3 3v97c0 2 1 3 3 3zM412 324v-97c0 -1 1 -3 3 -3h36c28 0 51 23 51 52c0 28 -23 51 -51 51h-36c-2 0 -3 -1 -3 -3zM181 306v-30l22 7c6 1 11 6 11 12s-5 11 -11 11h-22zM435 246v60h14c17 0 29 -13 29 -30s-12 -30 -29 -30h-14z
M300 246c-16 0 -29 14 -29 30s13 29 29 29c17 0 30 -13 30 -29s-13 -30 -30 -30zM181 245h21c6 0 11 5 11 11c0 3 -1 6 -3 8l-29 -8v-11zM532 124l12 13c1 1 1 3 -1 4c-10 9 -21 14 -36 14c-29 0 -53 -24 -53 -55c0 -30 24 -54 53 -54c14 0 26 5 37 15c1 1 1 3 0 4l-12 12
c-1 1 -3 1 -4 1c-5 -5 -13 -8 -20 -8c-17 0 -29 14 -29 31s12 31 29 31c7 0 15 -3 20 -8c1 -1 3 -1 4 0zM169 132v-82c0 -1 1 -2 2 -2h18c1 0 3 1 3 2v82h21c1 0 3 1 3 3v16c0 1 -2 3 -3 3h-65c-2 0 -3 -2 -3 -3v-16c0 -2 1 -3 3 -3h21zM111 150v-100c0 -1 1 -3 3 -3h18
c1 0 2 2 2 3v100c0 2 -1 3 -2 3h-18c-2 0 -3 -1 -3 -3zM222 50v62c0 23 19 41 42 41s42 -18 42 -41v-62c0 -1 -1 -2 -3 -2h-18c-1 0 -3 1 -3 2v22l-36 -9v-13c0 -1 -1 -2 -3 -2h-18c-1 0 -3 1 -3 2zM410 151v-101c0 -1 1 -2 3 -2h18c1 0 2 1 2 2v101c0 1 -1 2 -2 2h-18
c-2 0 -3 -1 -3 -2zM282 93v18c0 10 -7 19 -18 19c-10 0 -18 -9 -18 -19v-26z" />
    <glyph glyph-name="Ograve" unicode="&#xd2;" horiz-adv-x="675" 
d="M469 401v61c0 22 19 41 42 41s42 -19 42 -41v-61c0 -1 -2 -3 -3 -3h-18c-2 0 -3 2 -3 3v20l-36 -8v-12c0 -1 -2 -3 -3 -3h-18c-2 0 -3 2 -3 3zM303 455v-46c0 -1 -1 -2 -1 -3c0 0 -15 -9 -37 -9c-29 0 -53 23 -53 52c0 30 24 53 53 53c13 0 26 -5 36 -13c1 -2 2 -3 0 -4
l-11 -13c-1 -1 -3 -1 -4 0c-6 5 -12 7 -19 7c-16 0 -29 -13 -29 -30c0 -16 13 -29 29 -29c4 0 8 1 13 3v9l-10 -2c-2 0 -3 1 -3 3v15c0 2 1 3 3 3l30 7c1 0 3 -1 3 -3zM38 501h44c18 0 32 -14 32 -32c0 -13 -9 -24 -21 -29l21 -38c1 -2 0 -4 -3 -4h-20c-1 0 -2 1 -2 1
l-17 35l-14 -4v-29c0 -2 -1 -3 -2 -3h-18c-2 0 -3 1 -3 3v97c0 2 1 3 3 3zM137 501h60c2 0 3 -1 3 -3v-16c0 -1 -1 -3 -3 -3h-40v-18h17c2 0 4 -1 4 -3v-17c0 -2 -2 -3 -4 -3h-17v-18h40c2 0 3 -2 3 -3v-16c0 -2 -1 -3 -3 -3h-60c-2 0 -3 1 -3 3v97c0 2 1 3 3 3zM384 501h18
c2 0 3 -1 3 -3v-60c0 -23 -19 -41 -42 -41s-42 18 -42 41v60c0 2 2 3 3 3h18c2 0 3 -1 3 -3v-59c0 -11 8 -19 18 -19c11 0 19 8 19 19v59c0 2 1 3 2 3zM633 440l21 -38c1 -2 0 -4 -2 -4h-20c-1 0 -2 1 -2 1l-18 35l-13 -4v-29c0 -2 -1 -3 -3 -3h-17c-2 0 -3 1 -3 3v97
c0 2 1 3 3 3h43c18 0 33 -14 33 -32c0 -13 -9 -23 -22 -29zM564 370v-189c0 -2 -1 -3 -3 -3h-174c-2 0 -3 1 -3 3v143c0 2 1 3 3 3h17c2 0 3 -1 3 -3v-124h135v152h-115c-2 0 -3 1 -3 2v144c0 1 1 2 3 2h17c1 0 3 -1 3 -2v-124h114c2 0 3 -2 3 -4zM58 450l22 7
c6 1 11 6 11 12s-5 11 -11 11h-22v-30zM599 450l22 7c6 2 11 6 11 12s-5 11 -11 11h-22v-30zM529 443v18c0 10 -8 18 -18 18c-11 0 -18 -8 -18 -18v-27zM130 374h274c1 0 3 -2 3 -4v-15c0 -2 -2 -3 -3 -3h-256v-152h215c1 0 2 -1 2 -3v-127h36c2 0 3 -2 3 -3v-17
c0 -1 -1 -2 -3 -2h-56c-2 0 -3 1 -3 2v128h-213c-2 0 -3 1 -3 3v189c0 2 1 3 3 3c0 1 0 1 1 1zM315 329c-29 0 -52 -24 -52 -53c0 -30 23 -53 52 -53c30 0 53 23 53 53c0 29 -23 53 -53 53zM176 327h44c17 0 32 -14 32 -32c0 -8 -3 -15 -8 -20c4 -5 7 -12 7 -19
c0 -18 -15 -32 -32 -32h-43c-2 0 -3 1 -3 3v97c0 2 1 3 3 3zM427 324v-97c0 -1 1 -3 3 -3h36c28 0 51 23 51 52c0 28 -23 51 -51 51h-36c-2 0 -3 -1 -3 -3zM196 306v-30l22 7c6 1 11 6 11 12s-5 11 -11 11h-22zM450 246v60h14c17 0 29 -13 29 -30s-12 -30 -29 -30h-14z
M315 246c-16 0 -29 14 -29 30s13 29 29 29c17 0 30 -13 30 -29s-13 -30 -30 -30zM196 245h21c6 0 11 5 11 11c0 3 -1 6 -3 8l-29 -8v-11zM547 124l12 13c1 1 1 3 -1 4c-10 9 -21 14 -36 14c-29 0 -53 -24 -53 -55c0 -30 24 -54 53 -54c14 0 26 5 37 15c1 1 1 3 0 4l-12 12
c-1 1 -3 1 -4 1c-5 -5 -13 -8 -20 -8c-17 0 -29 14 -29 31s12 31 29 31c7 0 15 -3 20 -8c1 -1 3 -1 4 0zM184 132v-82c0 -1 1 -2 2 -2h18c1 0 3 1 3 2v82h21c1 0 3 1 3 3v16c0 1 -2 3 -3 3h-65c-2 0 -3 -2 -3 -3v-16c0 -2 1 -3 3 -3h21zM126 150v-100c0 -1 1 -3 3 -3h18
c1 0 2 2 2 3v100c0 2 -1 3 -2 3h-18c-2 0 -3 -1 -3 -3zM237 50v62c0 23 19 41 42 41s42 -18 42 -41v-62c0 -1 -1 -2 -3 -2h-18c-1 0 -3 1 -3 2v22l-36 -9v-13c0 -1 -1 -2 -3 -2h-18c-1 0 -3 1 -3 2zM425 151v-101c0 -1 1 -2 3 -2h18c1 0 2 1 2 2v101c0 1 -1 2 -2 2h-18
c-2 0 -3 -1 -3 -2zM297 93v18c0 10 -7 19 -18 19c-10 0 -18 -9 -18 -19v-26z" />
    <glyph glyph-name="Oslash" unicode="&#xd8;" 
d="M454 401v61c0 22 19 41 42 41s42 -19 42 -41v-61c0 -1 -2 -3 -3 -3h-18c-2 0 -3 2 -3 3v20l-36 -8v-12c0 -1 -2 -3 -3 -3h-18c-2 0 -3 2 -3 3zM288 455v-46c0 -1 -1 -2 -1 -3c0 0 -15 -9 -37 -9c-29 0 -53 23 -53 52c0 30 24 53 53 53c13 0 26 -5 36 -13c1 -2 2 -3 0 -4
l-11 -13c-1 -1 -3 -1 -4 0c-6 5 -12 7 -19 7c-16 0 -29 -13 -29 -30c0 -16 13 -29 29 -29c4 0 8 1 13 3v9l-10 -2c-2 0 -3 1 -3 3v15c0 2 1 3 3 3l30 7c1 0 3 -1 3 -3zM23 501h44c18 0 32 -14 32 -32c0 -13 -9 -24 -21 -29l21 -38c1 -2 0 -4 -3 -4h-20c-1 0 -2 1 -2 1
l-17 35l-14 -4v-29c0 -2 -1 -3 -2 -3h-18c-2 0 -3 1 -3 3v97c0 2 1 3 3 3zM122 501h60c2 0 3 -1 3 -3v-16c0 -1 -1 -3 -3 -3h-40v-18h17c2 0 4 -1 4 -3v-17c0 -2 -2 -3 -4 -3h-17v-18h40c2 0 3 -2 3 -3v-16c0 -2 -1 -3 -3 -3h-60c-2 0 -3 1 -3 3v97c0 2 1 3 3 3zM369 501h18
c2 0 3 -1 3 -3v-60c0 -23 -19 -41 -42 -41s-42 18 -42 41v60c0 2 2 3 3 3h18c2 0 3 -1 3 -3v-59c0 -11 8 -19 18 -19c11 0 19 8 19 19v59c0 2 1 3 2 3zM618 440l21 -38c1 -2 0 -4 -2 -4h-20c-1 0 -2 1 -2 1l-18 35l-13 -4v-29c0 -2 -1 -3 -3 -3h-17c-2 0 -3 1 -3 3v97
c0 2 1 3 3 3h43c18 0 33 -14 33 -32c0 -13 -9 -23 -22 -29zM549 370v-189c0 -2 -1 -3 -3 -3h-174c-2 0 -3 1 -3 3v143c0 2 1 3 3 3h17c2 0 3 -1 3 -3v-124h135v152h-115c-2 0 -3 1 -3 2v144c0 1 1 2 3 2h17c1 0 3 -1 3 -2v-124h114c2 0 3 -2 3 -4zM43 450l22 7
c6 1 11 6 11 12s-5 11 -11 11h-22v-30zM584 450l22 7c6 2 11 6 11 12s-5 11 -11 11h-22v-30zM514 443v18c0 10 -8 18 -18 18c-11 0 -18 -8 -18 -18v-27zM115 374h274c1 0 3 -2 3 -4v-15c0 -2 -2 -3 -3 -3h-256v-152h215c1 0 2 -1 2 -3v-127h36c2 0 3 -2 3 -3v-17
c0 -1 -1 -2 -3 -2h-56c-2 0 -3 1 -3 2v128h-213c-2 0 -3 1 -3 3v189c0 2 1 3 3 3c0 1 0 1 1 1zM300 329c-29 0 -52 -24 -52 -53c0 -30 23 -53 52 -53c30 0 53 23 53 53c0 29 -23 53 -53 53zM161 327h44c17 0 32 -14 32 -32c0 -8 -3 -15 -8 -20c4 -5 7 -12 7 -19
c0 -18 -15 -32 -32 -32h-43c-2 0 -3 1 -3 3v97c0 2 1 3 3 3zM412 324v-97c0 -1 1 -3 3 -3h36c28 0 51 23 51 52c0 28 -23 51 -51 51h-36c-2 0 -3 -1 -3 -3zM181 306v-30l22 7c6 1 11 6 11 12s-5 11 -11 11h-22zM435 246v60h14c17 0 29 -13 29 -30s-12 -30 -29 -30h-14z
M300 246c-16 0 -29 14 -29 30s13 29 29 29c17 0 30 -13 30 -29s-13 -30 -30 -30zM181 245h21c6 0 11 5 11 11c0 3 -1 6 -3 8l-29 -8v-11zM532 124l12 13c1 1 1 3 -1 4c-10 9 -21 14 -36 14c-29 0 -53 -24 -53 -55c0 -30 24 -54 53 -54c14 0 26 5 37 15c1 1 1 3 0 4l-12 12
c-1 1 -3 1 -4 1c-5 -5 -13 -8 -20 -8c-17 0 -29 14 -29 31s12 31 29 31c7 0 15 -3 20 -8c1 -1 3 -1 4 0zM169 132v-82c0 -1 1 -2 2 -2h18c1 0 3 1 3 2v82h21c1 0 3 1 3 3v16c0 1 -2 3 -3 3h-65c-2 0 -3 -2 -3 -3v-16c0 -2 1 -3 3 -3h21zM111 150v-100c0 -1 1 -3 3 -3h18
c1 0 2 2 2 3v100c0 2 -1 3 -2 3h-18c-2 0 -3 -1 -3 -3zM222 50v62c0 23 19 41 42 41s42 -18 42 -41v-62c0 -1 -1 -2 -3 -2h-18c-1 0 -3 1 -3 2v22l-36 -9v-13c0 -1 -1 -2 -3 -2h-18c-1 0 -3 1 -3 2zM410 151v-101c0 -1 1 -2 3 -2h18c1 0 2 1 2 2v101c0 1 -1 2 -2 2h-18
c-2 0 -3 -1 -3 -2zM282 93v18c0 10 -7 19 -18 19c-10 0 -18 -9 -18 -19v-26z" />
    <glyph glyph-name="Otilde" unicode="&#xd5;" 
d="M454 401v61c0 22 19 41 42 41s42 -19 42 -41v-61c0 -1 -2 -3 -3 -3h-18c-2 0 -3 2 -3 3v20l-36 -8v-12c0 -1 -2 -3 -3 -3h-18c-2 0 -3 2 -3 3zM288 455v-46c0 -1 -1 -2 -1 -3c0 0 -15 -9 -37 -9c-29 0 -53 23 -53 52c0 30 24 53 53 53c13 0 26 -5 36 -13c1 -2 2 -3 0 -4
l-11 -13c-1 -1 -3 -1 -4 0c-6 5 -12 7 -19 7c-16 0 -29 -13 -29 -30c0 -16 13 -29 29 -29c4 0 8 1 13 3v9l-10 -2c-2 0 -3 1 -3 3v15c0 2 1 3 3 3l30 7c1 0 3 -1 3 -3zM23 501h44c18 0 32 -14 32 -32c0 -13 -9 -24 -21 -29l21 -38c1 -2 0 -4 -3 -4h-20c-1 0 -2 1 -2 1
l-17 35l-14 -4v-29c0 -2 -1 -3 -2 -3h-18c-2 0 -3 1 -3 3v97c0 2 1 3 3 3zM122 501h60c2 0 3 -1 3 -3v-16c0 -1 -1 -3 -3 -3h-40v-18h17c2 0 4 -1 4 -3v-17c0 -2 -2 -3 -4 -3h-17v-18h40c2 0 3 -2 3 -3v-16c0 -2 -1 -3 -3 -3h-60c-2 0 -3 1 -3 3v97c0 2 1 3 3 3zM369 501h18
c2 0 3 -1 3 -3v-60c0 -23 -19 -41 -42 -41s-42 18 -42 41v60c0 2 2 3 3 3h18c2 0 3 -1 3 -3v-59c0 -11 8 -19 18 -19c11 0 19 8 19 19v59c0 2 1 3 2 3zM618 440l21 -38c1 -2 0 -4 -2 -4h-20c-1 0 -2 1 -2 1l-18 35l-13 -4v-29c0 -2 -1 -3 -3 -3h-17c-2 0 -3 1 -3 3v97
c0 2 1 3 3 3h43c18 0 33 -14 33 -32c0 -13 -9 -23 -22 -29zM549 370v-189c0 -2 -1 -3 -3 -3h-174c-2 0 -3 1 -3 3v143c0 2 1 3 3 3h17c2 0 3 -1 3 -3v-124h135v152h-115c-2 0 -3 1 -3 2v144c0 1 1 2 3 2h17c1 0 3 -1 3 -2v-124h114c2 0 3 -2 3 -4zM43 450l22 7
c6 1 11 6 11 12s-5 11 -11 11h-22v-30zM584 450l22 7c6 2 11 6 11 12s-5 11 -11 11h-22v-30zM514 443v18c0 10 -8 18 -18 18c-11 0 -18 -8 -18 -18v-27zM115 374h274c1 0 3 -2 3 -4v-15c0 -2 -2 -3 -3 -3h-256v-152h215c1 0 2 -1 2 -3v-127h36c2 0 3 -2 3 -3v-17
c0 -1 -1 -2 -3 -2h-56c-2 0 -3 1 -3 2v128h-213c-2 0 -3 1 -3 3v189c0 2 1 3 3 3c0 1 0 1 1 1zM300 329c-29 0 -52 -24 -52 -53c0 -30 23 -53 52 -53c30 0 53 23 53 53c0 29 -23 53 -53 53zM161 327h44c17 0 32 -14 32 -32c0 -8 -3 -15 -8 -20c4 -5 7 -12 7 -19
c0 -18 -15 -32 -32 -32h-43c-2 0 -3 1 -3 3v97c0 2 1 3 3 3zM412 324v-97c0 -1 1 -3 3 -3h36c28 0 51 23 51 52c0 28 -23 51 -51 51h-36c-2 0 -3 -1 -3 -3zM181 306v-30l22 7c6 1 11 6 11 12s-5 11 -11 11h-22zM435 246v60h14c17 0 29 -13 29 -30s-12 -30 -29 -30h-14z
M300 246c-16 0 -29 14 -29 30s13 29 29 29c17 0 30 -13 30 -29s-13 -30 -30 -30zM181 245h21c6 0 11 5 11 11c0 3 -1 6 -3 8l-29 -8v-11zM532 124l12 13c1 1 1 3 -1 4c-10 9 -21 14 -36 14c-29 0 -53 -24 -53 -55c0 -30 24 -54 53 -54c14 0 26 5 37 15c1 1 1 3 0 4l-12 12
c-1 1 -3 1 -4 1c-5 -5 -13 -8 -20 -8c-17 0 -29 14 -29 31s12 31 29 31c7 0 15 -3 20 -8c1 -1 3 -1 4 0zM169 132v-82c0 -1 1 -2 2 -2h18c1 0 3 1 3 2v82h21c1 0 3 1 3 3v16c0 1 -2 3 -3 3h-65c-2 0 -3 -2 -3 -3v-16c0 -2 1 -3 3 -3h21zM111 150v-100c0 -1 1 -3 3 -3h18
c1 0 2 2 2 3v100c0 2 -1 3 -2 3h-18c-2 0 -3 -1 -3 -3zM222 50v62c0 23 19 41 42 41s42 -18 42 -41v-62c0 -1 -1 -2 -3 -2h-18c-1 0 -3 1 -3 2v22l-36 -9v-13c0 -1 -1 -2 -3 -2h-18c-1 0 -3 1 -3 2zM410 151v-101c0 -1 1 -2 3 -2h18c1 0 2 1 2 2v101c0 1 -1 2 -2 2h-18
c-2 0 -3 -1 -3 -2zM282 93v18c0 10 -7 19 -18 19c-10 0 -18 -9 -18 -19v-26z" />
    <glyph glyph-name="OE" unicode="&#x152;" 
d="M454 401v61c0 22 19 41 42 41s42 -19 42 -41v-61c0 -1 -2 -3 -3 -3h-18c-2 0 -3 2 -3 3v20l-36 -8v-12c0 -1 -2 -3 -3 -3h-18c-2 0 -3 2 -3 3zM288 455v-46c0 -1 -1 -2 -1 -3c0 0 -15 -9 -37 -9c-29 0 -53 23 -53 52c0 30 24 53 53 53c13 0 26 -5 36 -13c1 -2 2 -3 0 -4
l-11 -13c-1 -1 -3 -1 -4 0c-6 5 -12 7 -19 7c-16 0 -29 -13 -29 -30c0 -16 13 -29 29 -29c4 0 8 1 13 3v9l-10 -2c-2 0 -3 1 -3 3v15c0 2 1 3 3 3l30 7c1 0 3 -1 3 -3zM23 501h44c18 0 32 -14 32 -32c0 -13 -9 -24 -21 -29l21 -38c1 -2 0 -4 -3 -4h-20c-1 0 -2 1 -2 1
l-17 35l-14 -4v-29c0 -2 -1 -3 -2 -3h-18c-2 0 -3 1 -3 3v97c0 2 1 3 3 3zM122 501h60c2 0 3 -1 3 -3v-16c0 -1 -1 -3 -3 -3h-40v-18h17c2 0 4 -1 4 -3v-17c0 -2 -2 -3 -4 -3h-17v-18h40c2 0 3 -2 3 -3v-16c0 -2 -1 -3 -3 -3h-60c-2 0 -3 1 -3 3v97c0 2 1 3 3 3zM369 501h18
c2 0 3 -1 3 -3v-60c0 -23 -19 -41 -42 -41s-42 18 -42 41v60c0 2 2 3 3 3h18c2 0 3 -1 3 -3v-59c0 -11 8 -19 18 -19c11 0 19 8 19 19v59c0 2 1 3 2 3zM618 440l21 -38c1 -2 0 -4 -2 -4h-20c-1 0 -2 1 -2 1l-18 35l-13 -4v-29c0 -2 -1 -3 -3 -3h-17c-2 0 -3 1 -3 3v97
c0 2 1 3 3 3h43c18 0 33 -14 33 -32c0 -13 -9 -23 -22 -29zM549 370v-189c0 -2 -1 -3 -3 -3h-174c-2 0 -3 1 -3 3v143c0 2 1 3 3 3h17c2 0 3 -1 3 -3v-124h135v152h-115c-2 0 -3 1 -3 2v144c0 1 1 2 3 2h17c1 0 3 -1 3 -2v-124h114c2 0 3 -2 3 -4zM43 450l22 7
c6 1 11 6 11 12s-5 11 -11 11h-22v-30zM584 450l22 7c6 2 11 6 11 12s-5 11 -11 11h-22v-30zM514 443v18c0 10 -8 18 -18 18c-11 0 -18 -8 -18 -18v-27zM115 374h274c1 0 3 -2 3 -4v-15c0 -2 -2 -3 -3 -3h-256v-152h215c1 0 2 -1 2 -3v-127h36c2 0 3 -2 3 -3v-17
c0 -1 -1 -2 -3 -2h-56c-2 0 -3 1 -3 2v128h-213c-2 0 -3 1 -3 3v189c0 2 1 3 3 3c0 1 0 1 1 1zM300 329c-29 0 -52 -24 -52 -53c0 -30 23 -53 52 -53c30 0 53 23 53 53c0 29 -23 53 -53 53zM161 327h44c17 0 32 -14 32 -32c0 -8 -3 -15 -8 -20c4 -5 7 -12 7 -19
c0 -18 -15 -32 -32 -32h-43c-2 0 -3 1 -3 3v97c0 2 1 3 3 3zM412 324v-97c0 -1 1 -3 3 -3h36c28 0 51 23 51 52c0 28 -23 51 -51 51h-36c-2 0 -3 -1 -3 -3zM181 306v-30l22 7c6 1 11 6 11 12s-5 11 -11 11h-22zM435 246v60h14c17 0 29 -13 29 -30s-12 -30 -29 -30h-14z
M300 246c-16 0 -29 14 -29 30s13 29 29 29c17 0 30 -13 30 -29s-13 -30 -30 -30zM181 245h21c6 0 11 5 11 11c0 3 -1 6 -3 8l-29 -8v-11zM532 124l12 13c1 1 1 3 -1 4c-10 9 -21 14 -36 14c-29 0 -53 -24 -53 -55c0 -30 24 -54 53 -54c14 0 26 5 37 15c1 1 1 3 0 4l-12 12
c-1 1 -3 1 -4 1c-5 -5 -13 -8 -20 -8c-17 0 -29 14 -29 31s12 31 29 31c7 0 15 -3 20 -8c1 -1 3 -1 4 0zM169 132v-82c0 -1 1 -2 2 -2h18c1 0 3 1 3 2v82h21c1 0 3 1 3 3v16c0 1 -2 3 -3 3h-65c-2 0 -3 -2 -3 -3v-16c0 -2 1 -3 3 -3h21zM111 150v-100c0 -1 1 -3 3 -3h18
c1 0 2 2 2 3v100c0 2 -1 3 -2 3h-18c-2 0 -3 -1 -3 -3zM222 50v62c0 23 19 41 42 41s42 -18 42 -41v-62c0 -1 -1 -2 -3 -2h-18c-1 0 -3 1 -3 2v22l-36 -9v-13c0 -1 -1 -2 -3 -2h-18c-1 0 -3 1 -3 2zM410 151v-101c0 -1 1 -2 3 -2h18c1 0 2 1 2 2v101c0 1 -1 2 -2 2h-18
c-2 0 -3 -1 -3 -2zM282 93v18c0 10 -7 19 -18 19c-10 0 -18 -9 -18 -19v-26z" />
    <glyph glyph-name="P" unicode="P" horiz-adv-x="572" 
d="M50 690h236c175 0 280 -95 280 -238s-105 -238 -280 -238h-41v-200c0 -7 -7 -14 -16 -14h-179c-7 0 -14 7 -14 14v661c0 8 7 15 14 15zM243 393h52c35 0 59 24 59 59s-24 59 -59 59h-52v-118z" />
    <glyph glyph-name="Q" unicode="Q" horiz-adv-x="769" 
d="M679 135l82 -66c9 -7 9 -14 2 -20l-123 -122c-8 -6 -14 -5 -20 2l-74 91c-48 -22 -104 -34 -165 -34c-213 0 -355 144 -355 359c0 217 142 361 355 361s355 -144 355 -361c0 -81 -20 -152 -57 -210zM467 307l44 -36c9 22 13 47 13 74c0 99 -57 165 -143 165
s-143 -66 -143 -165s57 -165 143 -165c11 0 21 1 31 3l-30 37c-6 7 -6 13 1 20l65 64c7 7 12 9 19 3z" />
    <glyph glyph-name="R" unicode="R" horiz-adv-x="609" 
d="M459 278l148 -262c5 -9 -2 -16 -11 -16h-203c-10 0 -19 7 -23 16l-88 204c-9 22 -24 33 -39 31v-237c0 -7 -7 -14 -16 -14h-176c-8 0 -15 7 -15 14v661c0 8 7 15 15 15h264c154 0 256 -90 256 -226c0 -80 -43 -151 -112 -186zM243 404h59c34 0 57 21 57 53s-23 53 -57 53
h-59v-106z" />
    <glyph glyph-name="S" unicode="S" horiz-adv-x="535" 
d="M31 75l60 127c4 10 12 13 19 8c50 -32 109 -54 146 -54c28 0 47 14 47 35c0 89 -283 56 -283 291c0 134 101 223 253 223c76 0 165 -30 224 -74c5 -4 7 -10 4 -16l-69 -122c-5 -9 -12 -12 -19 -8c-46 26 -98 43 -132 43c-29 0 -49 -15 -49 -37c0 -76 283 -40 283 -283
c0 -134 -103 -223 -257 -223c-75 0 -164 30 -223 74c-5 4 -7 10 -4 16z" />
    <glyph glyph-name="T" unicode="T" horiz-adv-x="526" 
d="M14 690h498c9 0 15 -7 14 -14l-15 -152c-1 -8 -9 -14 -16 -14h-129v-496c0 -7 -6 -14 -14 -14h-177c-8 0 -15 7 -15 14v496h-146c-7 0 -14 6 -14 14v151c0 8 7 15 14 15z" />
    <glyph glyph-name="U" unicode="U" horiz-adv-x="642" 
d="M427 690h164c12 0 21 -8 21 -17v-421c0 -160 -116 -266 -291 -266s-291 106 -291 266v421c0 9 9 17 21 17h164c9 0 22 -8 22 -17v-425c0 -50 34 -83 84 -83s84 33 84 83v425c0 9 13 17 22 17z" />
    <glyph glyph-name="Uacute" unicode="&#xda;" horiz-adv-x="708" 
d="M502 401v61c0 22 19 41 42 41s42 -19 42 -41v-61c0 -1 -2 -3 -3 -3h-18c-2 0 -3 2 -3 3v20l-36 -8v-12c0 -1 -2 -3 -3 -3h-18c-2 0 -3 2 -3 3zM336 455v-46c0 -1 -1 -2 -1 -3c0 0 -15 -9 -37 -9c-29 0 -53 23 -53 52c0 30 24 53 53 53c13 0 26 -5 36 -13c1 -2 2 -3 0 -4
l-11 -13c-1 -1 -3 -1 -4 0c-6 5 -12 7 -19 7c-16 0 -29 -13 -29 -30c0 -16 13 -29 29 -29c4 0 8 1 13 3v9l-10 -2c-2 0 -3 1 -3 3v15c0 2 1 3 3 3l30 7c1 0 3 -1 3 -3zM71 501h44c18 0 32 -14 32 -32c0 -13 -9 -24 -21 -29l21 -38c1 -2 0 -4 -3 -4h-20c-1 0 -2 1 -2 1
l-17 35l-14 -4v-29c0 -2 -1 -3 -2 -3h-18c-2 0 -3 1 -3 3v97c0 2 1 3 3 3zM170 501h60c2 0 3 -1 3 -3v-16c0 -1 -1 -3 -3 -3h-40v-18h17c2 0 4 -1 4 -3v-17c0 -2 -2 -3 -4 -3h-17v-18h40c2 0 3 -2 3 -3v-16c0 -2 -1 -3 -3 -3h-60c-2 0 -3 1 -3 3v97c0 2 1 3 3 3zM417 501h18
c2 0 3 -1 3 -3v-60c0 -23 -19 -41 -42 -41s-42 18 -42 41v60c0 2 2 3 3 3h18c2 0 3 -1 3 -3v-59c0 -11 8 -19 18 -19c11 0 19 8 19 19v59c0 2 1 3 2 3zM666 440l21 -38c1 -2 0 -4 -2 -4h-20c-1 0 -2 1 -2 1l-18 35l-13 -4v-29c0 -2 -1 -3 -3 -3h-17c-2 0 -3 1 -3 3v97
c0 2 1 3 3 3h43c18 0 33 -14 33 -32c0 -13 -9 -23 -22 -29zM597 370v-189c0 -2 -1 -3 -3 -3h-174c-2 0 -3 1 -3 3v143c0 2 1 3 3 3h17c2 0 3 -1 3 -3v-124h135v152h-115c-2 0 -3 1 -3 2v144c0 1 1 2 3 2h17c1 0 3 -1 3 -2v-124h114c2 0 3 -2 3 -4zM91 450l22 7
c6 1 11 6 11 12s-5 11 -11 11h-22v-30zM632 450l22 7c6 2 11 6 11 12s-5 11 -11 11h-22v-30zM562 443v18c0 10 -8 18 -18 18c-11 0 -18 -8 -18 -18v-27zM163 374h274c1 0 3 -2 3 -4v-15c0 -2 -2 -3 -3 -3h-256v-152h215c1 0 2 -1 2 -3v-127h36c2 0 3 -2 3 -3v-17
c0 -1 -1 -2 -3 -2h-56c-2 0 -3 1 -3 2v128h-213c-2 0 -3 1 -3 3v189c0 2 1 3 3 3c0 1 0 1 1 1zM348 329c-29 0 -52 -24 -52 -53c0 -30 23 -53 52 -53c30 0 53 23 53 53c0 29 -23 53 -53 53zM209 327h44c17 0 32 -14 32 -32c0 -8 -3 -15 -8 -20c4 -5 7 -12 7 -19
c0 -18 -15 -32 -32 -32h-43c-2 0 -3 1 -3 3v97c0 2 1 3 3 3zM460 324v-97c0 -1 1 -3 3 -3h36c28 0 51 23 51 52c0 28 -23 51 -51 51h-36c-2 0 -3 -1 -3 -3zM229 306v-30l22 7c6 1 11 6 11 12s-5 11 -11 11h-22zM483 246v60h14c17 0 29 -13 29 -30s-12 -30 -29 -30h-14z
M348 246c-16 0 -29 14 -29 30s13 29 29 29c17 0 30 -13 30 -29s-13 -30 -30 -30zM229 245h21c6 0 11 5 11 11c0 3 -1 6 -3 8l-29 -8v-11zM580 124l12 13c1 1 1 3 -1 4c-10 9 -21 14 -36 14c-29 0 -53 -24 -53 -55c0 -30 24 -54 53 -54c14 0 26 5 37 15c1 1 1 3 0 4l-12 12
c-1 1 -3 1 -4 1c-5 -5 -13 -8 -20 -8c-17 0 -29 14 -29 31s12 31 29 31c7 0 15 -3 20 -8c1 -1 3 -1 4 0zM217 132v-82c0 -1 1 -2 2 -2h18c1 0 3 1 3 2v82h21c1 0 3 1 3 3v16c0 1 -2 3 -3 3h-65c-2 0 -3 -2 -3 -3v-16c0 -2 1 -3 3 -3h21zM159 150v-100c0 -1 1 -3 3 -3h18
c1 0 2 2 2 3v100c0 2 -1 3 -2 3h-18c-2 0 -3 -1 -3 -3zM270 50v62c0 23 19 41 42 41s42 -18 42 -41v-62c0 -1 -1 -2 -3 -2h-18c-1 0 -3 1 -3 2v22l-36 -9v-13c0 -1 -1 -2 -3 -2h-18c-1 0 -3 1 -3 2zM458 151v-101c0 -1 1 -2 3 -2h18c1 0 2 1 2 2v101c0 1 -1 2 -2 2h-18
c-2 0 -3 -1 -3 -2zM330 93v18c0 10 -7 19 -18 19c-10 0 -18 -9 -18 -19v-26z" />
    <glyph glyph-name="Ucircumflex" unicode="&#xdb;" horiz-adv-x="722" 
d="M516 401v61c0 22 19 41 42 41s42 -19 42 -41v-61c0 -1 -2 -3 -3 -3h-18c-2 0 -3 2 -3 3v20l-36 -8v-12c0 -1 -2 -3 -3 -3h-18c-2 0 -3 2 -3 3zM350 455v-46c0 -1 -1 -2 -1 -3c0 0 -15 -9 -37 -9c-29 0 -53 23 -53 52c0 30 24 53 53 53c13 0 26 -5 36 -13c1 -2 2 -3 0 -4
l-11 -13c-1 -1 -3 -1 -4 0c-6 5 -12 7 -19 7c-16 0 -29 -13 -29 -30c0 -16 13 -29 29 -29c4 0 8 1 13 3v9l-10 -2c-2 0 -3 1 -3 3v15c0 2 1 3 3 3l30 7c1 0 3 -1 3 -3zM85 501h44c18 0 32 -14 32 -32c0 -13 -9 -24 -21 -29l21 -38c1 -2 0 -4 -3 -4h-20c-1 0 -2 1 -2 1
l-17 35l-14 -4v-29c0 -2 -1 -3 -2 -3h-18c-2 0 -3 1 -3 3v97c0 2 1 3 3 3zM184 501h60c2 0 3 -1 3 -3v-16c0 -1 -1 -3 -3 -3h-40v-18h17c2 0 4 -1 4 -3v-17c0 -2 -2 -3 -4 -3h-17v-18h40c2 0 3 -2 3 -3v-16c0 -2 -1 -3 -3 -3h-60c-2 0 -3 1 -3 3v97c0 2 1 3 3 3zM431 501h18
c2 0 3 -1 3 -3v-60c0 -23 -19 -41 -42 -41s-42 18 -42 41v60c0 2 2 3 3 3h18c2 0 3 -1 3 -3v-59c0 -11 8 -19 18 -19c11 0 19 8 19 19v59c0 2 1 3 2 3zM680 440l21 -38c1 -2 0 -4 -2 -4h-20c-1 0 -2 1 -2 1l-18 35l-13 -4v-29c0 -2 -1 -3 -3 -3h-17c-2 0 -3 1 -3 3v97
c0 2 1 3 3 3h43c18 0 33 -14 33 -32c0 -13 -9 -23 -22 -29zM611 370v-189c0 -2 -1 -3 -3 -3h-174c-2 0 -3 1 -3 3v143c0 2 1 3 3 3h17c2 0 3 -1 3 -3v-124h135v152h-115c-2 0 -3 1 -3 2v144c0 1 1 2 3 2h17c1 0 3 -1 3 -2v-124h114c2 0 3 -2 3 -4zM105 450l22 7
c6 1 11 6 11 12s-5 11 -11 11h-22v-30zM646 450l22 7c6 2 11 6 11 12s-5 11 -11 11h-22v-30zM576 443v18c0 10 -8 18 -18 18c-11 0 -18 -8 -18 -18v-27zM177 374h274c1 0 3 -2 3 -4v-15c0 -2 -2 -3 -3 -3h-256v-152h215c1 0 2 -1 2 -3v-127h36c2 0 3 -2 3 -3v-17
c0 -1 -1 -2 -3 -2h-56c-2 0 -3 1 -3 2v128h-213c-2 0 -3 1 -3 3v189c0 2 1 3 3 3c0 1 0 1 1 1zM362 329c-29 0 -52 -24 -52 -53c0 -30 23 -53 52 -53c30 0 53 23 53 53c0 29 -23 53 -53 53zM223 327h44c17 0 32 -14 32 -32c0 -8 -3 -15 -8 -20c4 -5 7 -12 7 -19
c0 -18 -15 -32 -32 -32h-43c-2 0 -3 1 -3 3v97c0 2 1 3 3 3zM474 324v-97c0 -1 1 -3 3 -3h36c28 0 51 23 51 52c0 28 -23 51 -51 51h-36c-2 0 -3 -1 -3 -3zM243 306v-30l22 7c6 1 11 6 11 12s-5 11 -11 11h-22zM497 246v60h14c17 0 29 -13 29 -30s-12 -30 -29 -30h-14z
M362 246c-16 0 -29 14 -29 30s13 29 29 29c17 0 30 -13 30 -29s-13 -30 -30 -30zM243 245h21c6 0 11 5 11 11c0 3 -1 6 -3 8l-29 -8v-11zM594 124l12 13c1 1 1 3 -1 4c-10 9 -21 14 -36 14c-29 0 -53 -24 -53 -55c0 -30 24 -54 53 -54c14 0 26 5 37 15c1 1 1 3 0 4l-12 12
c-1 1 -3 1 -4 1c-5 -5 -13 -8 -20 -8c-17 0 -29 14 -29 31s12 31 29 31c7 0 15 -3 20 -8c1 -1 3 -1 4 0zM231 132v-82c0 -1 1 -2 2 -2h18c1 0 3 1 3 2v82h21c1 0 3 1 3 3v16c0 1 -2 3 -3 3h-65c-2 0 -3 -2 -3 -3v-16c0 -2 1 -3 3 -3h21zM173 150v-100c0 -1 1 -3 3 -3h18
c1 0 2 2 2 3v100c0 2 -1 3 -2 3h-18c-2 0 -3 -1 -3 -3zM284 50v62c0 23 19 41 42 41s42 -18 42 -41v-62c0 -1 -1 -2 -3 -2h-18c-1 0 -3 1 -3 2v22l-36 -9v-13c0 -1 -1 -2 -3 -2h-18c-1 0 -3 1 -3 2zM472 151v-101c0 -1 1 -2 3 -2h18c1 0 2 1 2 2v101c0 1 -1 2 -2 2h-18
c-2 0 -3 -1 -3 -2zM344 93v18c0 10 -7 19 -18 19c-10 0 -18 -9 -18 -19v-26z" />
    <glyph glyph-name="Udieresis" unicode="&#xdc;" horiz-adv-x="695" 
d="M489 401v61c0 22 19 41 42 41s42 -19 42 -41v-61c0 -1 -2 -3 -3 -3h-18c-2 0 -3 2 -3 3v20l-36 -8v-12c0 -1 -2 -3 -3 -3h-18c-2 0 -3 2 -3 3zM323 455v-46c0 -1 -1 -2 -1 -3c0 0 -15 -9 -37 -9c-29 0 -53 23 -53 52c0 30 24 53 53 53c13 0 26 -5 36 -13c1 -2 2 -3 0 -4
l-11 -13c-1 -1 -3 -1 -4 0c-6 5 -12 7 -19 7c-16 0 -29 -13 -29 -30c0 -16 13 -29 29 -29c4 0 8 1 13 3v9l-10 -2c-2 0 -3 1 -3 3v15c0 2 1 3 3 3l30 7c1 0 3 -1 3 -3zM58 501h44c18 0 32 -14 32 -32c0 -13 -9 -24 -21 -29l21 -38c1 -2 0 -4 -3 -4h-20c-1 0 -2 1 -2 1
l-17 35l-14 -4v-29c0 -2 -1 -3 -2 -3h-18c-2 0 -3 1 -3 3v97c0 2 1 3 3 3zM157 501h60c2 0 3 -1 3 -3v-16c0 -1 -1 -3 -3 -3h-40v-18h17c2 0 4 -1 4 -3v-17c0 -2 -2 -3 -4 -3h-17v-18h40c2 0 3 -2 3 -3v-16c0 -2 -1 -3 -3 -3h-60c-2 0 -3 1 -3 3v97c0 2 1 3 3 3zM404 501h18
c2 0 3 -1 3 -3v-60c0 -23 -19 -41 -42 -41s-42 18 -42 41v60c0 2 2 3 3 3h18c2 0 3 -1 3 -3v-59c0 -11 8 -19 18 -19c11 0 19 8 19 19v59c0 2 1 3 2 3zM653 440l21 -38c1 -2 0 -4 -2 -4h-20c-1 0 -2 1 -2 1l-18 35l-13 -4v-29c0 -2 -1 -3 -3 -3h-17c-2 0 -3 1 -3 3v97
c0 2 1 3 3 3h43c18 0 33 -14 33 -32c0 -13 -9 -23 -22 -29zM584 370v-189c0 -2 -1 -3 -3 -3h-174c-2 0 -3 1 -3 3v143c0 2 1 3 3 3h17c2 0 3 -1 3 -3v-124h135v152h-115c-2 0 -3 1 -3 2v144c0 1 1 2 3 2h17c1 0 3 -1 3 -2v-124h114c2 0 3 -2 3 -4zM78 450l22 7
c6 1 11 6 11 12s-5 11 -11 11h-22v-30zM619 450l22 7c6 2 11 6 11 12s-5 11 -11 11h-22v-30zM549 443v18c0 10 -8 18 -18 18c-11 0 -18 -8 -18 -18v-27zM150 374h274c1 0 3 -2 3 -4v-15c0 -2 -2 -3 -3 -3h-256v-152h215c1 0 2 -1 2 -3v-127h36c2 0 3 -2 3 -3v-17
c0 -1 -1 -2 -3 -2h-56c-2 0 -3 1 -3 2v128h-213c-2 0 -3 1 -3 3v189c0 2 1 3 3 3c0 1 0 1 1 1zM335 329c-29 0 -52 -24 -52 -53c0 -30 23 -53 52 -53c30 0 53 23 53 53c0 29 -23 53 -53 53zM196 327h44c17 0 32 -14 32 -32c0 -8 -3 -15 -8 -20c4 -5 7 -12 7 -19
c0 -18 -15 -32 -32 -32h-43c-2 0 -3 1 -3 3v97c0 2 1 3 3 3zM447 324v-97c0 -1 1 -3 3 -3h36c28 0 51 23 51 52c0 28 -23 51 -51 51h-36c-2 0 -3 -1 -3 -3zM216 306v-30l22 7c6 1 11 6 11 12s-5 11 -11 11h-22zM470 246v60h14c17 0 29 -13 29 -30s-12 -30 -29 -30h-14z
M335 246c-16 0 -29 14 -29 30s13 29 29 29c17 0 30 -13 30 -29s-13 -30 -30 -30zM216 245h21c6 0 11 5 11 11c0 3 -1 6 -3 8l-29 -8v-11zM567 124l12 13c1 1 1 3 -1 4c-10 9 -21 14 -36 14c-29 0 -53 -24 -53 -55c0 -30 24 -54 53 -54c14 0 26 5 37 15c1 1 1 3 0 4l-12 12
c-1 1 -3 1 -4 1c-5 -5 -13 -8 -20 -8c-17 0 -29 14 -29 31s12 31 29 31c7 0 15 -3 20 -8c1 -1 3 -1 4 0zM204 132v-82c0 -1 1 -2 2 -2h18c1 0 3 1 3 2v82h21c1 0 3 1 3 3v16c0 1 -2 3 -3 3h-65c-2 0 -3 -2 -3 -3v-16c0 -2 1 -3 3 -3h21zM146 150v-100c0 -1 1 -3 3 -3h18
c1 0 2 2 2 3v100c0 2 -1 3 -2 3h-18c-2 0 -3 -1 -3 -3zM257 50v62c0 23 19 41 42 41s42 -18 42 -41v-62c0 -1 -1 -2 -3 -2h-18c-1 0 -3 1 -3 2v22l-36 -9v-13c0 -1 -1 -2 -3 -2h-18c-1 0 -3 1 -3 2zM445 151v-101c0 -1 1 -2 3 -2h18c1 0 2 1 2 2v101c0 1 -1 2 -2 2h-18
c-2 0 -3 -1 -3 -2zM317 93v18c0 10 -7 19 -18 19c-10 0 -18 -9 -18 -19v-26z" />
    <glyph glyph-name="Ugrave" unicode="&#xd9;" horiz-adv-x="734" 
d="M528 401v61c0 22 19 41 42 41s42 -19 42 -41v-61c0 -1 -2 -3 -3 -3h-18c-2 0 -3 2 -3 3v20l-36 -8v-12c0 -1 -2 -3 -3 -3h-18c-2 0 -3 2 -3 3zM362 455v-46c0 -1 -1 -2 -1 -3c0 0 -15 -9 -37 -9c-29 0 -53 23 -53 52c0 30 24 53 53 53c13 0 26 -5 36 -13c1 -2 2 -3 0 -4
l-11 -13c-1 -1 -3 -1 -4 0c-6 5 -12 7 -19 7c-16 0 -29 -13 -29 -30c0 -16 13 -29 29 -29c4 0 8 1 13 3v9l-10 -2c-2 0 -3 1 -3 3v15c0 2 1 3 3 3l30 7c1 0 3 -1 3 -3zM97 501h44c18 0 32 -14 32 -32c0 -13 -9 -24 -21 -29l21 -38c1 -2 0 -4 -3 -4h-20c-1 0 -2 1 -2 1
l-17 35l-14 -4v-29c0 -2 -1 -3 -2 -3h-18c-2 0 -3 1 -3 3v97c0 2 1 3 3 3zM196 501h60c2 0 3 -1 3 -3v-16c0 -1 -1 -3 -3 -3h-40v-18h17c2 0 4 -1 4 -3v-17c0 -2 -2 -3 -4 -3h-17v-18h40c2 0 3 -2 3 -3v-16c0 -2 -1 -3 -3 -3h-60c-2 0 -3 1 -3 3v97c0 2 1 3 3 3zM443 501h18
c2 0 3 -1 3 -3v-60c0 -23 -19 -41 -42 -41s-42 18 -42 41v60c0 2 2 3 3 3h18c2 0 3 -1 3 -3v-59c0 -11 8 -19 18 -19c11 0 19 8 19 19v59c0 2 1 3 2 3zM692 440l21 -38c1 -2 0 -4 -2 -4h-20c-1 0 -2 1 -2 1l-18 35l-13 -4v-29c0 -2 -1 -3 -3 -3h-17c-2 0 -3 1 -3 3v97
c0 2 1 3 3 3h43c18 0 33 -14 33 -32c0 -13 -9 -23 -22 -29zM623 370v-189c0 -2 -1 -3 -3 -3h-174c-2 0 -3 1 -3 3v143c0 2 1 3 3 3h17c2 0 3 -1 3 -3v-124h135v152h-115c-2 0 -3 1 -3 2v144c0 1 1 2 3 2h17c1 0 3 -1 3 -2v-124h114c2 0 3 -2 3 -4zM117 450l22 7
c6 1 11 6 11 12s-5 11 -11 11h-22v-30zM658 450l22 7c6 2 11 6 11 12s-5 11 -11 11h-22v-30zM588 443v18c0 10 -8 18 -18 18c-11 0 -18 -8 -18 -18v-27zM189 374h274c1 0 3 -2 3 -4v-15c0 -2 -2 -3 -3 -3h-256v-152h215c1 0 2 -1 2 -3v-127h36c2 0 3 -2 3 -3v-17
c0 -1 -1 -2 -3 -2h-56c-2 0 -3 1 -3 2v128h-213c-2 0 -3 1 -3 3v189c0 2 1 3 3 3c0 1 0 1 1 1zM374 329c-29 0 -52 -24 -52 -53c0 -30 23 -53 52 -53c30 0 53 23 53 53c0 29 -23 53 -53 53zM235 327h44c17 0 32 -14 32 -32c0 -8 -3 -15 -8 -20c4 -5 7 -12 7 -19
c0 -18 -15 -32 -32 -32h-43c-2 0 -3 1 -3 3v97c0 2 1 3 3 3zM486 324v-97c0 -1 1 -3 3 -3h36c28 0 51 23 51 52c0 28 -23 51 -51 51h-36c-2 0 -3 -1 -3 -3zM255 306v-30l22 7c6 1 11 6 11 12s-5 11 -11 11h-22zM509 246v60h14c17 0 29 -13 29 -30s-12 -30 -29 -30h-14z
M374 246c-16 0 -29 14 -29 30s13 29 29 29c17 0 30 -13 30 -29s-13 -30 -30 -30zM255 245h21c6 0 11 5 11 11c0 3 -1 6 -3 8l-29 -8v-11zM606 124l12 13c1 1 1 3 -1 4c-10 9 -21 14 -36 14c-29 0 -53 -24 -53 -55c0 -30 24 -54 53 -54c14 0 26 5 37 15c1 1 1 3 0 4l-12 12
c-1 1 -3 1 -4 1c-5 -5 -13 -8 -20 -8c-17 0 -29 14 -29 31s12 31 29 31c7 0 15 -3 20 -8c1 -1 3 -1 4 0zM243 132v-82c0 -1 1 -2 2 -2h18c1 0 3 1 3 2v82h21c1 0 3 1 3 3v16c0 1 -2 3 -3 3h-65c-2 0 -3 -2 -3 -3v-16c0 -2 1 -3 3 -3h21zM185 150v-100c0 -1 1 -3 3 -3h18
c1 0 2 2 2 3v100c0 2 -1 3 -2 3h-18c-2 0 -3 -1 -3 -3zM296 50v62c0 23 19 41 42 41s42 -18 42 -41v-62c0 -1 -1 -2 -3 -2h-18c-1 0 -3 1 -3 2v22l-36 -9v-13c0 -1 -1 -2 -3 -2h-18c-1 0 -3 1 -3 2zM484 151v-101c0 -1 1 -2 3 -2h18c1 0 2 1 2 2v101c0 1 -1 2 -2 2h-18
c-2 0 -3 -1 -3 -2zM356 93v18c0 10 -7 19 -18 19c-10 0 -18 -9 -18 -19v-26z" />
    <glyph glyph-name="V" unicode="V" horiz-adv-x="716" 
d="M482 690h223c8 0 13 -7 10 -14l-229 -662c-2 -7 -10 -14 -18 -14h-220c-8 0 -16 7 -18 14l-229 662c-3 7 2 14 10 14h223c9 0 17 -7 19 -14l105 -411l105 411c2 7 10 14 19 14z" />
    <glyph glyph-name="W" unicode="W" horiz-adv-x="966" 
d="M739 690h224c10 0 15 -8 12 -17l-182 -657c-3 -9 -13 -16 -22 -16h-174c-9 0 -21 7 -23 16l-91 352l-91 -352c-2 -9 -14 -16 -23 -16h-174c-9 0 -19 7 -22 16l-182 657c-3 9 2 17 12 17h224c10 0 21 -8 23 -17l57 -299l77 299c3 10 15 17 27 17h144c12 0 24 -7 27 -17
l77 -299l57 299c2 9 13 17 23 17z" />
    <glyph glyph-name="X" unicode="X" horiz-adv-x="654" 
d="M473 345l179 -329c5 -9 -1 -16 -11 -16h-209c-9 0 -19 8 -23 16l-82 167l-82 -167c-4 -8 -14 -16 -23 -16h-209c-10 0 -16 7 -11 16l179 329l-179 329c-5 9 1 16 11 16h208c9 0 19 -8 23 -16l83 -177l83 177c4 8 14 16 23 16h208c10 0 16 -7 11 -16z" />
    <glyph glyph-name="Y" unicode="Y" horiz-adv-x="612" 
d="M411 690h214c9 0 16 -7 11 -16l-227 -363v-297c0 -7 -7 -14 -15 -14h-176c-8 0 -15 7 -15 14v297l-227 363c-5 9 2 16 11 16h214c10 0 19 -7 23 -16l82 -161l82 161c4 9 13 16 23 16z" />
    <glyph glyph-name="Yacute" unicode="&#xdd;" horiz-adv-x="722" 
d="M516 401v61c0 22 19 41 42 41s42 -19 42 -41v-61c0 -1 -2 -3 -3 -3h-18c-2 0 -3 2 -3 3v20l-36 -8v-12c0 -1 -2 -3 -3 -3h-18c-2 0 -3 2 -3 3zM350 455v-46c0 -1 -1 -2 -1 -3c0 0 -15 -9 -37 -9c-29 0 -53 23 -53 52c0 30 24 53 53 53c13 0 26 -5 36 -13c1 -2 2 -3 0 -4
l-11 -13c-1 -1 -3 -1 -4 0c-6 5 -12 7 -19 7c-16 0 -29 -13 -29 -30c0 -16 13 -29 29 -29c4 0 8 1 13 3v9l-10 -2c-2 0 -3 1 -3 3v15c0 2 1 3 3 3l30 7c1 0 3 -1 3 -3zM85 501h44c18 0 32 -14 32 -32c0 -13 -9 -24 -21 -29l21 -38c1 -2 0 -4 -3 -4h-20c-1 0 -2 1 -2 1
l-17 35l-14 -4v-29c0 -2 -1 -3 -2 -3h-18c-2 0 -3 1 -3 3v97c0 2 1 3 3 3zM184 501h60c2 0 3 -1 3 -3v-16c0 -1 -1 -3 -3 -3h-40v-18h17c2 0 4 -1 4 -3v-17c0 -2 -2 -3 -4 -3h-17v-18h40c2 0 3 -2 3 -3v-16c0 -2 -1 -3 -3 -3h-60c-2 0 -3 1 -3 3v97c0 2 1 3 3 3zM431 501h18
c2 0 3 -1 3 -3v-60c0 -23 -19 -41 -42 -41s-42 18 -42 41v60c0 2 2 3 3 3h18c2 0 3 -1 3 -3v-59c0 -11 8 -19 18 -19c11 0 19 8 19 19v59c0 2 1 3 2 3zM680 440l21 -38c1 -2 0 -4 -2 -4h-20c-1 0 -2 1 -2 1l-18 35l-13 -4v-29c0 -2 -1 -3 -3 -3h-17c-2 0 -3 1 -3 3v97
c0 2 1 3 3 3h43c18 0 33 -14 33 -32c0 -13 -9 -23 -22 -29zM611 370v-189c0 -2 -1 -3 -3 -3h-174c-2 0 -3 1 -3 3v143c0 2 1 3 3 3h17c2 0 3 -1 3 -3v-124h135v152h-115c-2 0 -3 1 -3 2v144c0 1 1 2 3 2h17c1 0 3 -1 3 -2v-124h114c2 0 3 -2 3 -4zM105 450l22 7
c6 1 11 6 11 12s-5 11 -11 11h-22v-30zM646 450l22 7c6 2 11 6 11 12s-5 11 -11 11h-22v-30zM576 443v18c0 10 -8 18 -18 18c-11 0 -18 -8 -18 -18v-27zM177 374h274c1 0 3 -2 3 -4v-15c0 -2 -2 -3 -3 -3h-256v-152h215c1 0 2 -1 2 -3v-127h36c2 0 3 -2 3 -3v-17
c0 -1 -1 -2 -3 -2h-56c-2 0 -3 1 -3 2v128h-213c-2 0 -3 1 -3 3v189c0 2 1 3 3 3c0 1 0 1 1 1zM362 329c-29 0 -52 -24 -52 -53c0 -30 23 -53 52 -53c30 0 53 23 53 53c0 29 -23 53 -53 53zM223 327h44c17 0 32 -14 32 -32c0 -8 -3 -15 -8 -20c4 -5 7 -12 7 -19
c0 -18 -15 -32 -32 -32h-43c-2 0 -3 1 -3 3v97c0 2 1 3 3 3zM474 324v-97c0 -1 1 -3 3 -3h36c28 0 51 23 51 52c0 28 -23 51 -51 51h-36c-2 0 -3 -1 -3 -3zM243 306v-30l22 7c6 1 11 6 11 12s-5 11 -11 11h-22zM497 246v60h14c17 0 29 -13 29 -30s-12 -30 -29 -30h-14z
M362 246c-16 0 -29 14 -29 30s13 29 29 29c17 0 30 -13 30 -29s-13 -30 -30 -30zM243 245h21c6 0 11 5 11 11c0 3 -1 6 -3 8l-29 -8v-11zM594 124l12 13c1 1 1 3 -1 4c-10 9 -21 14 -36 14c-29 0 -53 -24 -53 -55c0 -30 24 -54 53 -54c14 0 26 5 37 15c1 1 1 3 0 4l-12 12
c-1 1 -3 1 -4 1c-5 -5 -13 -8 -20 -8c-17 0 -29 14 -29 31s12 31 29 31c7 0 15 -3 20 -8c1 -1 3 -1 4 0zM231 132v-82c0 -1 1 -2 2 -2h18c1 0 3 1 3 2v82h21c1 0 3 1 3 3v16c0 1 -2 3 -3 3h-65c-2 0 -3 -2 -3 -3v-16c0 -2 1 -3 3 -3h21zM173 150v-100c0 -1 1 -3 3 -3h18
c1 0 2 2 2 3v100c0 2 -1 3 -2 3h-18c-2 0 -3 -1 -3 -3zM284 50v62c0 23 19 41 42 41s42 -18 42 -41v-62c0 -1 -1 -2 -3 -2h-18c-1 0 -3 1 -3 2v22l-36 -9v-13c0 -1 -1 -2 -3 -2h-18c-1 0 -3 1 -3 2zM472 151v-101c0 -1 1 -2 3 -2h18c1 0 2 1 2 2v101c0 1 -1 2 -2 2h-18
c-2 0 -3 -1 -3 -2zM344 93v18c0 10 -7 19 -18 19c-10 0 -18 -9 -18 -19v-26z" />
    <glyph glyph-name="Ydieresis" unicode="&#x178;" horiz-adv-x="709" 
d="M503 401v61c0 22 19 41 42 41s42 -19 42 -41v-61c0 -1 -2 -3 -3 -3h-18c-2 0 -3 2 -3 3v20l-36 -8v-12c0 -1 -2 -3 -3 -3h-18c-2 0 -3 2 -3 3zM337 455v-46c0 -1 -1 -2 -1 -3c0 0 -15 -9 -37 -9c-29 0 -53 23 -53 52c0 30 24 53 53 53c13 0 26 -5 36 -13c1 -2 2 -3 0 -4
l-11 -13c-1 -1 -3 -1 -4 0c-6 5 -12 7 -19 7c-16 0 -29 -13 -29 -30c0 -16 13 -29 29 -29c4 0 8 1 13 3v9l-10 -2c-2 0 -3 1 -3 3v15c0 2 1 3 3 3l30 7c1 0 3 -1 3 -3zM72 501h44c18 0 32 -14 32 -32c0 -13 -9 -24 -21 -29l21 -38c1 -2 0 -4 -3 -4h-20c-1 0 -2 1 -2 1
l-17 35l-14 -4v-29c0 -2 -1 -3 -2 -3h-18c-2 0 -3 1 -3 3v97c0 2 1 3 3 3zM171 501h60c2 0 3 -1 3 -3v-16c0 -1 -1 -3 -3 -3h-40v-18h17c2 0 4 -1 4 -3v-17c0 -2 -2 -3 -4 -3h-17v-18h40c2 0 3 -2 3 -3v-16c0 -2 -1 -3 -3 -3h-60c-2 0 -3 1 -3 3v97c0 2 1 3 3 3zM418 501h18
c2 0 3 -1 3 -3v-60c0 -23 -19 -41 -42 -41s-42 18 -42 41v60c0 2 2 3 3 3h18c2 0 3 -1 3 -3v-59c0 -11 8 -19 18 -19c11 0 19 8 19 19v59c0 2 1 3 2 3zM667 440l21 -38c1 -2 0 -4 -2 -4h-20c-1 0 -2 1 -2 1l-18 35l-13 -4v-29c0 -2 -1 -3 -3 -3h-17c-2 0 -3 1 -3 3v97
c0 2 1 3 3 3h43c18 0 33 -14 33 -32c0 -13 -9 -23 -22 -29zM598 370v-189c0 -2 -1 -3 -3 -3h-174c-2 0 -3 1 -3 3v143c0 2 1 3 3 3h17c2 0 3 -1 3 -3v-124h135v152h-115c-2 0 -3 1 -3 2v144c0 1 1 2 3 2h17c1 0 3 -1 3 -2v-124h114c2 0 3 -2 3 -4zM92 450l22 7
c6 1 11 6 11 12s-5 11 -11 11h-22v-30zM633 450l22 7c6 2 11 6 11 12s-5 11 -11 11h-22v-30zM563 443v18c0 10 -8 18 -18 18c-11 0 -18 -8 -18 -18v-27zM164 374h274c1 0 3 -2 3 -4v-15c0 -2 -2 -3 -3 -3h-256v-152h215c1 0 2 -1 2 -3v-127h36c2 0 3 -2 3 -3v-17
c0 -1 -1 -2 -3 -2h-56c-2 0 -3 1 -3 2v128h-213c-2 0 -3 1 -3 3v189c0 2 1 3 3 3c0 1 0 1 1 1zM349 329c-29 0 -52 -24 -52 -53c0 -30 23 -53 52 -53c30 0 53 23 53 53c0 29 -23 53 -53 53zM210 327h44c17 0 32 -14 32 -32c0 -8 -3 -15 -8 -20c4 -5 7 -12 7 -19
c0 -18 -15 -32 -32 -32h-43c-2 0 -3 1 -3 3v97c0 2 1 3 3 3zM461 324v-97c0 -1 1 -3 3 -3h36c28 0 51 23 51 52c0 28 -23 51 -51 51h-36c-2 0 -3 -1 -3 -3zM230 306v-30l22 7c6 1 11 6 11 12s-5 11 -11 11h-22zM484 246v60h14c17 0 29 -13 29 -30s-12 -30 -29 -30h-14z
M349 246c-16 0 -29 14 -29 30s13 29 29 29c17 0 30 -13 30 -29s-13 -30 -30 -30zM230 245h21c6 0 11 5 11 11c0 3 -1 6 -3 8l-29 -8v-11zM581 124l12 13c1 1 1 3 -1 4c-10 9 -21 14 -36 14c-29 0 -53 -24 -53 -55c0 -30 24 -54 53 -54c14 0 26 5 37 15c1 1 1 3 0 4l-12 12
c-1 1 -3 1 -4 1c-5 -5 -13 -8 -20 -8c-17 0 -29 14 -29 31s12 31 29 31c7 0 15 -3 20 -8c1 -1 3 -1 4 0zM218 132v-82c0 -1 1 -2 2 -2h18c1 0 3 1 3 2v82h21c1 0 3 1 3 3v16c0 1 -2 3 -3 3h-65c-2 0 -3 -2 -3 -3v-16c0 -2 1 -3 3 -3h21zM160 150v-100c0 -1 1 -3 3 -3h18
c1 0 2 2 2 3v100c0 2 -1 3 -2 3h-18c-2 0 -3 -1 -3 -3zM271 50v62c0 23 19 41 42 41s42 -18 42 -41v-62c0 -1 -1 -2 -3 -2h-18c-1 0 -3 1 -3 2v22l-36 -9v-13c0 -1 -1 -2 -3 -2h-18c-1 0 -3 1 -3 2zM459 151v-101c0 -1 1 -2 3 -2h18c1 0 2 1 2 2v101c0 1 -1 2 -2 2h-18
c-2 0 -3 -1 -3 -2zM331 93v18c0 10 -7 19 -18 19c-10 0 -18 -9 -18 -19v-26z" />
    <glyph glyph-name="Z" unicode="Z" horiz-adv-x="592" 
d="M330 180h227c9 0 15 -6 15 -14v-152c0 -7 -6 -14 -15 -14h-523c-8 0 -14 6 -14 14c0 3 4 13 10 25l227 471h-187c-7 0 -14 7 -14 15v150c0 8 7 15 14 15h480c9 0 15 -6 15 -15c0 -4 -4 -15 -10 -27z" />
    <glyph glyph-name="a" unicode="a" horiz-adv-x="582" 
d="M129 365l-58 123c-3 7 -1 14 5 19c54 34 141 57 217 57c152 0 253 -97 253 -243v-306c0 -9 -6 -15 -15 -15h-123c-9 0 -17 6 -19 15l-7 30c-33 -38 -91 -60 -160 -60c-122 0 -203 70 -202 174s74 174 183 174c53 0 104 -20 137 -51v39c0 43 -31 71 -77 71
c-39 0 -86 -13 -119 -32c-6 -3 -12 -1 -15 5zM292 195c-29 0 -49 -14 -49 -36s20 -36 49 -36s49 14 49 36s-20 36 -49 36z" />
    <glyph glyph-name="aacute" unicode="&#xe1;" horiz-adv-x="723" 
d="M517 401v61c0 22 19 41 42 41s42 -19 42 -41v-61c0 -1 -2 -3 -3 -3h-18c-2 0 -3 2 -3 3v20l-36 -8v-12c0 -1 -2 -3 -3 -3h-18c-2 0 -3 2 -3 3zM351 455v-46c0 -1 -1 -2 -1 -3c0 0 -15 -9 -37 -9c-29 0 -53 23 -53 52c0 30 24 53 53 53c13 0 26 -5 36 -13c1 -2 2 -3 0 -4
l-11 -13c-1 -1 -3 -1 -4 0c-6 5 -12 7 -19 7c-16 0 -29 -13 -29 -30c0 -16 13 -29 29 -29c4 0 8 1 13 3v9l-10 -2c-2 0 -3 1 -3 3v15c0 2 1 3 3 3l30 7c1 0 3 -1 3 -3zM86 501h44c18 0 32 -14 32 -32c0 -13 -9 -24 -21 -29l21 -38c1 -2 0 -4 -3 -4h-20c-1 0 -2 1 -2 1
l-17 35l-14 -4v-29c0 -2 -1 -3 -2 -3h-18c-2 0 -3 1 -3 3v97c0 2 1 3 3 3zM185 501h60c2 0 3 -1 3 -3v-16c0 -1 -1 -3 -3 -3h-40v-18h17c2 0 4 -1 4 -3v-17c0 -2 -2 -3 -4 -3h-17v-18h40c2 0 3 -2 3 -3v-16c0 -2 -1 -3 -3 -3h-60c-2 0 -3 1 -3 3v97c0 2 1 3 3 3zM432 501h18
c2 0 3 -1 3 -3v-60c0 -23 -19 -41 -42 -41s-42 18 -42 41v60c0 2 2 3 3 3h18c2 0 3 -1 3 -3v-59c0 -11 8 -19 18 -19c11 0 19 8 19 19v59c0 2 1 3 2 3zM681 440l21 -38c1 -2 0 -4 -2 -4h-20c-1 0 -2 1 -2 1l-18 35l-13 -4v-29c0 -2 -1 -3 -3 -3h-17c-2 0 -3 1 -3 3v97
c0 2 1 3 3 3h43c18 0 33 -14 33 -32c0 -13 -9 -23 -22 -29zM612 370v-189c0 -2 -1 -3 -3 -3h-174c-2 0 -3 1 -3 3v143c0 2 1 3 3 3h17c2 0 3 -1 3 -3v-124h135v152h-115c-2 0 -3 1 -3 2v144c0 1 1 2 3 2h17c1 0 3 -1 3 -2v-124h114c2 0 3 -2 3 -4zM106 450l22 7
c6 1 11 6 11 12s-5 11 -11 11h-22v-30zM647 450l22 7c6 2 11 6 11 12s-5 11 -11 11h-22v-30zM577 443v18c0 10 -8 18 -18 18c-11 0 -18 -8 -18 -18v-27zM178 374h274c1 0 3 -2 3 -4v-15c0 -2 -2 -3 -3 -3h-256v-152h215c1 0 2 -1 2 -3v-127h36c2 0 3 -2 3 -3v-17
c0 -1 -1 -2 -3 -2h-56c-2 0 -3 1 -3 2v128h-213c-2 0 -3 1 -3 3v189c0 2 1 3 3 3c0 1 0 1 1 1zM363 329c-29 0 -52 -24 -52 -53c0 -30 23 -53 52 -53c30 0 53 23 53 53c0 29 -23 53 -53 53zM224 327h44c17 0 32 -14 32 -32c0 -8 -3 -15 -8 -20c4 -5 7 -12 7 -19
c0 -18 -15 -32 -32 -32h-43c-2 0 -3 1 -3 3v97c0 2 1 3 3 3zM475 324v-97c0 -1 1 -3 3 -3h36c28 0 51 23 51 52c0 28 -23 51 -51 51h-36c-2 0 -3 -1 -3 -3zM244 306v-30l22 7c6 1 11 6 11 12s-5 11 -11 11h-22zM498 246v60h14c17 0 29 -13 29 -30s-12 -30 -29 -30h-14z
M363 246c-16 0 -29 14 -29 30s13 29 29 29c17 0 30 -13 30 -29s-13 -30 -30 -30zM244 245h21c6 0 11 5 11 11c0 3 -1 6 -3 8l-29 -8v-11zM595 124l12 13c1 1 1 3 -1 4c-10 9 -21 14 -36 14c-29 0 -53 -24 -53 -55c0 -30 24 -54 53 -54c14 0 26 5 37 15c1 1 1 3 0 4l-12 12
c-1 1 -3 1 -4 1c-5 -5 -13 -8 -20 -8c-17 0 -29 14 -29 31s12 31 29 31c7 0 15 -3 20 -8c1 -1 3 -1 4 0zM232 132v-82c0 -1 1 -2 2 -2h18c1 0 3 1 3 2v82h21c1 0 3 1 3 3v16c0 1 -2 3 -3 3h-65c-2 0 -3 -2 -3 -3v-16c0 -2 1 -3 3 -3h21zM174 150v-100c0 -1 1 -3 3 -3h18
c1 0 2 2 2 3v100c0 2 -1 3 -2 3h-18c-2 0 -3 -1 -3 -3zM285 50v62c0 23 19 41 42 41s42 -18 42 -41v-62c0 -1 -1 -2 -3 -2h-18c-1 0 -3 1 -3 2v22l-36 -9v-13c0 -1 -1 -2 -3 -2h-18c-1 0 -3 1 -3 2zM473 151v-101c0 -1 1 -2 3 -2h18c1 0 2 1 2 2v101c0 1 -1 2 -2 2h-18
c-2 0 -3 -1 -3 -2zM345 93v18c0 10 -7 19 -18 19c-10 0 -18 -9 -18 -19v-26z" />
    <glyph glyph-name="acircumflex" unicode="&#xe2;" 
d="M454 401v61c0 22 19 41 42 41s42 -19 42 -41v-61c0 -1 -2 -3 -3 -3h-18c-2 0 -3 2 -3 3v20l-36 -8v-12c0 -1 -2 -3 -3 -3h-18c-2 0 -3 2 -3 3zM288 455v-46c0 -1 -1 -2 -1 -3c0 0 -15 -9 -37 -9c-29 0 -53 23 -53 52c0 30 24 53 53 53c13 0 26 -5 36 -13c1 -2 2 -3 0 -4
l-11 -13c-1 -1 -3 -1 -4 0c-6 5 -12 7 -19 7c-16 0 -29 -13 -29 -30c0 -16 13 -29 29 -29c4 0 8 1 13 3v9l-10 -2c-2 0 -3 1 -3 3v15c0 2 1 3 3 3l30 7c1 0 3 -1 3 -3zM23 501h44c18 0 32 -14 32 -32c0 -13 -9 -24 -21 -29l21 -38c1 -2 0 -4 -3 -4h-20c-1 0 -2 1 -2 1
l-17 35l-14 -4v-29c0 -2 -1 -3 -2 -3h-18c-2 0 -3 1 -3 3v97c0 2 1 3 3 3zM122 501h60c2 0 3 -1 3 -3v-16c0 -1 -1 -3 -3 -3h-40v-18h17c2 0 4 -1 4 -3v-17c0 -2 -2 -3 -4 -3h-17v-18h40c2 0 3 -2 3 -3v-16c0 -2 -1 -3 -3 -3h-60c-2 0 -3 1 -3 3v97c0 2 1 3 3 3zM369 501h18
c2 0 3 -1 3 -3v-60c0 -23 -19 -41 -42 -41s-42 18 -42 41v60c0 2 2 3 3 3h18c2 0 3 -1 3 -3v-59c0 -11 8 -19 18 -19c11 0 19 8 19 19v59c0 2 1 3 2 3zM618 440l21 -38c1 -2 0 -4 -2 -4h-20c-1 0 -2 1 -2 1l-18 35l-13 -4v-29c0 -2 -1 -3 -3 -3h-17c-2 0 -3 1 -3 3v97
c0 2 1 3 3 3h43c18 0 33 -14 33 -32c0 -13 -9 -23 -22 -29zM549 370v-189c0 -2 -1 -3 -3 -3h-174c-2 0 -3 1 -3 3v143c0 2 1 3 3 3h17c2 0 3 -1 3 -3v-124h135v152h-115c-2 0 -3 1 -3 2v144c0 1 1 2 3 2h17c1 0 3 -1 3 -2v-124h114c2 0 3 -2 3 -4zM43 450l22 7
c6 1 11 6 11 12s-5 11 -11 11h-22v-30zM584 450l22 7c6 2 11 6 11 12s-5 11 -11 11h-22v-30zM514 443v18c0 10 -8 18 -18 18c-11 0 -18 -8 -18 -18v-27zM115 374h274c1 0 3 -2 3 -4v-15c0 -2 -2 -3 -3 -3h-256v-152h215c1 0 2 -1 2 -3v-127h36c2 0 3 -2 3 -3v-17
c0 -1 -1 -2 -3 -2h-56c-2 0 -3 1 -3 2v128h-213c-2 0 -3 1 -3 3v189c0 2 1 3 3 3c0 1 0 1 1 1zM300 329c-29 0 -52 -24 -52 -53c0 -30 23 -53 52 -53c30 0 53 23 53 53c0 29 -23 53 -53 53zM161 327h44c17 0 32 -14 32 -32c0 -8 -3 -15 -8 -20c4 -5 7 -12 7 -19
c0 -18 -15 -32 -32 -32h-43c-2 0 -3 1 -3 3v97c0 2 1 3 3 3zM412 324v-97c0 -1 1 -3 3 -3h36c28 0 51 23 51 52c0 28 -23 51 -51 51h-36c-2 0 -3 -1 -3 -3zM181 306v-30l22 7c6 1 11 6 11 12s-5 11 -11 11h-22zM435 246v60h14c17 0 29 -13 29 -30s-12 -30 -29 -30h-14z
M300 246c-16 0 -29 14 -29 30s13 29 29 29c17 0 30 -13 30 -29s-13 -30 -30 -30zM181 245h21c6 0 11 5 11 11c0 3 -1 6 -3 8l-29 -8v-11zM532 124l12 13c1 1 1 3 -1 4c-10 9 -21 14 -36 14c-29 0 -53 -24 -53 -55c0 -30 24 -54 53 -54c14 0 26 5 37 15c1 1 1 3 0 4l-12 12
c-1 1 -3 1 -4 1c-5 -5 -13 -8 -20 -8c-17 0 -29 14 -29 31s12 31 29 31c7 0 15 -3 20 -8c1 -1 3 -1 4 0zM169 132v-82c0 -1 1 -2 2 -2h18c1 0 3 1 3 2v82h21c1 0 3 1 3 3v16c0 1 -2 3 -3 3h-65c-2 0 -3 -2 -3 -3v-16c0 -2 1 -3 3 -3h21zM111 150v-100c0 -1 1 -3 3 -3h18
c1 0 2 2 2 3v100c0 2 -1 3 -2 3h-18c-2 0 -3 -1 -3 -3zM222 50v62c0 23 19 41 42 41s42 -18 42 -41v-62c0 -1 -1 -2 -3 -2h-18c-1 0 -3 1 -3 2v22l-36 -9v-13c0 -1 -1 -2 -3 -2h-18c-1 0 -3 1 -3 2zM410 151v-101c0 -1 1 -2 3 -2h18c1 0 2 1 2 2v101c0 1 -1 2 -2 2h-18
c-2 0 -3 -1 -3 -2zM282 93v18c0 10 -7 19 -18 19c-10 0 -18 -9 -18 -19v-26z" />
    <glyph glyph-name="adieresis" unicode="&#xe4;" horiz-adv-x="711" 
d="M505 401v61c0 22 19 41 42 41s42 -19 42 -41v-61c0 -1 -2 -3 -3 -3h-18c-2 0 -3 2 -3 3v20l-36 -8v-12c0 -1 -2 -3 -3 -3h-18c-2 0 -3 2 -3 3zM339 455v-46c0 -1 -1 -2 -1 -3c0 0 -15 -9 -37 -9c-29 0 -53 23 -53 52c0 30 24 53 53 53c13 0 26 -5 36 -13c1 -2 2 -3 0 -4
l-11 -13c-1 -1 -3 -1 -4 0c-6 5 -12 7 -19 7c-16 0 -29 -13 -29 -30c0 -16 13 -29 29 -29c4 0 8 1 13 3v9l-10 -2c-2 0 -3 1 -3 3v15c0 2 1 3 3 3l30 7c1 0 3 -1 3 -3zM74 501h44c18 0 32 -14 32 -32c0 -13 -9 -24 -21 -29l21 -38c1 -2 0 -4 -3 -4h-20c-1 0 -2 1 -2 1
l-17 35l-14 -4v-29c0 -2 -1 -3 -2 -3h-18c-2 0 -3 1 -3 3v97c0 2 1 3 3 3zM173 501h60c2 0 3 -1 3 -3v-16c0 -1 -1 -3 -3 -3h-40v-18h17c2 0 4 -1 4 -3v-17c0 -2 -2 -3 -4 -3h-17v-18h40c2 0 3 -2 3 -3v-16c0 -2 -1 -3 -3 -3h-60c-2 0 -3 1 -3 3v97c0 2 1 3 3 3zM420 501h18
c2 0 3 -1 3 -3v-60c0 -23 -19 -41 -42 -41s-42 18 -42 41v60c0 2 2 3 3 3h18c2 0 3 -1 3 -3v-59c0 -11 8 -19 18 -19c11 0 19 8 19 19v59c0 2 1 3 2 3zM669 440l21 -38c1 -2 0 -4 -2 -4h-20c-1 0 -2 1 -2 1l-18 35l-13 -4v-29c0 -2 -1 -3 -3 -3h-17c-2 0 -3 1 -3 3v97
c0 2 1 3 3 3h43c18 0 33 -14 33 -32c0 -13 -9 -23 -22 -29zM600 370v-189c0 -2 -1 -3 -3 -3h-174c-2 0 -3 1 -3 3v143c0 2 1 3 3 3h17c2 0 3 -1 3 -3v-124h135v152h-115c-2 0 -3 1 -3 2v144c0 1 1 2 3 2h17c1 0 3 -1 3 -2v-124h114c2 0 3 -2 3 -4zM94 450l22 7
c6 1 11 6 11 12s-5 11 -11 11h-22v-30zM635 450l22 7c6 2 11 6 11 12s-5 11 -11 11h-22v-30zM565 443v18c0 10 -8 18 -18 18c-11 0 -18 -8 -18 -18v-27zM166 374h274c1 0 3 -2 3 -4v-15c0 -2 -2 -3 -3 -3h-256v-152h215c1 0 2 -1 2 -3v-127h36c2 0 3 -2 3 -3v-17
c0 -1 -1 -2 -3 -2h-56c-2 0 -3 1 -3 2v128h-213c-2 0 -3 1 -3 3v189c0 2 1 3 3 3c0 1 0 1 1 1zM351 329c-29 0 -52 -24 -52 -53c0 -30 23 -53 52 -53c30 0 53 23 53 53c0 29 -23 53 -53 53zM212 327h44c17 0 32 -14 32 -32c0 -8 -3 -15 -8 -20c4 -5 7 -12 7 -19
c0 -18 -15 -32 -32 -32h-43c-2 0 -3 1 -3 3v97c0 2 1 3 3 3zM463 324v-97c0 -1 1 -3 3 -3h36c28 0 51 23 51 52c0 28 -23 51 -51 51h-36c-2 0 -3 -1 -3 -3zM232 306v-30l22 7c6 1 11 6 11 12s-5 11 -11 11h-22zM486 246v60h14c17 0 29 -13 29 -30s-12 -30 -29 -30h-14z
M351 246c-16 0 -29 14 -29 30s13 29 29 29c17 0 30 -13 30 -29s-13 -30 -30 -30zM232 245h21c6 0 11 5 11 11c0 3 -1 6 -3 8l-29 -8v-11zM583 124l12 13c1 1 1 3 -1 4c-10 9 -21 14 -36 14c-29 0 -53 -24 -53 -55c0 -30 24 -54 53 -54c14 0 26 5 37 15c1 1 1 3 0 4l-12 12
c-1 1 -3 1 -4 1c-5 -5 -13 -8 -20 -8c-17 0 -29 14 -29 31s12 31 29 31c7 0 15 -3 20 -8c1 -1 3 -1 4 0zM220 132v-82c0 -1 1 -2 2 -2h18c1 0 3 1 3 2v82h21c1 0 3 1 3 3v16c0 1 -2 3 -3 3h-65c-2 0 -3 -2 -3 -3v-16c0 -2 1 -3 3 -3h21zM162 150v-100c0 -1 1 -3 3 -3h18
c1 0 2 2 2 3v100c0 2 -1 3 -2 3h-18c-2 0 -3 -1 -3 -3zM273 50v62c0 23 19 41 42 41s42 -18 42 -41v-62c0 -1 -1 -2 -3 -2h-18c-1 0 -3 1 -3 2v22l-36 -9v-13c0 -1 -1 -2 -3 -2h-18c-1 0 -3 1 -3 2zM461 151v-101c0 -1 1 -2 3 -2h18c1 0 2 1 2 2v101c0 1 -1 2 -2 2h-18
c-2 0 -3 -1 -3 -2zM333 93v18c0 10 -7 19 -18 19c-10 0 -18 -9 -18 -19v-26z" />
    <glyph glyph-name="agrave" unicode="&#xe0;" horiz-adv-x="737" 
d="M531 401v61c0 22 19 41 42 41s42 -19 42 -41v-61c0 -1 -2 -3 -3 -3h-18c-2 0 -3 2 -3 3v20l-36 -8v-12c0 -1 -2 -3 -3 -3h-18c-2 0 -3 2 -3 3zM365 455v-46c0 -1 -1 -2 -1 -3c0 0 -15 -9 -37 -9c-29 0 -53 23 -53 52c0 30 24 53 53 53c13 0 26 -5 36 -13c1 -2 2 -3 0 -4
l-11 -13c-1 -1 -3 -1 -4 0c-6 5 -12 7 -19 7c-16 0 -29 -13 -29 -30c0 -16 13 -29 29 -29c4 0 8 1 13 3v9l-10 -2c-2 0 -3 1 -3 3v15c0 2 1 3 3 3l30 7c1 0 3 -1 3 -3zM100 501h44c18 0 32 -14 32 -32c0 -13 -9 -24 -21 -29l21 -38c1 -2 0 -4 -3 -4h-20c-1 0 -2 1 -2 1
l-17 35l-14 -4v-29c0 -2 -1 -3 -2 -3h-18c-2 0 -3 1 -3 3v97c0 2 1 3 3 3zM199 501h60c2 0 3 -1 3 -3v-16c0 -1 -1 -3 -3 -3h-40v-18h17c2 0 4 -1 4 -3v-17c0 -2 -2 -3 -4 -3h-17v-18h40c2 0 3 -2 3 -3v-16c0 -2 -1 -3 -3 -3h-60c-2 0 -3 1 -3 3v97c0 2 1 3 3 3zM446 501h18
c2 0 3 -1 3 -3v-60c0 -23 -19 -41 -42 -41s-42 18 -42 41v60c0 2 2 3 3 3h18c2 0 3 -1 3 -3v-59c0 -11 8 -19 18 -19c11 0 19 8 19 19v59c0 2 1 3 2 3zM695 440l21 -38c1 -2 0 -4 -2 -4h-20c-1 0 -2 1 -2 1l-18 35l-13 -4v-29c0 -2 -1 -3 -3 -3h-17c-2 0 -3 1 -3 3v97
c0 2 1 3 3 3h43c18 0 33 -14 33 -32c0 -13 -9 -23 -22 -29zM626 370v-189c0 -2 -1 -3 -3 -3h-174c-2 0 -3 1 -3 3v143c0 2 1 3 3 3h17c2 0 3 -1 3 -3v-124h135v152h-115c-2 0 -3 1 -3 2v144c0 1 1 2 3 2h17c1 0 3 -1 3 -2v-124h114c2 0 3 -2 3 -4zM120 450l22 7
c6 1 11 6 11 12s-5 11 -11 11h-22v-30zM661 450l22 7c6 2 11 6 11 12s-5 11 -11 11h-22v-30zM591 443v18c0 10 -8 18 -18 18c-11 0 -18 -8 -18 -18v-27zM192 374h274c1 0 3 -2 3 -4v-15c0 -2 -2 -3 -3 -3h-256v-152h215c1 0 2 -1 2 -3v-127h36c2 0 3 -2 3 -3v-17
c0 -1 -1 -2 -3 -2h-56c-2 0 -3 1 -3 2v128h-213c-2 0 -3 1 -3 3v189c0 2 1 3 3 3c0 1 0 1 1 1zM377 329c-29 0 -52 -24 -52 -53c0 -30 23 -53 52 -53c30 0 53 23 53 53c0 29 -23 53 -53 53zM238 327h44c17 0 32 -14 32 -32c0 -8 -3 -15 -8 -20c4 -5 7 -12 7 -19
c0 -18 -15 -32 -32 -32h-43c-2 0 -3 1 -3 3v97c0 2 1 3 3 3zM489 324v-97c0 -1 1 -3 3 -3h36c28 0 51 23 51 52c0 28 -23 51 -51 51h-36c-2 0 -3 -1 -3 -3zM258 306v-30l22 7c6 1 11 6 11 12s-5 11 -11 11h-22zM512 246v60h14c17 0 29 -13 29 -30s-12 -30 -29 -30h-14z
M377 246c-16 0 -29 14 -29 30s13 29 29 29c17 0 30 -13 30 -29s-13 -30 -30 -30zM258 245h21c6 0 11 5 11 11c0 3 -1 6 -3 8l-29 -8v-11zM609 124l12 13c1 1 1 3 -1 4c-10 9 -21 14 -36 14c-29 0 -53 -24 -53 -55c0 -30 24 -54 53 -54c14 0 26 5 37 15c1 1 1 3 0 4l-12 12
c-1 1 -3 1 -4 1c-5 -5 -13 -8 -20 -8c-17 0 -29 14 -29 31s12 31 29 31c7 0 15 -3 20 -8c1 -1 3 -1 4 0zM246 132v-82c0 -1 1 -2 2 -2h18c1 0 3 1 3 2v82h21c1 0 3 1 3 3v16c0 1 -2 3 -3 3h-65c-2 0 -3 -2 -3 -3v-16c0 -2 1 -3 3 -3h21zM188 150v-100c0 -1 1 -3 3 -3h18
c1 0 2 2 2 3v100c0 2 -1 3 -2 3h-18c-2 0 -3 -1 -3 -3zM299 50v62c0 23 19 41 42 41s42 -18 42 -41v-62c0 -1 -1 -2 -3 -2h-18c-1 0 -3 1 -3 2v22l-36 -9v-13c0 -1 -1 -2 -3 -2h-18c-1 0 -3 1 -3 2zM487 151v-101c0 -1 1 -2 3 -2h18c1 0 2 1 2 2v101c0 1 -1 2 -2 2h-18
c-2 0 -3 -1 -3 -2zM359 93v18c0 10 -7 19 -18 19c-10 0 -18 -9 -18 -19v-26z" />
    <glyph glyph-name="aring" unicode="&#xe5;" horiz-adv-x="764" 
d="M558 401v61c0 22 19 41 42 41s42 -19 42 -41v-61c0 -1 -2 -3 -3 -3h-18c-2 0 -3 2 -3 3v20l-36 -8v-12c0 -1 -2 -3 -3 -3h-18c-2 0 -3 2 -3 3zM392 455v-46c0 -1 -1 -2 -1 -3c0 0 -15 -9 -37 -9c-29 0 -53 23 -53 52c0 30 24 53 53 53c13 0 26 -5 36 -13c1 -2 2 -3 0 -4
l-11 -13c-1 -1 -3 -1 -4 0c-6 5 -12 7 -19 7c-16 0 -29 -13 -29 -30c0 -16 13 -29 29 -29c4 0 8 1 13 3v9l-10 -2c-2 0 -3 1 -3 3v15c0 2 1 3 3 3l30 7c1 0 3 -1 3 -3zM127 501h44c18 0 32 -14 32 -32c0 -13 -9 -24 -21 -29l21 -38c1 -2 0 -4 -3 -4h-20c-1 0 -2 1 -2 1
l-17 35l-14 -4v-29c0 -2 -1 -3 -2 -3h-18c-2 0 -3 1 -3 3v97c0 2 1 3 3 3zM226 501h60c2 0 3 -1 3 -3v-16c0 -1 -1 -3 -3 -3h-40v-18h17c2 0 4 -1 4 -3v-17c0 -2 -2 -3 -4 -3h-17v-18h40c2 0 3 -2 3 -3v-16c0 -2 -1 -3 -3 -3h-60c-2 0 -3 1 -3 3v97c0 2 1 3 3 3zM473 501h18
c2 0 3 -1 3 -3v-60c0 -23 -19 -41 -42 -41s-42 18 -42 41v60c0 2 2 3 3 3h18c2 0 3 -1 3 -3v-59c0 -11 8 -19 18 -19c11 0 19 8 19 19v59c0 2 1 3 2 3zM722 440l21 -38c1 -2 0 -4 -2 -4h-20c-1 0 -2 1 -2 1l-18 35l-13 -4v-29c0 -2 -1 -3 -3 -3h-17c-2 0 -3 1 -3 3v97
c0 2 1 3 3 3h43c18 0 33 -14 33 -32c0 -13 -9 -23 -22 -29zM653 370v-189c0 -2 -1 -3 -3 -3h-174c-2 0 -3 1 -3 3v143c0 2 1 3 3 3h17c2 0 3 -1 3 -3v-124h135v152h-115c-2 0 -3 1 -3 2v144c0 1 1 2 3 2h17c1 0 3 -1 3 -2v-124h114c2 0 3 -2 3 -4zM147 450l22 7
c6 1 11 6 11 12s-5 11 -11 11h-22v-30zM688 450l22 7c6 2 11 6 11 12s-5 11 -11 11h-22v-30zM618 443v18c0 10 -8 18 -18 18c-11 0 -18 -8 -18 -18v-27zM219 374h274c1 0 3 -2 3 -4v-15c0 -2 -2 -3 -3 -3h-256v-152h215c1 0 2 -1 2 -3v-127h36c2 0 3 -2 3 -3v-17
c0 -1 -1 -2 -3 -2h-56c-2 0 -3 1 -3 2v128h-213c-2 0 -3 1 -3 3v189c0 2 1 3 3 3c0 1 0 1 1 1zM404 329c-29 0 -52 -24 -52 -53c0 -30 23 -53 52 -53c30 0 53 23 53 53c0 29 -23 53 -53 53zM265 327h44c17 0 32 -14 32 -32c0 -8 -3 -15 -8 -20c4 -5 7 -12 7 -19
c0 -18 -15 -32 -32 -32h-43c-2 0 -3 1 -3 3v97c0 2 1 3 3 3zM516 324v-97c0 -1 1 -3 3 -3h36c28 0 51 23 51 52c0 28 -23 51 -51 51h-36c-2 0 -3 -1 -3 -3zM285 306v-30l22 7c6 1 11 6 11 12s-5 11 -11 11h-22zM539 246v60h14c17 0 29 -13 29 -30s-12 -30 -29 -30h-14z
M404 246c-16 0 -29 14 -29 30s13 29 29 29c17 0 30 -13 30 -29s-13 -30 -30 -30zM285 245h21c6 0 11 5 11 11c0 3 -1 6 -3 8l-29 -8v-11zM636 124l12 13c1 1 1 3 -1 4c-10 9 -21 14 -36 14c-29 0 -53 -24 -53 -55c0 -30 24 -54 53 -54c14 0 26 5 37 15c1 1 1 3 0 4l-12 12
c-1 1 -3 1 -4 1c-5 -5 -13 -8 -20 -8c-17 0 -29 14 -29 31s12 31 29 31c7 0 15 -3 20 -8c1 -1 3 -1 4 0zM273 132v-82c0 -1 1 -2 2 -2h18c1 0 3 1 3 2v82h21c1 0 3 1 3 3v16c0 1 -2 3 -3 3h-65c-2 0 -3 -2 -3 -3v-16c0 -2 1 -3 3 -3h21zM215 150v-100c0 -1 1 -3 3 -3h18
c1 0 2 2 2 3v100c0 2 -1 3 -2 3h-18c-2 0 -3 -1 -3 -3zM326 50v62c0 23 19 41 42 41s42 -18 42 -41v-62c0 -1 -1 -2 -3 -2h-18c-1 0 -3 1 -3 2v22l-36 -9v-13c0 -1 -1 -2 -3 -2h-18c-1 0 -3 1 -3 2zM514 151v-101c0 -1 1 -2 3 -2h18c1 0 2 1 2 2v101c0 1 -1 2 -2 2h-18
c-2 0 -3 -1 -3 -2zM386 93v18c0 10 -7 19 -18 19c-10 0 -18 -9 -18 -19v-26z" />
    <glyph glyph-name="ae" unicode="&#xe6;" 
d="M454 401v61c0 22 19 41 42 41s42 -19 42 -41v-61c0 -1 -2 -3 -3 -3h-18c-2 0 -3 2 -3 3v20l-36 -8v-12c0 -1 -2 -3 -3 -3h-18c-2 0 -3 2 -3 3zM288 455v-46c0 -1 -1 -2 -1 -3c0 0 -15 -9 -37 -9c-29 0 -53 23 -53 52c0 30 24 53 53 53c13 0 26 -5 36 -13c1 -2 2 -3 0 -4
l-11 -13c-1 -1 -3 -1 -4 0c-6 5 -12 7 -19 7c-16 0 -29 -13 -29 -30c0 -16 13 -29 29 -29c4 0 8 1 13 3v9l-10 -2c-2 0 -3 1 -3 3v15c0 2 1 3 3 3l30 7c1 0 3 -1 3 -3zM23 501h44c18 0 32 -14 32 -32c0 -13 -9 -24 -21 -29l21 -38c1 -2 0 -4 -3 -4h-20c-1 0 -2 1 -2 1
l-17 35l-14 -4v-29c0 -2 -1 -3 -2 -3h-18c-2 0 -3 1 -3 3v97c0 2 1 3 3 3zM122 501h60c2 0 3 -1 3 -3v-16c0 -1 -1 -3 -3 -3h-40v-18h17c2 0 4 -1 4 -3v-17c0 -2 -2 -3 -4 -3h-17v-18h40c2 0 3 -2 3 -3v-16c0 -2 -1 -3 -3 -3h-60c-2 0 -3 1 -3 3v97c0 2 1 3 3 3zM369 501h18
c2 0 3 -1 3 -3v-60c0 -23 -19 -41 -42 -41s-42 18 -42 41v60c0 2 2 3 3 3h18c2 0 3 -1 3 -3v-59c0 -11 8 -19 18 -19c11 0 19 8 19 19v59c0 2 1 3 2 3zM618 440l21 -38c1 -2 0 -4 -2 -4h-20c-1 0 -2 1 -2 1l-18 35l-13 -4v-29c0 -2 -1 -3 -3 -3h-17c-2 0 -3 1 -3 3v97
c0 2 1 3 3 3h43c18 0 33 -14 33 -32c0 -13 -9 -23 -22 -29zM549 370v-189c0 -2 -1 -3 -3 -3h-174c-2 0 -3 1 -3 3v143c0 2 1 3 3 3h17c2 0 3 -1 3 -3v-124h135v152h-115c-2 0 -3 1 -3 2v144c0 1 1 2 3 2h17c1 0 3 -1 3 -2v-124h114c2 0 3 -2 3 -4zM43 450l22 7
c6 1 11 6 11 12s-5 11 -11 11h-22v-30zM584 450l22 7c6 2 11 6 11 12s-5 11 -11 11h-22v-30zM514 443v18c0 10 -8 18 -18 18c-11 0 -18 -8 -18 -18v-27zM115 374h274c1 0 3 -2 3 -4v-15c0 -2 -2 -3 -3 -3h-256v-152h215c1 0 2 -1 2 -3v-127h36c2 0 3 -2 3 -3v-17
c0 -1 -1 -2 -3 -2h-56c-2 0 -3 1 -3 2v128h-213c-2 0 -3 1 -3 3v189c0 2 1 3 3 3c0 1 0 1 1 1zM300 329c-29 0 -52 -24 -52 -53c0 -30 23 -53 52 -53c30 0 53 23 53 53c0 29 -23 53 -53 53zM161 327h44c17 0 32 -14 32 -32c0 -8 -3 -15 -8 -20c4 -5 7 -12 7 -19
c0 -18 -15 -32 -32 -32h-43c-2 0 -3 1 -3 3v97c0 2 1 3 3 3zM412 324v-97c0 -1 1 -3 3 -3h36c28 0 51 23 51 52c0 28 -23 51 -51 51h-36c-2 0 -3 -1 -3 -3zM181 306v-30l22 7c6 1 11 6 11 12s-5 11 -11 11h-22zM435 246v60h14c17 0 29 -13 29 -30s-12 -30 -29 -30h-14z
M300 246c-16 0 -29 14 -29 30s13 29 29 29c17 0 30 -13 30 -29s-13 -30 -30 -30zM181 245h21c6 0 11 5 11 11c0 3 -1 6 -3 8l-29 -8v-11zM532 124l12 13c1 1 1 3 -1 4c-10 9 -21 14 -36 14c-29 0 -53 -24 -53 -55c0 -30 24 -54 53 -54c14 0 26 5 37 15c1 1 1 3 0 4l-12 12
c-1 1 -3 1 -4 1c-5 -5 -13 -8 -20 -8c-17 0 -29 14 -29 31s12 31 29 31c7 0 15 -3 20 -8c1 -1 3 -1 4 0zM169 132v-82c0 -1 1 -2 2 -2h18c1 0 3 1 3 2v82h21c1 0 3 1 3 3v16c0 1 -2 3 -3 3h-65c-2 0 -3 -2 -3 -3v-16c0 -2 1 -3 3 -3h21zM111 150v-100c0 -1 1 -3 3 -3h18
c1 0 2 2 2 3v100c0 2 -1 3 -2 3h-18c-2 0 -3 -1 -3 -3zM222 50v62c0 23 19 41 42 41s42 -18 42 -41v-62c0 -1 -1 -2 -3 -2h-18c-1 0 -3 1 -3 2v22l-36 -9v-13c0 -1 -1 -2 -3 -2h-18c-1 0 -3 1 -3 2zM410 151v-101c0 -1 1 -2 3 -2h18c1 0 2 1 2 2v101c0 1 -1 2 -2 2h-18
c-2 0 -3 -1 -3 -2zM282 93v18c0 10 -7 19 -18 19c-10 0 -18 -9 -18 -19v-26z" />
    <glyph glyph-name="b" unicode="b" horiz-adv-x="648" 
d="M242 711v-185c30 24 75 38 122 38c158 0 264 -116 264 -289c0 -174 -106 -290 -264 -290c-61 0 -120 22 -158 56l-11 -26c-4 -9 -9 -15 -16 -15h-128c-8 0 -15 7 -15 15v696c0 7 7 14 15 14h176c8 0 15 -7 15 -14zM321 157c55 0 92 46 92 116c0 72 -37 120 -92 120
s-92 -48 -92 -120c0 -70 37 -116 92 -116z" />
    <glyph glyph-name="c" unicode="c" horiz-adv-x="532" 
d="M453 180l58 -122c3 -5 0 -12 -6 -17c-40 -34 -124 -57 -195 -57c-160 0 -290 130 -290 290s130 290 290 290c68 0 152 -23 195 -57c6 -5 9 -12 6 -17l-58 -122c-4 -8 -11 -11 -18 -6c-25 18 -63 30 -96 30c-61 0 -111 -47 -111 -118s50 -118 111 -118c33 0 71 12 96 30
c7 5 14 2 18 -6z" />
    <glyph glyph-name="ccedilla" unicode="&#xe7;" horiz-adv-x="771" 
d="M565 401v61c0 22 19 41 42 41s42 -19 42 -41v-61c0 -1 -2 -3 -3 -3h-18c-2 0 -3 2 -3 3v20l-36 -8v-12c0 -1 -2 -3 -3 -3h-18c-2 0 -3 2 -3 3zM399 455v-46c0 -1 -1 -2 -1 -3c0 0 -15 -9 -37 -9c-29 0 -53 23 -53 52c0 30 24 53 53 53c13 0 26 -5 36 -13c1 -2 2 -3 0 -4
l-11 -13c-1 -1 -3 -1 -4 0c-6 5 -12 7 -19 7c-16 0 -29 -13 -29 -30c0 -16 13 -29 29 -29c4 0 8 1 13 3v9l-10 -2c-2 0 -3 1 -3 3v15c0 2 1 3 3 3l30 7c1 0 3 -1 3 -3zM134 501h44c18 0 32 -14 32 -32c0 -13 -9 -24 -21 -29l21 -38c1 -2 0 -4 -3 -4h-20c-1 0 -2 1 -2 1
l-17 35l-14 -4v-29c0 -2 -1 -3 -2 -3h-18c-2 0 -3 1 -3 3v97c0 2 1 3 3 3zM233 501h60c2 0 3 -1 3 -3v-16c0 -1 -1 -3 -3 -3h-40v-18h17c2 0 4 -1 4 -3v-17c0 -2 -2 -3 -4 -3h-17v-18h40c2 0 3 -2 3 -3v-16c0 -2 -1 -3 -3 -3h-60c-2 0 -3 1 -3 3v97c0 2 1 3 3 3zM480 501h18
c2 0 3 -1 3 -3v-60c0 -23 -19 -41 -42 -41s-42 18 -42 41v60c0 2 2 3 3 3h18c2 0 3 -1 3 -3v-59c0 -11 8 -19 18 -19c11 0 19 8 19 19v59c0 2 1 3 2 3zM729 440l21 -38c1 -2 0 -4 -2 -4h-20c-1 0 -2 1 -2 1l-18 35l-13 -4v-29c0 -2 -1 -3 -3 -3h-17c-2 0 -3 1 -3 3v97
c0 2 1 3 3 3h43c18 0 33 -14 33 -32c0 -13 -9 -23 -22 -29zM660 370v-189c0 -2 -1 -3 -3 -3h-174c-2 0 -3 1 -3 3v143c0 2 1 3 3 3h17c2 0 3 -1 3 -3v-124h135v152h-115c-2 0 -3 1 -3 2v144c0 1 1 2 3 2h17c1 0 3 -1 3 -2v-124h114c2 0 3 -2 3 -4zM154 450l22 7
c6 1 11 6 11 12s-5 11 -11 11h-22v-30zM695 450l22 7c6 2 11 6 11 12s-5 11 -11 11h-22v-30zM625 443v18c0 10 -8 18 -18 18c-11 0 -18 -8 -18 -18v-27zM226 374h274c1 0 3 -2 3 -4v-15c0 -2 -2 -3 -3 -3h-256v-152h215c1 0 2 -1 2 -3v-127h36c2 0 3 -2 3 -3v-17
c0 -1 -1 -2 -3 -2h-56c-2 0 -3 1 -3 2v128h-213c-2 0 -3 1 -3 3v189c0 2 1 3 3 3c0 1 0 1 1 1zM411 329c-29 0 -52 -24 -52 -53c0 -30 23 -53 52 -53c30 0 53 23 53 53c0 29 -23 53 -53 53zM272 327h44c17 0 32 -14 32 -32c0 -8 -3 -15 -8 -20c4 -5 7 -12 7 -19
c0 -18 -15 -32 -32 -32h-43c-2 0 -3 1 -3 3v97c0 2 1 3 3 3zM523 324v-97c0 -1 1 -3 3 -3h36c28 0 51 23 51 52c0 28 -23 51 -51 51h-36c-2 0 -3 -1 -3 -3zM292 306v-30l22 7c6 1 11 6 11 12s-5 11 -11 11h-22zM546 246v60h14c17 0 29 -13 29 -30s-12 -30 -29 -30h-14z
M411 246c-16 0 -29 14 -29 30s13 29 29 29c17 0 30 -13 30 -29s-13 -30 -30 -30zM292 245h21c6 0 11 5 11 11c0 3 -1 6 -3 8l-29 -8v-11zM643 124l12 13c1 1 1 3 -1 4c-10 9 -21 14 -36 14c-29 0 -53 -24 -53 -55c0 -30 24 -54 53 -54c14 0 26 5 37 15c1 1 1 3 0 4l-12 12
c-1 1 -3 1 -4 1c-5 -5 -13 -8 -20 -8c-17 0 -29 14 -29 31s12 31 29 31c7 0 15 -3 20 -8c1 -1 3 -1 4 0zM280 132v-82c0 -1 1 -2 2 -2h18c1 0 3 1 3 2v82h21c1 0 3 1 3 3v16c0 1 -2 3 -3 3h-65c-2 0 -3 -2 -3 -3v-16c0 -2 1 -3 3 -3h21zM222 150v-100c0 -1 1 -3 3 -3h18
c1 0 2 2 2 3v100c0 2 -1 3 -2 3h-18c-2 0 -3 -1 -3 -3zM333 50v62c0 23 19 41 42 41s42 -18 42 -41v-62c0 -1 -1 -2 -3 -2h-18c-1 0 -3 1 -3 2v22l-36 -9v-13c0 -1 -1 -2 -3 -2h-18c-1 0 -3 1 -3 2zM521 151v-101c0 -1 1 -2 3 -2h18c1 0 2 1 2 2v101c0 1 -1 2 -2 2h-18
c-2 0 -3 -1 -3 -2zM393 93v18c0 10 -7 19 -18 19c-10 0 -18 -9 -18 -19v-26z" />
    <glyph glyph-name="d" unicode="d" horiz-adv-x="648" 
d="M421 725h176c8 0 15 -7 15 -14v-696c0 -8 -7 -15 -15 -15h-128c-7 0 -12 6 -16 15l-11 26c-38 -34 -97 -56 -158 -56c-158 0 -264 116 -264 290c0 173 106 289 264 289c47 0 92 -14 122 -38v185c0 7 7 14 15 14zM327 156c55 0 92 46 92 116c0 72 -37 120 -92 120
s-92 -48 -92 -120c0 -70 37 -116 92 -116z" />
    <glyph glyph-name="e" unicode="e" horiz-adv-x="594" 
d="M486 180l43 -124c2 -7 0 -11 -7 -15c-53 -35 -130 -56 -207 -56c-177 0 -295 116 -295 289c0 174 116 290 290 290c166 0 264 -107 264 -289c0 -15 -1 -30 -4 -45c-1 -8 -6 -12 -15 -12h-321s0 -63 84 -63c51 0 108 12 153 33c7 3 13 -1 15 -8zM233 323h142
c0 44 -27 73 -67 73c-45 0 -75 -29 -75 -73z" />
    <glyph glyph-name="eacute" unicode="&#xe9;" horiz-adv-x="713" 
d="M507 401v61c0 22 19 41 42 41s42 -19 42 -41v-61c0 -1 -2 -3 -3 -3h-18c-2 0 -3 2 -3 3v20l-36 -8v-12c0 -1 -2 -3 -3 -3h-18c-2 0 -3 2 -3 3zM341 455v-46c0 -1 -1 -2 -1 -3c0 0 -15 -9 -37 -9c-29 0 -53 23 -53 52c0 30 24 53 53 53c13 0 26 -5 36 -13c1 -2 2 -3 0 -4
l-11 -13c-1 -1 -3 -1 -4 0c-6 5 -12 7 -19 7c-16 0 -29 -13 -29 -30c0 -16 13 -29 29 -29c4 0 8 1 13 3v9l-10 -2c-2 0 -3 1 -3 3v15c0 2 1 3 3 3l30 7c1 0 3 -1 3 -3zM76 501h44c18 0 32 -14 32 -32c0 -13 -9 -24 -21 -29l21 -38c1 -2 0 -4 -3 -4h-20c-1 0 -2 1 -2 1
l-17 35l-14 -4v-29c0 -2 -1 -3 -2 -3h-18c-2 0 -3 1 -3 3v97c0 2 1 3 3 3zM175 501h60c2 0 3 -1 3 -3v-16c0 -1 -1 -3 -3 -3h-40v-18h17c2 0 4 -1 4 -3v-17c0 -2 -2 -3 -4 -3h-17v-18h40c2 0 3 -2 3 -3v-16c0 -2 -1 -3 -3 -3h-60c-2 0 -3 1 -3 3v97c0 2 1 3 3 3zM422 501h18
c2 0 3 -1 3 -3v-60c0 -23 -19 -41 -42 -41s-42 18 -42 41v60c0 2 2 3 3 3h18c2 0 3 -1 3 -3v-59c0 -11 8 -19 18 -19c11 0 19 8 19 19v59c0 2 1 3 2 3zM671 440l21 -38c1 -2 0 -4 -2 -4h-20c-1 0 -2 1 -2 1l-18 35l-13 -4v-29c0 -2 -1 -3 -3 -3h-17c-2 0 -3 1 -3 3v97
c0 2 1 3 3 3h43c18 0 33 -14 33 -32c0 -13 -9 -23 -22 -29zM602 370v-189c0 -2 -1 -3 -3 -3h-174c-2 0 -3 1 -3 3v143c0 2 1 3 3 3h17c2 0 3 -1 3 -3v-124h135v152h-115c-2 0 -3 1 -3 2v144c0 1 1 2 3 2h17c1 0 3 -1 3 -2v-124h114c2 0 3 -2 3 -4zM96 450l22 7
c6 1 11 6 11 12s-5 11 -11 11h-22v-30zM637 450l22 7c6 2 11 6 11 12s-5 11 -11 11h-22v-30zM567 443v18c0 10 -8 18 -18 18c-11 0 -18 -8 -18 -18v-27zM168 374h274c1 0 3 -2 3 -4v-15c0 -2 -2 -3 -3 -3h-256v-152h215c1 0 2 -1 2 -3v-127h36c2 0 3 -2 3 -3v-17
c0 -1 -1 -2 -3 -2h-56c-2 0 -3 1 -3 2v128h-213c-2 0 -3 1 -3 3v189c0 2 1 3 3 3c0 1 0 1 1 1zM353 329c-29 0 -52 -24 -52 -53c0 -30 23 -53 52 -53c30 0 53 23 53 53c0 29 -23 53 -53 53zM214 327h44c17 0 32 -14 32 -32c0 -8 -3 -15 -8 -20c4 -5 7 -12 7 -19
c0 -18 -15 -32 -32 -32h-43c-2 0 -3 1 -3 3v97c0 2 1 3 3 3zM465 324v-97c0 -1 1 -3 3 -3h36c28 0 51 23 51 52c0 28 -23 51 -51 51h-36c-2 0 -3 -1 -3 -3zM234 306v-30l22 7c6 1 11 6 11 12s-5 11 -11 11h-22zM488 246v60h14c17 0 29 -13 29 -30s-12 -30 -29 -30h-14z
M353 246c-16 0 -29 14 -29 30s13 29 29 29c17 0 30 -13 30 -29s-13 -30 -30 -30zM234 245h21c6 0 11 5 11 11c0 3 -1 6 -3 8l-29 -8v-11zM585 124l12 13c1 1 1 3 -1 4c-10 9 -21 14 -36 14c-29 0 -53 -24 -53 -55c0 -30 24 -54 53 -54c14 0 26 5 37 15c1 1 1 3 0 4l-12 12
c-1 1 -3 1 -4 1c-5 -5 -13 -8 -20 -8c-17 0 -29 14 -29 31s12 31 29 31c7 0 15 -3 20 -8c1 -1 3 -1 4 0zM222 132v-82c0 -1 1 -2 2 -2h18c1 0 3 1 3 2v82h21c1 0 3 1 3 3v16c0 1 -2 3 -3 3h-65c-2 0 -3 -2 -3 -3v-16c0 -2 1 -3 3 -3h21zM164 150v-100c0 -1 1 -3 3 -3h18
c1 0 2 2 2 3v100c0 2 -1 3 -2 3h-18c-2 0 -3 -1 -3 -3zM275 50v62c0 23 19 41 42 41s42 -18 42 -41v-62c0 -1 -1 -2 -3 -2h-18c-1 0 -3 1 -3 2v22l-36 -9v-13c0 -1 -1 -2 -3 -2h-18c-1 0 -3 1 -3 2zM463 151v-101c0 -1 1 -2 3 -2h18c1 0 2 1 2 2v101c0 1 -1 2 -2 2h-18
c-2 0 -3 -1 -3 -2zM335 93v18c0 10 -7 19 -18 19c-10 0 -18 -9 -18 -19v-26z" />
    <glyph glyph-name="ecircumflex" unicode="&#xea;" horiz-adv-x="727" 
d="M521 401v61c0 22 19 41 42 41s42 -19 42 -41v-61c0 -1 -2 -3 -3 -3h-18c-2 0 -3 2 -3 3v20l-36 -8v-12c0 -1 -2 -3 -3 -3h-18c-2 0 -3 2 -3 3zM355 455v-46c0 -1 -1 -2 -1 -3c0 0 -15 -9 -37 -9c-29 0 -53 23 -53 52c0 30 24 53 53 53c13 0 26 -5 36 -13c1 -2 2 -3 0 -4
l-11 -13c-1 -1 -3 -1 -4 0c-6 5 -12 7 -19 7c-16 0 -29 -13 -29 -30c0 -16 13 -29 29 -29c4 0 8 1 13 3v9l-10 -2c-2 0 -3 1 -3 3v15c0 2 1 3 3 3l30 7c1 0 3 -1 3 -3zM90 501h44c18 0 32 -14 32 -32c0 -13 -9 -24 -21 -29l21 -38c1 -2 0 -4 -3 -4h-20c-1 0 -2 1 -2 1
l-17 35l-14 -4v-29c0 -2 -1 -3 -2 -3h-18c-2 0 -3 1 -3 3v97c0 2 1 3 3 3zM189 501h60c2 0 3 -1 3 -3v-16c0 -1 -1 -3 -3 -3h-40v-18h17c2 0 4 -1 4 -3v-17c0 -2 -2 -3 -4 -3h-17v-18h40c2 0 3 -2 3 -3v-16c0 -2 -1 -3 -3 -3h-60c-2 0 -3 1 -3 3v97c0 2 1 3 3 3zM436 501h18
c2 0 3 -1 3 -3v-60c0 -23 -19 -41 -42 -41s-42 18 -42 41v60c0 2 2 3 3 3h18c2 0 3 -1 3 -3v-59c0 -11 8 -19 18 -19c11 0 19 8 19 19v59c0 2 1 3 2 3zM685 440l21 -38c1 -2 0 -4 -2 -4h-20c-1 0 -2 1 -2 1l-18 35l-13 -4v-29c0 -2 -1 -3 -3 -3h-17c-2 0 -3 1 -3 3v97
c0 2 1 3 3 3h43c18 0 33 -14 33 -32c0 -13 -9 -23 -22 -29zM616 370v-189c0 -2 -1 -3 -3 -3h-174c-2 0 -3 1 -3 3v143c0 2 1 3 3 3h17c2 0 3 -1 3 -3v-124h135v152h-115c-2 0 -3 1 -3 2v144c0 1 1 2 3 2h17c1 0 3 -1 3 -2v-124h114c2 0 3 -2 3 -4zM110 450l22 7
c6 1 11 6 11 12s-5 11 -11 11h-22v-30zM651 450l22 7c6 2 11 6 11 12s-5 11 -11 11h-22v-30zM581 443v18c0 10 -8 18 -18 18c-11 0 -18 -8 -18 -18v-27zM182 374h274c1 0 3 -2 3 -4v-15c0 -2 -2 -3 -3 -3h-256v-152h215c1 0 2 -1 2 -3v-127h36c2 0 3 -2 3 -3v-17
c0 -1 -1 -2 -3 -2h-56c-2 0 -3 1 -3 2v128h-213c-2 0 -3 1 -3 3v189c0 2 1 3 3 3c0 1 0 1 1 1zM367 329c-29 0 -52 -24 -52 -53c0 -30 23 -53 52 -53c30 0 53 23 53 53c0 29 -23 53 -53 53zM228 327h44c17 0 32 -14 32 -32c0 -8 -3 -15 -8 -20c4 -5 7 -12 7 -19
c0 -18 -15 -32 -32 -32h-43c-2 0 -3 1 -3 3v97c0 2 1 3 3 3zM479 324v-97c0 -1 1 -3 3 -3h36c28 0 51 23 51 52c0 28 -23 51 -51 51h-36c-2 0 -3 -1 -3 -3zM248 306v-30l22 7c6 1 11 6 11 12s-5 11 -11 11h-22zM502 246v60h14c17 0 29 -13 29 -30s-12 -30 -29 -30h-14z
M367 246c-16 0 -29 14 -29 30s13 29 29 29c17 0 30 -13 30 -29s-13 -30 -30 -30zM248 245h21c6 0 11 5 11 11c0 3 -1 6 -3 8l-29 -8v-11zM599 124l12 13c1 1 1 3 -1 4c-10 9 -21 14 -36 14c-29 0 -53 -24 -53 -55c0 -30 24 -54 53 -54c14 0 26 5 37 15c1 1 1 3 0 4l-12 12
c-1 1 -3 1 -4 1c-5 -5 -13 -8 -20 -8c-17 0 -29 14 -29 31s12 31 29 31c7 0 15 -3 20 -8c1 -1 3 -1 4 0zM236 132v-82c0 -1 1 -2 2 -2h18c1 0 3 1 3 2v82h21c1 0 3 1 3 3v16c0 1 -2 3 -3 3h-65c-2 0 -3 -2 -3 -3v-16c0 -2 1 -3 3 -3h21zM178 150v-100c0 -1 1 -3 3 -3h18
c1 0 2 2 2 3v100c0 2 -1 3 -2 3h-18c-2 0 -3 -1 -3 -3zM289 50v62c0 23 19 41 42 41s42 -18 42 -41v-62c0 -1 -1 -2 -3 -2h-18c-1 0 -3 1 -3 2v22l-36 -9v-13c0 -1 -1 -2 -3 -2h-18c-1 0 -3 1 -3 2zM477 151v-101c0 -1 1 -2 3 -2h18c1 0 2 1 2 2v101c0 1 -1 2 -2 2h-18
c-2 0 -3 -1 -3 -2zM349 93v18c0 10 -7 19 -18 19c-10 0 -18 -9 -18 -19v-26z" />
    <glyph glyph-name="edieresis" unicode="&#xeb;" horiz-adv-x="701" 
d="M495 401v61c0 22 19 41 42 41s42 -19 42 -41v-61c0 -1 -2 -3 -3 -3h-18c-2 0 -3 2 -3 3v20l-36 -8v-12c0 -1 -2 -3 -3 -3h-18c-2 0 -3 2 -3 3zM329 455v-46c0 -1 -1 -2 -1 -3c0 0 -15 -9 -37 -9c-29 0 -53 23 -53 52c0 30 24 53 53 53c13 0 26 -5 36 -13c1 -2 2 -3 0 -4
l-11 -13c-1 -1 -3 -1 -4 0c-6 5 -12 7 -19 7c-16 0 -29 -13 -29 -30c0 -16 13 -29 29 -29c4 0 8 1 13 3v9l-10 -2c-2 0 -3 1 -3 3v15c0 2 1 3 3 3l30 7c1 0 3 -1 3 -3zM64 501h44c18 0 32 -14 32 -32c0 -13 -9 -24 -21 -29l21 -38c1 -2 0 -4 -3 -4h-20c-1 0 -2 1 -2 1
l-17 35l-14 -4v-29c0 -2 -1 -3 -2 -3h-18c-2 0 -3 1 -3 3v97c0 2 1 3 3 3zM163 501h60c2 0 3 -1 3 -3v-16c0 -1 -1 -3 -3 -3h-40v-18h17c2 0 4 -1 4 -3v-17c0 -2 -2 -3 -4 -3h-17v-18h40c2 0 3 -2 3 -3v-16c0 -2 -1 -3 -3 -3h-60c-2 0 -3 1 -3 3v97c0 2 1 3 3 3zM410 501h18
c2 0 3 -1 3 -3v-60c0 -23 -19 -41 -42 -41s-42 18 -42 41v60c0 2 2 3 3 3h18c2 0 3 -1 3 -3v-59c0 -11 8 -19 18 -19c11 0 19 8 19 19v59c0 2 1 3 2 3zM659 440l21 -38c1 -2 0 -4 -2 -4h-20c-1 0 -2 1 -2 1l-18 35l-13 -4v-29c0 -2 -1 -3 -3 -3h-17c-2 0 -3 1 -3 3v97
c0 2 1 3 3 3h43c18 0 33 -14 33 -32c0 -13 -9 -23 -22 -29zM590 370v-189c0 -2 -1 -3 -3 -3h-174c-2 0 -3 1 -3 3v143c0 2 1 3 3 3h17c2 0 3 -1 3 -3v-124h135v152h-115c-2 0 -3 1 -3 2v144c0 1 1 2 3 2h17c1 0 3 -1 3 -2v-124h114c2 0 3 -2 3 -4zM84 450l22 7
c6 1 11 6 11 12s-5 11 -11 11h-22v-30zM625 450l22 7c6 2 11 6 11 12s-5 11 -11 11h-22v-30zM555 443v18c0 10 -8 18 -18 18c-11 0 -18 -8 -18 -18v-27zM156 374h274c1 0 3 -2 3 -4v-15c0 -2 -2 -3 -3 -3h-256v-152h215c1 0 2 -1 2 -3v-127h36c2 0 3 -2 3 -3v-17
c0 -1 -1 -2 -3 -2h-56c-2 0 -3 1 -3 2v128h-213c-2 0 -3 1 -3 3v189c0 2 1 3 3 3c0 1 0 1 1 1zM341 329c-29 0 -52 -24 -52 -53c0 -30 23 -53 52 -53c30 0 53 23 53 53c0 29 -23 53 -53 53zM202 327h44c17 0 32 -14 32 -32c0 -8 -3 -15 -8 -20c4 -5 7 -12 7 -19
c0 -18 -15 -32 -32 -32h-43c-2 0 -3 1 -3 3v97c0 2 1 3 3 3zM453 324v-97c0 -1 1 -3 3 -3h36c28 0 51 23 51 52c0 28 -23 51 -51 51h-36c-2 0 -3 -1 -3 -3zM222 306v-30l22 7c6 1 11 6 11 12s-5 11 -11 11h-22zM476 246v60h14c17 0 29 -13 29 -30s-12 -30 -29 -30h-14z
M341 246c-16 0 -29 14 -29 30s13 29 29 29c17 0 30 -13 30 -29s-13 -30 -30 -30zM222 245h21c6 0 11 5 11 11c0 3 -1 6 -3 8l-29 -8v-11zM573 124l12 13c1 1 1 3 -1 4c-10 9 -21 14 -36 14c-29 0 -53 -24 -53 -55c0 -30 24 -54 53 -54c14 0 26 5 37 15c1 1 1 3 0 4l-12 12
c-1 1 -3 1 -4 1c-5 -5 -13 -8 -20 -8c-17 0 -29 14 -29 31s12 31 29 31c7 0 15 -3 20 -8c1 -1 3 -1 4 0zM210 132v-82c0 -1 1 -2 2 -2h18c1 0 3 1 3 2v82h21c1 0 3 1 3 3v16c0 1 -2 3 -3 3h-65c-2 0 -3 -2 -3 -3v-16c0 -2 1 -3 3 -3h21zM152 150v-100c0 -1 1 -3 3 -3h18
c1 0 2 2 2 3v100c0 2 -1 3 -2 3h-18c-2 0 -3 -1 -3 -3zM263 50v62c0 23 19 41 42 41s42 -18 42 -41v-62c0 -1 -1 -2 -3 -2h-18c-1 0 -3 1 -3 2v22l-36 -9v-13c0 -1 -1 -2 -3 -2h-18c-1 0 -3 1 -3 2zM451 151v-101c0 -1 1 -2 3 -2h18c1 0 2 1 2 2v101c0 1 -1 2 -2 2h-18
c-2 0 -3 -1 -3 -2zM323 93v18c0 10 -7 19 -18 19c-10 0 -18 -9 -18 -19v-26z" />
    <glyph glyph-name="egrave" unicode="&#xe8;" horiz-adv-x="727" 
d="M521 401v61c0 22 19 41 42 41s42 -19 42 -41v-61c0 -1 -2 -3 -3 -3h-18c-2 0 -3 2 -3 3v20l-36 -8v-12c0 -1 -2 -3 -3 -3h-18c-2 0 -3 2 -3 3zM355 455v-46c0 -1 -1 -2 -1 -3c0 0 -15 -9 -37 -9c-29 0 -53 23 -53 52c0 30 24 53 53 53c13 0 26 -5 36 -13c1 -2 2 -3 0 -4
l-11 -13c-1 -1 -3 -1 -4 0c-6 5 -12 7 -19 7c-16 0 -29 -13 -29 -30c0 -16 13 -29 29 -29c4 0 8 1 13 3v9l-10 -2c-2 0 -3 1 -3 3v15c0 2 1 3 3 3l30 7c1 0 3 -1 3 -3zM90 501h44c18 0 32 -14 32 -32c0 -13 -9 -24 -21 -29l21 -38c1 -2 0 -4 -3 -4h-20c-1 0 -2 1 -2 1
l-17 35l-14 -4v-29c0 -2 -1 -3 -2 -3h-18c-2 0 -3 1 -3 3v97c0 2 1 3 3 3zM189 501h60c2 0 3 -1 3 -3v-16c0 -1 -1 -3 -3 -3h-40v-18h17c2 0 4 -1 4 -3v-17c0 -2 -2 -3 -4 -3h-17v-18h40c2 0 3 -2 3 -3v-16c0 -2 -1 -3 -3 -3h-60c-2 0 -3 1 -3 3v97c0 2 1 3 3 3zM436 501h18
c2 0 3 -1 3 -3v-60c0 -23 -19 -41 -42 -41s-42 18 -42 41v60c0 2 2 3 3 3h18c2 0 3 -1 3 -3v-59c0 -11 8 -19 18 -19c11 0 19 8 19 19v59c0 2 1 3 2 3zM685 440l21 -38c1 -2 0 -4 -2 -4h-20c-1 0 -2 1 -2 1l-18 35l-13 -4v-29c0 -2 -1 -3 -3 -3h-17c-2 0 -3 1 -3 3v97
c0 2 1 3 3 3h43c18 0 33 -14 33 -32c0 -13 -9 -23 -22 -29zM616 370v-189c0 -2 -1 -3 -3 -3h-174c-2 0 -3 1 -3 3v143c0 2 1 3 3 3h17c2 0 3 -1 3 -3v-124h135v152h-115c-2 0 -3 1 -3 2v144c0 1 1 2 3 2h17c1 0 3 -1 3 -2v-124h114c2 0 3 -2 3 -4zM110 450l22 7
c6 1 11 6 11 12s-5 11 -11 11h-22v-30zM651 450l22 7c6 2 11 6 11 12s-5 11 -11 11h-22v-30zM581 443v18c0 10 -8 18 -18 18c-11 0 -18 -8 -18 -18v-27zM182 374h274c1 0 3 -2 3 -4v-15c0 -2 -2 -3 -3 -3h-256v-152h215c1 0 2 -1 2 -3v-127h36c2 0 3 -2 3 -3v-17
c0 -1 -1 -2 -3 -2h-56c-2 0 -3 1 -3 2v128h-213c-2 0 -3 1 -3 3v189c0 2 1 3 3 3c0 1 0 1 1 1zM367 329c-29 0 -52 -24 -52 -53c0 -30 23 -53 52 -53c30 0 53 23 53 53c0 29 -23 53 -53 53zM228 327h44c17 0 32 -14 32 -32c0 -8 -3 -15 -8 -20c4 -5 7 -12 7 -19
c0 -18 -15 -32 -32 -32h-43c-2 0 -3 1 -3 3v97c0 2 1 3 3 3zM479 324v-97c0 -1 1 -3 3 -3h36c28 0 51 23 51 52c0 28 -23 51 -51 51h-36c-2 0 -3 -1 -3 -3zM248 306v-30l22 7c6 1 11 6 11 12s-5 11 -11 11h-22zM502 246v60h14c17 0 29 -13 29 -30s-12 -30 -29 -30h-14z
M367 246c-16 0 -29 14 -29 30s13 29 29 29c17 0 30 -13 30 -29s-13 -30 -30 -30zM248 245h21c6 0 11 5 11 11c0 3 -1 6 -3 8l-29 -8v-11zM599 124l12 13c1 1 1 3 -1 4c-10 9 -21 14 -36 14c-29 0 -53 -24 -53 -55c0 -30 24 -54 53 -54c14 0 26 5 37 15c1 1 1 3 0 4l-12 12
c-1 1 -3 1 -4 1c-5 -5 -13 -8 -20 -8c-17 0 -29 14 -29 31s12 31 29 31c7 0 15 -3 20 -8c1 -1 3 -1 4 0zM236 132v-82c0 -1 1 -2 2 -2h18c1 0 3 1 3 2v82h21c1 0 3 1 3 3v16c0 1 -2 3 -3 3h-65c-2 0 -3 -2 -3 -3v-16c0 -2 1 -3 3 -3h21zM178 150v-100c0 -1 1 -3 3 -3h18
c1 0 2 2 2 3v100c0 2 -1 3 -2 3h-18c-2 0 -3 -1 -3 -3zM289 50v62c0 23 19 41 42 41s42 -18 42 -41v-62c0 -1 -1 -2 -3 -2h-18c-1 0 -3 1 -3 2v22l-36 -9v-13c0 -1 -1 -2 -3 -2h-18c-1 0 -3 1 -3 2zM477 151v-101c0 -1 1 -2 3 -2h18c1 0 2 1 2 2v101c0 1 -1 2 -2 2h-18
c-2 0 -3 -1 -3 -2zM349 93v18c0 10 -7 19 -18 19c-10 0 -18 -9 -18 -19v-26z" />
    <glyph glyph-name="f" unicode="f" horiz-adv-x="367" 
d="M284 550h68c9 0 15 -6 15 -14l-11 -97c-1 -8 -7 -15 -15 -15h-58v-410c0 -9 -5 -14 -14 -14h-178c-9 0 -14 5 -14 14v410h-53c-7 0 -14 6 -14 14v97c0 9 7 15 14 15h55c5 119 64 175 182 175h87c9 0 14 -5 14 -14v-97c0 -9 -5 -15 -14 -15c-38 0 -59 -15 -64 -49z" />
    <glyph glyph-name="g" unicode="g" horiz-adv-x="625" 
d="M461 550h113c8 0 15 -7 15 -15v-484c0 -151 -137 -252 -307 -252c-85 0 -172 27 -217 67c-6 5 -8 12 -6 17l55 111c3 7 9 10 15 6c37 -30 93 -47 150 -47c65 0 104 28 104 75v44c-16 -32 -65 -53 -121 -53c-146 0 -242 105 -242 263c0 177 88 283 241 283
c67 0 131 -26 169 -66l15 36c4 9 9 15 16 15zM314 186c50 0 79 36 79 96s-29 95 -79 95s-79 -35 -79 -95s29 -96 79 -96z" />
    <glyph glyph-name="h" unicode="h" horiz-adv-x="592" 
d="M51 725h176c8 0 15 -7 15 -15v-202c27 35 75 56 129 56c120 0 191 -68 191 -184v-365c0 -8 -7 -15 -15 -15h-176c-8 0 -15 7 -14 15v314c0 40 -18 63 -49 63c-57 0 -66 -56 -66 -56v-321c0 -8 -7 -15 -15 -15h-176c-8 0 -15 7 -15 15v695c0 8 7 15 15 15z" />
    <glyph glyph-name="i" unicode="i" horiz-adv-x="280" 
d="M140 770c66 0 110 -41 110 -103c0 -59 -44 -99 -110 -99s-110 40 -110 99c0 62 44 103 110 103zM53 550h176c8 0 15 -7 15 -14v-521c0 -8 -7 -15 -15 -15h-176c-8 0 -15 7 -15 15v521c0 7 7 14 15 14z" />
    <glyph glyph-name="dotlessi" unicode="&#x131;" 
d="M454 401v61c0 22 19 41 42 41s42 -19 42 -41v-61c0 -1 -2 -3 -3 -3h-18c-2 0 -3 2 -3 3v20l-36 -8v-12c0 -1 -2 -3 -3 -3h-18c-2 0 -3 2 -3 3zM288 455v-46c0 -1 -1 -2 -1 -3c0 0 -15 -9 -37 -9c-29 0 -53 23 -53 52c0 30 24 53 53 53c13 0 26 -5 36 -13c1 -2 2 -3 0 -4
l-11 -13c-1 -1 -3 -1 -4 0c-6 5 -12 7 -19 7c-16 0 -29 -13 -29 -30c0 -16 13 -29 29 -29c4 0 8 1 13 3v9l-10 -2c-2 0 -3 1 -3 3v15c0 2 1 3 3 3l30 7c1 0 3 -1 3 -3zM23 501h44c18 0 32 -14 32 -32c0 -13 -9 -24 -21 -29l21 -38c1 -2 0 -4 -3 -4h-20c-1 0 -2 1 -2 1
l-17 35l-14 -4v-29c0 -2 -1 -3 -2 -3h-18c-2 0 -3 1 -3 3v97c0 2 1 3 3 3zM122 501h60c2 0 3 -1 3 -3v-16c0 -1 -1 -3 -3 -3h-40v-18h17c2 0 4 -1 4 -3v-17c0 -2 -2 -3 -4 -3h-17v-18h40c2 0 3 -2 3 -3v-16c0 -2 -1 -3 -3 -3h-60c-2 0 -3 1 -3 3v97c0 2 1 3 3 3zM369 501h18
c2 0 3 -1 3 -3v-60c0 -23 -19 -41 -42 -41s-42 18 -42 41v60c0 2 2 3 3 3h18c2 0 3 -1 3 -3v-59c0 -11 8 -19 18 -19c11 0 19 8 19 19v59c0 2 1 3 2 3zM618 440l21 -38c1 -2 0 -4 -2 -4h-20c-1 0 -2 1 -2 1l-18 35l-13 -4v-29c0 -2 -1 -3 -3 -3h-17c-2 0 -3 1 -3 3v97
c0 2 1 3 3 3h43c18 0 33 -14 33 -32c0 -13 -9 -23 -22 -29zM549 370v-189c0 -2 -1 -3 -3 -3h-174c-2 0 -3 1 -3 3v143c0 2 1 3 3 3h17c2 0 3 -1 3 -3v-124h135v152h-115c-2 0 -3 1 -3 2v144c0 1 1 2 3 2h17c1 0 3 -1 3 -2v-124h114c2 0 3 -2 3 -4zM43 450l22 7
c6 1 11 6 11 12s-5 11 -11 11h-22v-30zM584 450l22 7c6 2 11 6 11 12s-5 11 -11 11h-22v-30zM514 443v18c0 10 -8 18 -18 18c-11 0 -18 -8 -18 -18v-27zM115 374h274c1 0 3 -2 3 -4v-15c0 -2 -2 -3 -3 -3h-256v-152h215c1 0 2 -1 2 -3v-127h36c2 0 3 -2 3 -3v-17
c0 -1 -1 -2 -3 -2h-56c-2 0 -3 1 -3 2v128h-213c-2 0 -3 1 -3 3v189c0 2 1 3 3 3c0 1 0 1 1 1zM300 329c-29 0 -52 -24 -52 -53c0 -30 23 -53 52 -53c30 0 53 23 53 53c0 29 -23 53 -53 53zM161 327h44c17 0 32 -14 32 -32c0 -8 -3 -15 -8 -20c4 -5 7 -12 7 -19
c0 -18 -15 -32 -32 -32h-43c-2 0 -3 1 -3 3v97c0 2 1 3 3 3zM412 324v-97c0 -1 1 -3 3 -3h36c28 0 51 23 51 52c0 28 -23 51 -51 51h-36c-2 0 -3 -1 -3 -3zM181 306v-30l22 7c6 1 11 6 11 12s-5 11 -11 11h-22zM435 246v60h14c17 0 29 -13 29 -30s-12 -30 -29 -30h-14z
M300 246c-16 0 -29 14 -29 30s13 29 29 29c17 0 30 -13 30 -29s-13 -30 -30 -30zM181 245h21c6 0 11 5 11 11c0 3 -1 6 -3 8l-29 -8v-11zM532 124l12 13c1 1 1 3 -1 4c-10 9 -21 14 -36 14c-29 0 -53 -24 -53 -55c0 -30 24 -54 53 -54c14 0 26 5 37 15c1 1 1 3 0 4l-12 12
c-1 1 -3 1 -4 1c-5 -5 -13 -8 -20 -8c-17 0 -29 14 -29 31s12 31 29 31c7 0 15 -3 20 -8c1 -1 3 -1 4 0zM169 132v-82c0 -1 1 -2 2 -2h18c1 0 3 1 3 2v82h21c1 0 3 1 3 3v16c0 1 -2 3 -3 3h-65c-2 0 -3 -2 -3 -3v-16c0 -2 1 -3 3 -3h21zM111 150v-100c0 -1 1 -3 3 -3h18
c1 0 2 2 2 3v100c0 2 -1 3 -2 3h-18c-2 0 -3 -1 -3 -3zM222 50v62c0 23 19 41 42 41s42 -18 42 -41v-62c0 -1 -1 -2 -3 -2h-18c-1 0 -3 1 -3 2v22l-36 -9v-13c0 -1 -1 -2 -3 -2h-18c-1 0 -3 1 -3 2zM410 151v-101c0 -1 1 -2 3 -2h18c1 0 2 1 2 2v101c0 1 -1 2 -2 2h-18
c-2 0 -3 -1 -3 -2zM282 93v18c0 10 -7 19 -18 19c-10 0 -18 -9 -18 -19v-26z" />
    <glyph glyph-name="iacute" unicode="&#xed;" 
d="M454 401v61c0 22 19 41 42 41s42 -19 42 -41v-61c0 -1 -2 -3 -3 -3h-18c-2 0 -3 2 -3 3v20l-36 -8v-12c0 -1 -2 -3 -3 -3h-18c-2 0 -3 2 -3 3zM288 455v-46c0 -1 -1 -2 -1 -3c0 0 -15 -9 -37 -9c-29 0 -53 23 -53 52c0 30 24 53 53 53c13 0 26 -5 36 -13c1 -2 2 -3 0 -4
l-11 -13c-1 -1 -3 -1 -4 0c-6 5 -12 7 -19 7c-16 0 -29 -13 -29 -30c0 -16 13 -29 29 -29c4 0 8 1 13 3v9l-10 -2c-2 0 -3 1 -3 3v15c0 2 1 3 3 3l30 7c1 0 3 -1 3 -3zM23 501h44c18 0 32 -14 32 -32c0 -13 -9 -24 -21 -29l21 -38c1 -2 0 -4 -3 -4h-20c-1 0 -2 1 -2 1
l-17 35l-14 -4v-29c0 -2 -1 -3 -2 -3h-18c-2 0 -3 1 -3 3v97c0 2 1 3 3 3zM122 501h60c2 0 3 -1 3 -3v-16c0 -1 -1 -3 -3 -3h-40v-18h17c2 0 4 -1 4 -3v-17c0 -2 -2 -3 -4 -3h-17v-18h40c2 0 3 -2 3 -3v-16c0 -2 -1 -3 -3 -3h-60c-2 0 -3 1 -3 3v97c0 2 1 3 3 3zM369 501h18
c2 0 3 -1 3 -3v-60c0 -23 -19 -41 -42 -41s-42 18 -42 41v60c0 2 2 3 3 3h18c2 0 3 -1 3 -3v-59c0 -11 8 -19 18 -19c11 0 19 8 19 19v59c0 2 1 3 2 3zM618 440l21 -38c1 -2 0 -4 -2 -4h-20c-1 0 -2 1 -2 1l-18 35l-13 -4v-29c0 -2 -1 -3 -3 -3h-17c-2 0 -3 1 -3 3v97
c0 2 1 3 3 3h43c18 0 33 -14 33 -32c0 -13 -9 -23 -22 -29zM549 370v-189c0 -2 -1 -3 -3 -3h-174c-2 0 -3 1 -3 3v143c0 2 1 3 3 3h17c2 0 3 -1 3 -3v-124h135v152h-115c-2 0 -3 1 -3 2v144c0 1 1 2 3 2h17c1 0 3 -1 3 -2v-124h114c2 0 3 -2 3 -4zM43 450l22 7
c6 1 11 6 11 12s-5 11 -11 11h-22v-30zM584 450l22 7c6 2 11 6 11 12s-5 11 -11 11h-22v-30zM514 443v18c0 10 -8 18 -18 18c-11 0 -18 -8 -18 -18v-27zM115 374h274c1 0 3 -2 3 -4v-15c0 -2 -2 -3 -3 -3h-256v-152h215c1 0 2 -1 2 -3v-127h36c2 0 3 -2 3 -3v-17
c0 -1 -1 -2 -3 -2h-56c-2 0 -3 1 -3 2v128h-213c-2 0 -3 1 -3 3v189c0 2 1 3 3 3c0 1 0 1 1 1zM300 329c-29 0 -52 -24 -52 -53c0 -30 23 -53 52 -53c30 0 53 23 53 53c0 29 -23 53 -53 53zM161 327h44c17 0 32 -14 32 -32c0 -8 -3 -15 -8 -20c4 -5 7 -12 7 -19
c0 -18 -15 -32 -32 -32h-43c-2 0 -3 1 -3 3v97c0 2 1 3 3 3zM412 324v-97c0 -1 1 -3 3 -3h36c28 0 51 23 51 52c0 28 -23 51 -51 51h-36c-2 0 -3 -1 -3 -3zM181 306v-30l22 7c6 1 11 6 11 12s-5 11 -11 11h-22zM435 246v60h14c17 0 29 -13 29 -30s-12 -30 -29 -30h-14z
M300 246c-16 0 -29 14 -29 30s13 29 29 29c17 0 30 -13 30 -29s-13 -30 -30 -30zM181 245h21c6 0 11 5 11 11c0 3 -1 6 -3 8l-29 -8v-11zM532 124l12 13c1 1 1 3 -1 4c-10 9 -21 14 -36 14c-29 0 -53 -24 -53 -55c0 -30 24 -54 53 -54c14 0 26 5 37 15c1 1 1 3 0 4l-12 12
c-1 1 -3 1 -4 1c-5 -5 -13 -8 -20 -8c-17 0 -29 14 -29 31s12 31 29 31c7 0 15 -3 20 -8c1 -1 3 -1 4 0zM169 132v-82c0 -1 1 -2 2 -2h18c1 0 3 1 3 2v82h21c1 0 3 1 3 3v16c0 1 -2 3 -3 3h-65c-2 0 -3 -2 -3 -3v-16c0 -2 1 -3 3 -3h21zM111 150v-100c0 -1 1 -3 3 -3h18
c1 0 2 2 2 3v100c0 2 -1 3 -2 3h-18c-2 0 -3 -1 -3 -3zM222 50v62c0 23 19 41 42 41s42 -18 42 -41v-62c0 -1 -1 -2 -3 -2h-18c-1 0 -3 1 -3 2v22l-36 -9v-13c0 -1 -1 -2 -3 -2h-18c-1 0 -3 1 -3 2zM410 151v-101c0 -1 1 -2 3 -2h18c1 0 2 1 2 2v101c0 1 -1 2 -2 2h-18
c-2 0 -3 -1 -3 -2zM282 93v18c0 10 -7 19 -18 19c-10 0 -18 -9 -18 -19v-26z" />
    <glyph glyph-name="icircumflex" unicode="&#xee;" 
d="M454 401v61c0 22 19 41 42 41s42 -19 42 -41v-61c0 -1 -2 -3 -3 -3h-18c-2 0 -3 2 -3 3v20l-36 -8v-12c0 -1 -2 -3 -3 -3h-18c-2 0 -3 2 -3 3zM288 455v-46c0 -1 -1 -2 -1 -3c0 0 -15 -9 -37 -9c-29 0 -53 23 -53 52c0 30 24 53 53 53c13 0 26 -5 36 -13c1 -2 2 -3 0 -4
l-11 -13c-1 -1 -3 -1 -4 0c-6 5 -12 7 -19 7c-16 0 -29 -13 -29 -30c0 -16 13 -29 29 -29c4 0 8 1 13 3v9l-10 -2c-2 0 -3 1 -3 3v15c0 2 1 3 3 3l30 7c1 0 3 -1 3 -3zM23 501h44c18 0 32 -14 32 -32c0 -13 -9 -24 -21 -29l21 -38c1 -2 0 -4 -3 -4h-20c-1 0 -2 1 -2 1
l-17 35l-14 -4v-29c0 -2 -1 -3 -2 -3h-18c-2 0 -3 1 -3 3v97c0 2 1 3 3 3zM122 501h60c2 0 3 -1 3 -3v-16c0 -1 -1 -3 -3 -3h-40v-18h17c2 0 4 -1 4 -3v-17c0 -2 -2 -3 -4 -3h-17v-18h40c2 0 3 -2 3 -3v-16c0 -2 -1 -3 -3 -3h-60c-2 0 -3 1 -3 3v97c0 2 1 3 3 3zM369 501h18
c2 0 3 -1 3 -3v-60c0 -23 -19 -41 -42 -41s-42 18 -42 41v60c0 2 2 3 3 3h18c2 0 3 -1 3 -3v-59c0 -11 8 -19 18 -19c11 0 19 8 19 19v59c0 2 1 3 2 3zM618 440l21 -38c1 -2 0 -4 -2 -4h-20c-1 0 -2 1 -2 1l-18 35l-13 -4v-29c0 -2 -1 -3 -3 -3h-17c-2 0 -3 1 -3 3v97
c0 2 1 3 3 3h43c18 0 33 -14 33 -32c0 -13 -9 -23 -22 -29zM549 370v-189c0 -2 -1 -3 -3 -3h-174c-2 0 -3 1 -3 3v143c0 2 1 3 3 3h17c2 0 3 -1 3 -3v-124h135v152h-115c-2 0 -3 1 -3 2v144c0 1 1 2 3 2h17c1 0 3 -1 3 -2v-124h114c2 0 3 -2 3 -4zM43 450l22 7
c6 1 11 6 11 12s-5 11 -11 11h-22v-30zM584 450l22 7c6 2 11 6 11 12s-5 11 -11 11h-22v-30zM514 443v18c0 10 -8 18 -18 18c-11 0 -18 -8 -18 -18v-27zM115 374h274c1 0 3 -2 3 -4v-15c0 -2 -2 -3 -3 -3h-256v-152h215c1 0 2 -1 2 -3v-127h36c2 0 3 -2 3 -3v-17
c0 -1 -1 -2 -3 -2h-56c-2 0 -3 1 -3 2v128h-213c-2 0 -3 1 -3 3v189c0 2 1 3 3 3c0 1 0 1 1 1zM300 329c-29 0 -52 -24 -52 -53c0 -30 23 -53 52 -53c30 0 53 23 53 53c0 29 -23 53 -53 53zM161 327h44c17 0 32 -14 32 -32c0 -8 -3 -15 -8 -20c4 -5 7 -12 7 -19
c0 -18 -15 -32 -32 -32h-43c-2 0 -3 1 -3 3v97c0 2 1 3 3 3zM412 324v-97c0 -1 1 -3 3 -3h36c28 0 51 23 51 52c0 28 -23 51 -51 51h-36c-2 0 -3 -1 -3 -3zM181 306v-30l22 7c6 1 11 6 11 12s-5 11 -11 11h-22zM435 246v60h14c17 0 29 -13 29 -30s-12 -30 -29 -30h-14z
M300 246c-16 0 -29 14 -29 30s13 29 29 29c17 0 30 -13 30 -29s-13 -30 -30 -30zM181 245h21c6 0 11 5 11 11c0 3 -1 6 -3 8l-29 -8v-11zM532 124l12 13c1 1 1 3 -1 4c-10 9 -21 14 -36 14c-29 0 -53 -24 -53 -55c0 -30 24 -54 53 -54c14 0 26 5 37 15c1 1 1 3 0 4l-12 12
c-1 1 -3 1 -4 1c-5 -5 -13 -8 -20 -8c-17 0 -29 14 -29 31s12 31 29 31c7 0 15 -3 20 -8c1 -1 3 -1 4 0zM169 132v-82c0 -1 1 -2 2 -2h18c1 0 3 1 3 2v82h21c1 0 3 1 3 3v16c0 1 -2 3 -3 3h-65c-2 0 -3 -2 -3 -3v-16c0 -2 1 -3 3 -3h21zM111 150v-100c0 -1 1 -3 3 -3h18
c1 0 2 2 2 3v100c0 2 -1 3 -2 3h-18c-2 0 -3 -1 -3 -3zM222 50v62c0 23 19 41 42 41s42 -18 42 -41v-62c0 -1 -1 -2 -3 -2h-18c-1 0 -3 1 -3 2v22l-36 -9v-13c0 -1 -1 -2 -3 -2h-18c-1 0 -3 1 -3 2zM410 151v-101c0 -1 1 -2 3 -2h18c1 0 2 1 2 2v101c0 1 -1 2 -2 2h-18
c-2 0 -3 -1 -3 -2zM282 93v18c0 10 -7 19 -18 19c-10 0 -18 -9 -18 -19v-26z" />
    <glyph glyph-name="idieresis" unicode="&#xef;" 
d="M454 401v61c0 22 19 41 42 41s42 -19 42 -41v-61c0 -1 -2 -3 -3 -3h-18c-2 0 -3 2 -3 3v20l-36 -8v-12c0 -1 -2 -3 -3 -3h-18c-2 0 -3 2 -3 3zM288 455v-46c0 -1 -1 -2 -1 -3c0 0 -15 -9 -37 -9c-29 0 -53 23 -53 52c0 30 24 53 53 53c13 0 26 -5 36 -13c1 -2 2 -3 0 -4
l-11 -13c-1 -1 -3 -1 -4 0c-6 5 -12 7 -19 7c-16 0 -29 -13 -29 -30c0 -16 13 -29 29 -29c4 0 8 1 13 3v9l-10 -2c-2 0 -3 1 -3 3v15c0 2 1 3 3 3l30 7c1 0 3 -1 3 -3zM23 501h44c18 0 32 -14 32 -32c0 -13 -9 -24 -21 -29l21 -38c1 -2 0 -4 -3 -4h-20c-1 0 -2 1 -2 1
l-17 35l-14 -4v-29c0 -2 -1 -3 -2 -3h-18c-2 0 -3 1 -3 3v97c0 2 1 3 3 3zM122 501h60c2 0 3 -1 3 -3v-16c0 -1 -1 -3 -3 -3h-40v-18h17c2 0 4 -1 4 -3v-17c0 -2 -2 -3 -4 -3h-17v-18h40c2 0 3 -2 3 -3v-16c0 -2 -1 -3 -3 -3h-60c-2 0 -3 1 -3 3v97c0 2 1 3 3 3zM369 501h18
c2 0 3 -1 3 -3v-60c0 -23 -19 -41 -42 -41s-42 18 -42 41v60c0 2 2 3 3 3h18c2 0 3 -1 3 -3v-59c0 -11 8 -19 18 -19c11 0 19 8 19 19v59c0 2 1 3 2 3zM618 440l21 -38c1 -2 0 -4 -2 -4h-20c-1 0 -2 1 -2 1l-18 35l-13 -4v-29c0 -2 -1 -3 -3 -3h-17c-2 0 -3 1 -3 3v97
c0 2 1 3 3 3h43c18 0 33 -14 33 -32c0 -13 -9 -23 -22 -29zM549 370v-189c0 -2 -1 -3 -3 -3h-174c-2 0 -3 1 -3 3v143c0 2 1 3 3 3h17c2 0 3 -1 3 -3v-124h135v152h-115c-2 0 -3 1 -3 2v144c0 1 1 2 3 2h17c1 0 3 -1 3 -2v-124h114c2 0 3 -2 3 -4zM43 450l22 7
c6 1 11 6 11 12s-5 11 -11 11h-22v-30zM584 450l22 7c6 2 11 6 11 12s-5 11 -11 11h-22v-30zM514 443v18c0 10 -8 18 -18 18c-11 0 -18 -8 -18 -18v-27zM115 374h274c1 0 3 -2 3 -4v-15c0 -2 -2 -3 -3 -3h-256v-152h215c1 0 2 -1 2 -3v-127h36c2 0 3 -2 3 -3v-17
c0 -1 -1 -2 -3 -2h-56c-2 0 -3 1 -3 2v128h-213c-2 0 -3 1 -3 3v189c0 2 1 3 3 3c0 1 0 1 1 1zM300 329c-29 0 -52 -24 -52 -53c0 -30 23 -53 52 -53c30 0 53 23 53 53c0 29 -23 53 -53 53zM161 327h44c17 0 32 -14 32 -32c0 -8 -3 -15 -8 -20c4 -5 7 -12 7 -19
c0 -18 -15 -32 -32 -32h-43c-2 0 -3 1 -3 3v97c0 2 1 3 3 3zM412 324v-97c0 -1 1 -3 3 -3h36c28 0 51 23 51 52c0 28 -23 51 -51 51h-36c-2 0 -3 -1 -3 -3zM181 306v-30l22 7c6 1 11 6 11 12s-5 11 -11 11h-22zM435 246v60h14c17 0 29 -13 29 -30s-12 -30 -29 -30h-14z
M300 246c-16 0 -29 14 -29 30s13 29 29 29c17 0 30 -13 30 -29s-13 -30 -30 -30zM181 245h21c6 0 11 5 11 11c0 3 -1 6 -3 8l-29 -8v-11zM532 124l12 13c1 1 1 3 -1 4c-10 9 -21 14 -36 14c-29 0 -53 -24 -53 -55c0 -30 24 -54 53 -54c14 0 26 5 37 15c1 1 1 3 0 4l-12 12
c-1 1 -3 1 -4 1c-5 -5 -13 -8 -20 -8c-17 0 -29 14 -29 31s12 31 29 31c7 0 15 -3 20 -8c1 -1 3 -1 4 0zM169 132v-82c0 -1 1 -2 2 -2h18c1 0 3 1 3 2v82h21c1 0 3 1 3 3v16c0 1 -2 3 -3 3h-65c-2 0 -3 -2 -3 -3v-16c0 -2 1 -3 3 -3h21zM111 150v-100c0 -1 1 -3 3 -3h18
c1 0 2 2 2 3v100c0 2 -1 3 -2 3h-18c-2 0 -3 -1 -3 -3zM222 50v62c0 23 19 41 42 41s42 -18 42 -41v-62c0 -1 -1 -2 -3 -2h-18c-1 0 -3 1 -3 2v22l-36 -9v-13c0 -1 -1 -2 -3 -2h-18c-1 0 -3 1 -3 2zM410 151v-101c0 -1 1 -2 3 -2h18c1 0 2 1 2 2v101c0 1 -1 2 -2 2h-18
c-2 0 -3 -1 -3 -2zM282 93v18c0 10 -7 19 -18 19c-10 0 -18 -9 -18 -19v-26z" />
    <glyph glyph-name="igrave" unicode="&#xec;" 
d="M454 401v61c0 22 19 41 42 41s42 -19 42 -41v-61c0 -1 -2 -3 -3 -3h-18c-2 0 -3 2 -3 3v20l-36 -8v-12c0 -1 -2 -3 -3 -3h-18c-2 0 -3 2 -3 3zM288 455v-46c0 -1 -1 -2 -1 -3c0 0 -15 -9 -37 -9c-29 0 -53 23 -53 52c0 30 24 53 53 53c13 0 26 -5 36 -13c1 -2 2 -3 0 -4
l-11 -13c-1 -1 -3 -1 -4 0c-6 5 -12 7 -19 7c-16 0 -29 -13 -29 -30c0 -16 13 -29 29 -29c4 0 8 1 13 3v9l-10 -2c-2 0 -3 1 -3 3v15c0 2 1 3 3 3l30 7c1 0 3 -1 3 -3zM23 501h44c18 0 32 -14 32 -32c0 -13 -9 -24 -21 -29l21 -38c1 -2 0 -4 -3 -4h-20c-1 0 -2 1 -2 1
l-17 35l-14 -4v-29c0 -2 -1 -3 -2 -3h-18c-2 0 -3 1 -3 3v97c0 2 1 3 3 3zM122 501h60c2 0 3 -1 3 -3v-16c0 -1 -1 -3 -3 -3h-40v-18h17c2 0 4 -1 4 -3v-17c0 -2 -2 -3 -4 -3h-17v-18h40c2 0 3 -2 3 -3v-16c0 -2 -1 -3 -3 -3h-60c-2 0 -3 1 -3 3v97c0 2 1 3 3 3zM369 501h18
c2 0 3 -1 3 -3v-60c0 -23 -19 -41 -42 -41s-42 18 -42 41v60c0 2 2 3 3 3h18c2 0 3 -1 3 -3v-59c0 -11 8 -19 18 -19c11 0 19 8 19 19v59c0 2 1 3 2 3zM618 440l21 -38c1 -2 0 -4 -2 -4h-20c-1 0 -2 1 -2 1l-18 35l-13 -4v-29c0 -2 -1 -3 -3 -3h-17c-2 0 -3 1 -3 3v97
c0 2 1 3 3 3h43c18 0 33 -14 33 -32c0 -13 -9 -23 -22 -29zM549 370v-189c0 -2 -1 -3 -3 -3h-174c-2 0 -3 1 -3 3v143c0 2 1 3 3 3h17c2 0 3 -1 3 -3v-124h135v152h-115c-2 0 -3 1 -3 2v144c0 1 1 2 3 2h17c1 0 3 -1 3 -2v-124h114c2 0 3 -2 3 -4zM43 450l22 7
c6 1 11 6 11 12s-5 11 -11 11h-22v-30zM584 450l22 7c6 2 11 6 11 12s-5 11 -11 11h-22v-30zM514 443v18c0 10 -8 18 -18 18c-11 0 -18 -8 -18 -18v-27zM115 374h274c1 0 3 -2 3 -4v-15c0 -2 -2 -3 -3 -3h-256v-152h215c1 0 2 -1 2 -3v-127h36c2 0 3 -2 3 -3v-17
c0 -1 -1 -2 -3 -2h-56c-2 0 -3 1 -3 2v128h-213c-2 0 -3 1 -3 3v189c0 2 1 3 3 3c0 1 0 1 1 1zM300 329c-29 0 -52 -24 -52 -53c0 -30 23 -53 52 -53c30 0 53 23 53 53c0 29 -23 53 -53 53zM161 327h44c17 0 32 -14 32 -32c0 -8 -3 -15 -8 -20c4 -5 7 -12 7 -19
c0 -18 -15 -32 -32 -32h-43c-2 0 -3 1 -3 3v97c0 2 1 3 3 3zM412 324v-97c0 -1 1 -3 3 -3h36c28 0 51 23 51 52c0 28 -23 51 -51 51h-36c-2 0 -3 -1 -3 -3zM181 306v-30l22 7c6 1 11 6 11 12s-5 11 -11 11h-22zM435 246v60h14c17 0 29 -13 29 -30s-12 -30 -29 -30h-14z
M300 246c-16 0 -29 14 -29 30s13 29 29 29c17 0 30 -13 30 -29s-13 -30 -30 -30zM181 245h21c6 0 11 5 11 11c0 3 -1 6 -3 8l-29 -8v-11zM532 124l12 13c1 1 1 3 -1 4c-10 9 -21 14 -36 14c-29 0 -53 -24 -53 -55c0 -30 24 -54 53 -54c14 0 26 5 37 15c1 1 1 3 0 4l-12 12
c-1 1 -3 1 -4 1c-5 -5 -13 -8 -20 -8c-17 0 -29 14 -29 31s12 31 29 31c7 0 15 -3 20 -8c1 -1 3 -1 4 0zM169 132v-82c0 -1 1 -2 2 -2h18c1 0 3 1 3 2v82h21c1 0 3 1 3 3v16c0 1 -2 3 -3 3h-65c-2 0 -3 -2 -3 -3v-16c0 -2 1 -3 3 -3h21zM111 150v-100c0 -1 1 -3 3 -3h18
c1 0 2 2 2 3v100c0 2 -1 3 -2 3h-18c-2 0 -3 -1 -3 -3zM222 50v62c0 23 19 41 42 41s42 -18 42 -41v-62c0 -1 -1 -2 -3 -2h-18c-1 0 -3 1 -3 2v22l-36 -9v-13c0 -1 -1 -2 -3 -2h-18c-1 0 -3 1 -3 2zM410 151v-101c0 -1 1 -2 3 -2h18c1 0 2 1 2 2v101c0 1 -1 2 -2 2h-18
c-2 0 -3 -1 -3 -2zM282 93v18c0 10 -7 19 -18 19c-10 0 -18 -9 -18 -19v-26z" />
    <glyph glyph-name="j" unicode="j" horiz-adv-x="280" 
d="M140 770c66 0 110 -41 110 -103c0 -59 -44 -99 -110 -99s-110 40 -110 99c0 62 44 103 110 103zM53 551h176c8 0 15 -7 15 -15v-473c0 -123 -63 -224 -170 -272c-8 -4 -14 -3 -19 5l-81 127c-5 7 -2 15 6 23c36 34 58 76 58 114v476c0 8 7 15 15 15z" />
    <glyph glyph-name="k" unicode="k" horiz-adv-x="610" 
d="M51 725h176c8 0 15 -7 15 -14v-332l93 159c4 7 14 12 23 12h200c8 0 11 -5 7 -12l-148 -245l181 -281c5 -7 1 -12 -7 -12h-213c-7 0 -17 5 -21 12l-115 198v-195c0 -8 -7 -15 -15 -15h-176c-8 0 -15 7 -15 15v696c0 7 7 14 15 14z" />
    <glyph glyph-name="l" unicode="l" horiz-adv-x="278" 
d="M51 725h176c8 0 15 -7 15 -14v-696c0 -8 -7 -15 -15 -15h-176c-8 0 -15 7 -15 15v696c0 7 7 14 15 14z" />
    <glyph glyph-name="m" unicode="m" horiz-adv-x="913" 
d="M196 540l8 -20c33 28 85 44 144 44c72 0 127 -29 149 -79c39 50 103 79 173 79c134 0 213 -82 213 -220v-330c0 -9 -5 -14 -14 -14h-178c-9 0 -14 5 -14 14v300c-2 40 -19 63 -49 63c-57 0 -66 -56 -65 -56v-307c0 -9 -5 -14 -14 -14h-178c-9 0 -14 5 -14 14v300
c0 43 -19 63 -49 63c-57 0 -66 -56 -66 -56v-307c0 -9 -5 -14 -14 -14h-178c-9 0 -14 5 -14 14v522c0 9 5 14 14 14h130c7 0 13 -3 16 -10z" />
    <glyph glyph-name="n" unicode="n" horiz-adv-x="592" 
d="M196 540l8 -20c35 28 95 44 148 44c136 0 210 -63 210 -219v-330c0 -8 -7 -15 -15 -15h-176c-8 0 -15 7 -14 15v299c0 40 -18 63 -49 63c-57 0 -66 -56 -66 -56v-306c0 -8 -7 -15 -15 -15h-176c-8 0 -15 7 -15 15v521c0 9 5 14 14 14h130c7 0 13 -3 16 -10z" />
    <glyph glyph-name="ntilde" unicode="&#xf1;" horiz-adv-x="736" 
d="M530 401v61c0 22 19 41 42 41s42 -19 42 -41v-61c0 -1 -2 -3 -3 -3h-18c-2 0 -3 2 -3 3v20l-36 -8v-12c0 -1 -2 -3 -3 -3h-18c-2 0 -3 2 -3 3zM364 455v-46c0 -1 -1 -2 -1 -3c0 0 -15 -9 -37 -9c-29 0 -53 23 -53 52c0 30 24 53 53 53c13 0 26 -5 36 -13c1 -2 2 -3 0 -4
l-11 -13c-1 -1 -3 -1 -4 0c-6 5 -12 7 -19 7c-16 0 -29 -13 -29 -30c0 -16 13 -29 29 -29c4 0 8 1 13 3v9l-10 -2c-2 0 -3 1 -3 3v15c0 2 1 3 3 3l30 7c1 0 3 -1 3 -3zM99 501h44c18 0 32 -14 32 -32c0 -13 -9 -24 -21 -29l21 -38c1 -2 0 -4 -3 -4h-20c-1 0 -2 1 -2 1
l-17 35l-14 -4v-29c0 -2 -1 -3 -2 -3h-18c-2 0 -3 1 -3 3v97c0 2 1 3 3 3zM198 501h60c2 0 3 -1 3 -3v-16c0 -1 -1 -3 -3 -3h-40v-18h17c2 0 4 -1 4 -3v-17c0 -2 -2 -3 -4 -3h-17v-18h40c2 0 3 -2 3 -3v-16c0 -2 -1 -3 -3 -3h-60c-2 0 -3 1 -3 3v97c0 2 1 3 3 3zM445 501h18
c2 0 3 -1 3 -3v-60c0 -23 -19 -41 -42 -41s-42 18 -42 41v60c0 2 2 3 3 3h18c2 0 3 -1 3 -3v-59c0 -11 8 -19 18 -19c11 0 19 8 19 19v59c0 2 1 3 2 3zM694 440l21 -38c1 -2 0 -4 -2 -4h-20c-1 0 -2 1 -2 1l-18 35l-13 -4v-29c0 -2 -1 -3 -3 -3h-17c-2 0 -3 1 -3 3v97
c0 2 1 3 3 3h43c18 0 33 -14 33 -32c0 -13 -9 -23 -22 -29zM625 370v-189c0 -2 -1 -3 -3 -3h-174c-2 0 -3 1 -3 3v143c0 2 1 3 3 3h17c2 0 3 -1 3 -3v-124h135v152h-115c-2 0 -3 1 -3 2v144c0 1 1 2 3 2h17c1 0 3 -1 3 -2v-124h114c2 0 3 -2 3 -4zM119 450l22 7
c6 1 11 6 11 12s-5 11 -11 11h-22v-30zM660 450l22 7c6 2 11 6 11 12s-5 11 -11 11h-22v-30zM590 443v18c0 10 -8 18 -18 18c-11 0 -18 -8 -18 -18v-27zM191 374h274c1 0 3 -2 3 -4v-15c0 -2 -2 -3 -3 -3h-256v-152h215c1 0 2 -1 2 -3v-127h36c2 0 3 -2 3 -3v-17
c0 -1 -1 -2 -3 -2h-56c-2 0 -3 1 -3 2v128h-213c-2 0 -3 1 -3 3v189c0 2 1 3 3 3c0 1 0 1 1 1zM376 329c-29 0 -52 -24 -52 -53c0 -30 23 -53 52 -53c30 0 53 23 53 53c0 29 -23 53 -53 53zM237 327h44c17 0 32 -14 32 -32c0 -8 -3 -15 -8 -20c4 -5 7 -12 7 -19
c0 -18 -15 -32 -32 -32h-43c-2 0 -3 1 -3 3v97c0 2 1 3 3 3zM488 324v-97c0 -1 1 -3 3 -3h36c28 0 51 23 51 52c0 28 -23 51 -51 51h-36c-2 0 -3 -1 -3 -3zM257 306v-30l22 7c6 1 11 6 11 12s-5 11 -11 11h-22zM511 246v60h14c17 0 29 -13 29 -30s-12 -30 -29 -30h-14z
M376 246c-16 0 -29 14 -29 30s13 29 29 29c17 0 30 -13 30 -29s-13 -30 -30 -30zM257 245h21c6 0 11 5 11 11c0 3 -1 6 -3 8l-29 -8v-11zM608 124l12 13c1 1 1 3 -1 4c-10 9 -21 14 -36 14c-29 0 -53 -24 -53 -55c0 -30 24 -54 53 -54c14 0 26 5 37 15c1 1 1 3 0 4l-12 12
c-1 1 -3 1 -4 1c-5 -5 -13 -8 -20 -8c-17 0 -29 14 -29 31s12 31 29 31c7 0 15 -3 20 -8c1 -1 3 -1 4 0zM245 132v-82c0 -1 1 -2 2 -2h18c1 0 3 1 3 2v82h21c1 0 3 1 3 3v16c0 1 -2 3 -3 3h-65c-2 0 -3 -2 -3 -3v-16c0 -2 1 -3 3 -3h21zM187 150v-100c0 -1 1 -3 3 -3h18
c1 0 2 2 2 3v100c0 2 -1 3 -2 3h-18c-2 0 -3 -1 -3 -3zM298 50v62c0 23 19 41 42 41s42 -18 42 -41v-62c0 -1 -1 -2 -3 -2h-18c-1 0 -3 1 -3 2v22l-36 -9v-13c0 -1 -1 -2 -3 -2h-18c-1 0 -3 1 -3 2zM486 151v-101c0 -1 1 -2 3 -2h18c1 0 2 1 2 2v101c0 1 -1 2 -2 2h-18
c-2 0 -3 -1 -3 -2zM358 93v18c0 10 -7 19 -18 19c-10 0 -18 -9 -18 -19v-26z" />
    <glyph glyph-name="o" unicode="o" horiz-adv-x="620" 
d="M310 -15c-174 0 -290 116 -290 290s116 290 290 290s290 -116 290 -290s-116 -290 -290 -290zM310 385c-49 0 -82 -44 -82 -110s33 -110 82 -110s82 44 82 110s-33 110 -82 110z" />
    <glyph glyph-name="oacute" unicode="&#xf3;" horiz-adv-x="719" 
d="M513 401v61c0 22 19 41 42 41s42 -19 42 -41v-61c0 -1 -2 -3 -3 -3h-18c-2 0 -3 2 -3 3v20l-36 -8v-12c0 -1 -2 -3 -3 -3h-18c-2 0 -3 2 -3 3zM347 455v-46c0 -1 -1 -2 -1 -3c0 0 -15 -9 -37 -9c-29 0 -53 23 -53 52c0 30 24 53 53 53c13 0 26 -5 36 -13c1 -2 2 -3 0 -4
l-11 -13c-1 -1 -3 -1 -4 0c-6 5 -12 7 -19 7c-16 0 -29 -13 -29 -30c0 -16 13 -29 29 -29c4 0 8 1 13 3v9l-10 -2c-2 0 -3 1 -3 3v15c0 2 1 3 3 3l30 7c1 0 3 -1 3 -3zM82 501h44c18 0 32 -14 32 -32c0 -13 -9 -24 -21 -29l21 -38c1 -2 0 -4 -3 -4h-20c-1 0 -2 1 -2 1
l-17 35l-14 -4v-29c0 -2 -1 -3 -2 -3h-18c-2 0 -3 1 -3 3v97c0 2 1 3 3 3zM181 501h60c2 0 3 -1 3 -3v-16c0 -1 -1 -3 -3 -3h-40v-18h17c2 0 4 -1 4 -3v-17c0 -2 -2 -3 -4 -3h-17v-18h40c2 0 3 -2 3 -3v-16c0 -2 -1 -3 -3 -3h-60c-2 0 -3 1 -3 3v97c0 2 1 3 3 3zM428 501h18
c2 0 3 -1 3 -3v-60c0 -23 -19 -41 -42 -41s-42 18 -42 41v60c0 2 2 3 3 3h18c2 0 3 -1 3 -3v-59c0 -11 8 -19 18 -19c11 0 19 8 19 19v59c0 2 1 3 2 3zM677 440l21 -38c1 -2 0 -4 -2 -4h-20c-1 0 -2 1 -2 1l-18 35l-13 -4v-29c0 -2 -1 -3 -3 -3h-17c-2 0 -3 1 -3 3v97
c0 2 1 3 3 3h43c18 0 33 -14 33 -32c0 -13 -9 -23 -22 -29zM608 370v-189c0 -2 -1 -3 -3 -3h-174c-2 0 -3 1 -3 3v143c0 2 1 3 3 3h17c2 0 3 -1 3 -3v-124h135v152h-115c-2 0 -3 1 -3 2v144c0 1 1 2 3 2h17c1 0 3 -1 3 -2v-124h114c2 0 3 -2 3 -4zM102 450l22 7
c6 1 11 6 11 12s-5 11 -11 11h-22v-30zM643 450l22 7c6 2 11 6 11 12s-5 11 -11 11h-22v-30zM573 443v18c0 10 -8 18 -18 18c-11 0 -18 -8 -18 -18v-27zM174 374h274c1 0 3 -2 3 -4v-15c0 -2 -2 -3 -3 -3h-256v-152h215c1 0 2 -1 2 -3v-127h36c2 0 3 -2 3 -3v-17
c0 -1 -1 -2 -3 -2h-56c-2 0 -3 1 -3 2v128h-213c-2 0 -3 1 -3 3v189c0 2 1 3 3 3c0 1 0 1 1 1zM359 329c-29 0 -52 -24 -52 -53c0 -30 23 -53 52 -53c30 0 53 23 53 53c0 29 -23 53 -53 53zM220 327h44c17 0 32 -14 32 -32c0 -8 -3 -15 -8 -20c4 -5 7 -12 7 -19
c0 -18 -15 -32 -32 -32h-43c-2 0 -3 1 -3 3v97c0 2 1 3 3 3zM471 324v-97c0 -1 1 -3 3 -3h36c28 0 51 23 51 52c0 28 -23 51 -51 51h-36c-2 0 -3 -1 -3 -3zM240 306v-30l22 7c6 1 11 6 11 12s-5 11 -11 11h-22zM494 246v60h14c17 0 29 -13 29 -30s-12 -30 -29 -30h-14z
M359 246c-16 0 -29 14 -29 30s13 29 29 29c17 0 30 -13 30 -29s-13 -30 -30 -30zM240 245h21c6 0 11 5 11 11c0 3 -1 6 -3 8l-29 -8v-11zM591 124l12 13c1 1 1 3 -1 4c-10 9 -21 14 -36 14c-29 0 -53 -24 -53 -55c0 -30 24 -54 53 -54c14 0 26 5 37 15c1 1 1 3 0 4l-12 12
c-1 1 -3 1 -4 1c-5 -5 -13 -8 -20 -8c-17 0 -29 14 -29 31s12 31 29 31c7 0 15 -3 20 -8c1 -1 3 -1 4 0zM228 132v-82c0 -1 1 -2 2 -2h18c1 0 3 1 3 2v82h21c1 0 3 1 3 3v16c0 1 -2 3 -3 3h-65c-2 0 -3 -2 -3 -3v-16c0 -2 1 -3 3 -3h21zM170 150v-100c0 -1 1 -3 3 -3h18
c1 0 2 2 2 3v100c0 2 -1 3 -2 3h-18c-2 0 -3 -1 -3 -3zM281 50v62c0 23 19 41 42 41s42 -18 42 -41v-62c0 -1 -1 -2 -3 -2h-18c-1 0 -3 1 -3 2v22l-36 -9v-13c0 -1 -1 -2 -3 -2h-18c-1 0 -3 1 -3 2zM469 151v-101c0 -1 1 -2 3 -2h18c1 0 2 1 2 2v101c0 1 -1 2 -2 2h-18
c-2 0 -3 -1 -3 -2zM341 93v18c0 10 -7 19 -18 19c-10 0 -18 -9 -18 -19v-26z" />
    <glyph glyph-name="ocircumflex" unicode="&#xf4;" horiz-adv-x="733" 
d="M527 401v61c0 22 19 41 42 41s42 -19 42 -41v-61c0 -1 -2 -3 -3 -3h-18c-2 0 -3 2 -3 3v20l-36 -8v-12c0 -1 -2 -3 -3 -3h-18c-2 0 -3 2 -3 3zM361 455v-46c0 -1 -1 -2 -1 -3c0 0 -15 -9 -37 -9c-29 0 -53 23 -53 52c0 30 24 53 53 53c13 0 26 -5 36 -13c1 -2 2 -3 0 -4
l-11 -13c-1 -1 -3 -1 -4 0c-6 5 -12 7 -19 7c-16 0 -29 -13 -29 -30c0 -16 13 -29 29 -29c4 0 8 1 13 3v9l-10 -2c-2 0 -3 1 -3 3v15c0 2 1 3 3 3l30 7c1 0 3 -1 3 -3zM96 501h44c18 0 32 -14 32 -32c0 -13 -9 -24 -21 -29l21 -38c1 -2 0 -4 -3 -4h-20c-1 0 -2 1 -2 1
l-17 35l-14 -4v-29c0 -2 -1 -3 -2 -3h-18c-2 0 -3 1 -3 3v97c0 2 1 3 3 3zM195 501h60c2 0 3 -1 3 -3v-16c0 -1 -1 -3 -3 -3h-40v-18h17c2 0 4 -1 4 -3v-17c0 -2 -2 -3 -4 -3h-17v-18h40c2 0 3 -2 3 -3v-16c0 -2 -1 -3 -3 -3h-60c-2 0 -3 1 -3 3v97c0 2 1 3 3 3zM442 501h18
c2 0 3 -1 3 -3v-60c0 -23 -19 -41 -42 -41s-42 18 -42 41v60c0 2 2 3 3 3h18c2 0 3 -1 3 -3v-59c0 -11 8 -19 18 -19c11 0 19 8 19 19v59c0 2 1 3 2 3zM691 440l21 -38c1 -2 0 -4 -2 -4h-20c-1 0 -2 1 -2 1l-18 35l-13 -4v-29c0 -2 -1 -3 -3 -3h-17c-2 0 -3 1 -3 3v97
c0 2 1 3 3 3h43c18 0 33 -14 33 -32c0 -13 -9 -23 -22 -29zM622 370v-189c0 -2 -1 -3 -3 -3h-174c-2 0 -3 1 -3 3v143c0 2 1 3 3 3h17c2 0 3 -1 3 -3v-124h135v152h-115c-2 0 -3 1 -3 2v144c0 1 1 2 3 2h17c1 0 3 -1 3 -2v-124h114c2 0 3 -2 3 -4zM116 450l22 7
c6 1 11 6 11 12s-5 11 -11 11h-22v-30zM657 450l22 7c6 2 11 6 11 12s-5 11 -11 11h-22v-30zM587 443v18c0 10 -8 18 -18 18c-11 0 -18 -8 -18 -18v-27zM188 374h274c1 0 3 -2 3 -4v-15c0 -2 -2 -3 -3 -3h-256v-152h215c1 0 2 -1 2 -3v-127h36c2 0 3 -2 3 -3v-17
c0 -1 -1 -2 -3 -2h-56c-2 0 -3 1 -3 2v128h-213c-2 0 -3 1 -3 3v189c0 2 1 3 3 3c0 1 0 1 1 1zM373 329c-29 0 -52 -24 -52 -53c0 -30 23 -53 52 -53c30 0 53 23 53 53c0 29 -23 53 -53 53zM234 327h44c17 0 32 -14 32 -32c0 -8 -3 -15 -8 -20c4 -5 7 -12 7 -19
c0 -18 -15 -32 -32 -32h-43c-2 0 -3 1 -3 3v97c0 2 1 3 3 3zM485 324v-97c0 -1 1 -3 3 -3h36c28 0 51 23 51 52c0 28 -23 51 -51 51h-36c-2 0 -3 -1 -3 -3zM254 306v-30l22 7c6 1 11 6 11 12s-5 11 -11 11h-22zM508 246v60h14c17 0 29 -13 29 -30s-12 -30 -29 -30h-14z
M373 246c-16 0 -29 14 -29 30s13 29 29 29c17 0 30 -13 30 -29s-13 -30 -30 -30zM254 245h21c6 0 11 5 11 11c0 3 -1 6 -3 8l-29 -8v-11zM605 124l12 13c1 1 1 3 -1 4c-10 9 -21 14 -36 14c-29 0 -53 -24 -53 -55c0 -30 24 -54 53 -54c14 0 26 5 37 15c1 1 1 3 0 4l-12 12
c-1 1 -3 1 -4 1c-5 -5 -13 -8 -20 -8c-17 0 -29 14 -29 31s12 31 29 31c7 0 15 -3 20 -8c1 -1 3 -1 4 0zM242 132v-82c0 -1 1 -2 2 -2h18c1 0 3 1 3 2v82h21c1 0 3 1 3 3v16c0 1 -2 3 -3 3h-65c-2 0 -3 -2 -3 -3v-16c0 -2 1 -3 3 -3h21zM184 150v-100c0 -1 1 -3 3 -3h18
c1 0 2 2 2 3v100c0 2 -1 3 -2 3h-18c-2 0 -3 -1 -3 -3zM295 50v62c0 23 19 41 42 41s42 -18 42 -41v-62c0 -1 -1 -2 -3 -2h-18c-1 0 -3 1 -3 2v22l-36 -9v-13c0 -1 -1 -2 -3 -2h-18c-1 0 -3 1 -3 2zM483 151v-101c0 -1 1 -2 3 -2h18c1 0 2 1 2 2v101c0 1 -1 2 -2 2h-18
c-2 0 -3 -1 -3 -2zM355 93v18c0 10 -7 19 -18 19c-10 0 -18 -9 -18 -19v-26z" />
    <glyph glyph-name="odieresis" unicode="&#xf6;" horiz-adv-x="707" 
d="M501 401v61c0 22 19 41 42 41s42 -19 42 -41v-61c0 -1 -2 -3 -3 -3h-18c-2 0 -3 2 -3 3v20l-36 -8v-12c0 -1 -2 -3 -3 -3h-18c-2 0 -3 2 -3 3zM335 455v-46c0 -1 -1 -2 -1 -3c0 0 -15 -9 -37 -9c-29 0 -53 23 -53 52c0 30 24 53 53 53c13 0 26 -5 36 -13c1 -2 2 -3 0 -4
l-11 -13c-1 -1 -3 -1 -4 0c-6 5 -12 7 -19 7c-16 0 -29 -13 -29 -30c0 -16 13 -29 29 -29c4 0 8 1 13 3v9l-10 -2c-2 0 -3 1 -3 3v15c0 2 1 3 3 3l30 7c1 0 3 -1 3 -3zM70 501h44c18 0 32 -14 32 -32c0 -13 -9 -24 -21 -29l21 -38c1 -2 0 -4 -3 -4h-20c-1 0 -2 1 -2 1
l-17 35l-14 -4v-29c0 -2 -1 -3 -2 -3h-18c-2 0 -3 1 -3 3v97c0 2 1 3 3 3zM169 501h60c2 0 3 -1 3 -3v-16c0 -1 -1 -3 -3 -3h-40v-18h17c2 0 4 -1 4 -3v-17c0 -2 -2 -3 -4 -3h-17v-18h40c2 0 3 -2 3 -3v-16c0 -2 -1 -3 -3 -3h-60c-2 0 -3 1 -3 3v97c0 2 1 3 3 3zM416 501h18
c2 0 3 -1 3 -3v-60c0 -23 -19 -41 -42 -41s-42 18 -42 41v60c0 2 2 3 3 3h18c2 0 3 -1 3 -3v-59c0 -11 8 -19 18 -19c11 0 19 8 19 19v59c0 2 1 3 2 3zM665 440l21 -38c1 -2 0 -4 -2 -4h-20c-1 0 -2 1 -2 1l-18 35l-13 -4v-29c0 -2 -1 -3 -3 -3h-17c-2 0 -3 1 -3 3v97
c0 2 1 3 3 3h43c18 0 33 -14 33 -32c0 -13 -9 -23 -22 -29zM596 370v-189c0 -2 -1 -3 -3 -3h-174c-2 0 -3 1 -3 3v143c0 2 1 3 3 3h17c2 0 3 -1 3 -3v-124h135v152h-115c-2 0 -3 1 -3 2v144c0 1 1 2 3 2h17c1 0 3 -1 3 -2v-124h114c2 0 3 -2 3 -4zM90 450l22 7
c6 1 11 6 11 12s-5 11 -11 11h-22v-30zM631 450l22 7c6 2 11 6 11 12s-5 11 -11 11h-22v-30zM561 443v18c0 10 -8 18 -18 18c-11 0 -18 -8 -18 -18v-27zM162 374h274c1 0 3 -2 3 -4v-15c0 -2 -2 -3 -3 -3h-256v-152h215c1 0 2 -1 2 -3v-127h36c2 0 3 -2 3 -3v-17
c0 -1 -1 -2 -3 -2h-56c-2 0 -3 1 -3 2v128h-213c-2 0 -3 1 -3 3v189c0 2 1 3 3 3c0 1 0 1 1 1zM347 329c-29 0 -52 -24 -52 -53c0 -30 23 -53 52 -53c30 0 53 23 53 53c0 29 -23 53 -53 53zM208 327h44c17 0 32 -14 32 -32c0 -8 -3 -15 -8 -20c4 -5 7 -12 7 -19
c0 -18 -15 -32 -32 -32h-43c-2 0 -3 1 -3 3v97c0 2 1 3 3 3zM459 324v-97c0 -1 1 -3 3 -3h36c28 0 51 23 51 52c0 28 -23 51 -51 51h-36c-2 0 -3 -1 -3 -3zM228 306v-30l22 7c6 1 11 6 11 12s-5 11 -11 11h-22zM482 246v60h14c17 0 29 -13 29 -30s-12 -30 -29 -30h-14z
M347 246c-16 0 -29 14 -29 30s13 29 29 29c17 0 30 -13 30 -29s-13 -30 -30 -30zM228 245h21c6 0 11 5 11 11c0 3 -1 6 -3 8l-29 -8v-11zM579 124l12 13c1 1 1 3 -1 4c-10 9 -21 14 -36 14c-29 0 -53 -24 -53 -55c0 -30 24 -54 53 -54c14 0 26 5 37 15c1 1 1 3 0 4l-12 12
c-1 1 -3 1 -4 1c-5 -5 -13 -8 -20 -8c-17 0 -29 14 -29 31s12 31 29 31c7 0 15 -3 20 -8c1 -1 3 -1 4 0zM216 132v-82c0 -1 1 -2 2 -2h18c1 0 3 1 3 2v82h21c1 0 3 1 3 3v16c0 1 -2 3 -3 3h-65c-2 0 -3 -2 -3 -3v-16c0 -2 1 -3 3 -3h21zM158 150v-100c0 -1 1 -3 3 -3h18
c1 0 2 2 2 3v100c0 2 -1 3 -2 3h-18c-2 0 -3 -1 -3 -3zM269 50v62c0 23 19 41 42 41s42 -18 42 -41v-62c0 -1 -1 -2 -3 -2h-18c-1 0 -3 1 -3 2v22l-36 -9v-13c0 -1 -1 -2 -3 -2h-18c-1 0 -3 1 -3 2zM457 151v-101c0 -1 1 -2 3 -2h18c1 0 2 1 2 2v101c0 1 -1 2 -2 2h-18
c-2 0 -3 -1 -3 -2zM329 93v18c0 10 -7 19 -18 19c-10 0 -18 -9 -18 -19v-26z" />
    <glyph glyph-name="ograve" unicode="&#xf2;" horiz-adv-x="733" 
d="M527 401v61c0 22 19 41 42 41s42 -19 42 -41v-61c0 -1 -2 -3 -3 -3h-18c-2 0 -3 2 -3 3v20l-36 -8v-12c0 -1 -2 -3 -3 -3h-18c-2 0 -3 2 -3 3zM361 455v-46c0 -1 -1 -2 -1 -3c0 0 -15 -9 -37 -9c-29 0 -53 23 -53 52c0 30 24 53 53 53c13 0 26 -5 36 -13c1 -2 2 -3 0 -4
l-11 -13c-1 -1 -3 -1 -4 0c-6 5 -12 7 -19 7c-16 0 -29 -13 -29 -30c0 -16 13 -29 29 -29c4 0 8 1 13 3v9l-10 -2c-2 0 -3 1 -3 3v15c0 2 1 3 3 3l30 7c1 0 3 -1 3 -3zM96 501h44c18 0 32 -14 32 -32c0 -13 -9 -24 -21 -29l21 -38c1 -2 0 -4 -3 -4h-20c-1 0 -2 1 -2 1
l-17 35l-14 -4v-29c0 -2 -1 -3 -2 -3h-18c-2 0 -3 1 -3 3v97c0 2 1 3 3 3zM195 501h60c2 0 3 -1 3 -3v-16c0 -1 -1 -3 -3 -3h-40v-18h17c2 0 4 -1 4 -3v-17c0 -2 -2 -3 -4 -3h-17v-18h40c2 0 3 -2 3 -3v-16c0 -2 -1 -3 -3 -3h-60c-2 0 -3 1 -3 3v97c0 2 1 3 3 3zM442 501h18
c2 0 3 -1 3 -3v-60c0 -23 -19 -41 -42 -41s-42 18 -42 41v60c0 2 2 3 3 3h18c2 0 3 -1 3 -3v-59c0 -11 8 -19 18 -19c11 0 19 8 19 19v59c0 2 1 3 2 3zM691 440l21 -38c1 -2 0 -4 -2 -4h-20c-1 0 -2 1 -2 1l-18 35l-13 -4v-29c0 -2 -1 -3 -3 -3h-17c-2 0 -3 1 -3 3v97
c0 2 1 3 3 3h43c18 0 33 -14 33 -32c0 -13 -9 -23 -22 -29zM622 370v-189c0 -2 -1 -3 -3 -3h-174c-2 0 -3 1 -3 3v143c0 2 1 3 3 3h17c2 0 3 -1 3 -3v-124h135v152h-115c-2 0 -3 1 -3 2v144c0 1 1 2 3 2h17c1 0 3 -1 3 -2v-124h114c2 0 3 -2 3 -4zM116 450l22 7
c6 1 11 6 11 12s-5 11 -11 11h-22v-30zM657 450l22 7c6 2 11 6 11 12s-5 11 -11 11h-22v-30zM587 443v18c0 10 -8 18 -18 18c-11 0 -18 -8 -18 -18v-27zM188 374h274c1 0 3 -2 3 -4v-15c0 -2 -2 -3 -3 -3h-256v-152h215c1 0 2 -1 2 -3v-127h36c2 0 3 -2 3 -3v-17
c0 -1 -1 -2 -3 -2h-56c-2 0 -3 1 -3 2v128h-213c-2 0 -3 1 -3 3v189c0 2 1 3 3 3c0 1 0 1 1 1zM373 329c-29 0 -52 -24 -52 -53c0 -30 23 -53 52 -53c30 0 53 23 53 53c0 29 -23 53 -53 53zM234 327h44c17 0 32 -14 32 -32c0 -8 -3 -15 -8 -20c4 -5 7 -12 7 -19
c0 -18 -15 -32 -32 -32h-43c-2 0 -3 1 -3 3v97c0 2 1 3 3 3zM485 324v-97c0 -1 1 -3 3 -3h36c28 0 51 23 51 52c0 28 -23 51 -51 51h-36c-2 0 -3 -1 -3 -3zM254 306v-30l22 7c6 1 11 6 11 12s-5 11 -11 11h-22zM508 246v60h14c17 0 29 -13 29 -30s-12 -30 -29 -30h-14z
M373 246c-16 0 -29 14 -29 30s13 29 29 29c17 0 30 -13 30 -29s-13 -30 -30 -30zM254 245h21c6 0 11 5 11 11c0 3 -1 6 -3 8l-29 -8v-11zM605 124l12 13c1 1 1 3 -1 4c-10 9 -21 14 -36 14c-29 0 -53 -24 -53 -55c0 -30 24 -54 53 -54c14 0 26 5 37 15c1 1 1 3 0 4l-12 12
c-1 1 -3 1 -4 1c-5 -5 -13 -8 -20 -8c-17 0 -29 14 -29 31s12 31 29 31c7 0 15 -3 20 -8c1 -1 3 -1 4 0zM242 132v-82c0 -1 1 -2 2 -2h18c1 0 3 1 3 2v82h21c1 0 3 1 3 3v16c0 1 -2 3 -3 3h-65c-2 0 -3 -2 -3 -3v-16c0 -2 1 -3 3 -3h21zM184 150v-100c0 -1 1 -3 3 -3h18
c1 0 2 2 2 3v100c0 2 -1 3 -2 3h-18c-2 0 -3 -1 -3 -3zM295 50v62c0 23 19 41 42 41s42 -18 42 -41v-62c0 -1 -1 -2 -3 -2h-18c-1 0 -3 1 -3 2v22l-36 -9v-13c0 -1 -1 -2 -3 -2h-18c-1 0 -3 1 -3 2zM483 151v-101c0 -1 1 -2 3 -2h18c1 0 2 1 2 2v101c0 1 -1 2 -2 2h-18
c-2 0 -3 -1 -3 -2zM355 93v18c0 10 -7 19 -18 19c-10 0 -18 -9 -18 -19v-26z" />
    <glyph glyph-name="oslash" unicode="&#xf8;" 
d="M454 401v61c0 22 19 41 42 41s42 -19 42 -41v-61c0 -1 -2 -3 -3 -3h-18c-2 0 -3 2 -3 3v20l-36 -8v-12c0 -1 -2 -3 -3 -3h-18c-2 0 -3 2 -3 3zM288 455v-46c0 -1 -1 -2 -1 -3c0 0 -15 -9 -37 -9c-29 0 -53 23 -53 52c0 30 24 53 53 53c13 0 26 -5 36 -13c1 -2 2 -3 0 -4
l-11 -13c-1 -1 -3 -1 -4 0c-6 5 -12 7 -19 7c-16 0 -29 -13 -29 -30c0 -16 13 -29 29 -29c4 0 8 1 13 3v9l-10 -2c-2 0 -3 1 -3 3v15c0 2 1 3 3 3l30 7c1 0 3 -1 3 -3zM23 501h44c18 0 32 -14 32 -32c0 -13 -9 -24 -21 -29l21 -38c1 -2 0 -4 -3 -4h-20c-1 0 -2 1 -2 1
l-17 35l-14 -4v-29c0 -2 -1 -3 -2 -3h-18c-2 0 -3 1 -3 3v97c0 2 1 3 3 3zM122 501h60c2 0 3 -1 3 -3v-16c0 -1 -1 -3 -3 -3h-40v-18h17c2 0 4 -1 4 -3v-17c0 -2 -2 -3 -4 -3h-17v-18h40c2 0 3 -2 3 -3v-16c0 -2 -1 -3 -3 -3h-60c-2 0 -3 1 -3 3v97c0 2 1 3 3 3zM369 501h18
c2 0 3 -1 3 -3v-60c0 -23 -19 -41 -42 -41s-42 18 -42 41v60c0 2 2 3 3 3h18c2 0 3 -1 3 -3v-59c0 -11 8 -19 18 -19c11 0 19 8 19 19v59c0 2 1 3 2 3zM618 440l21 -38c1 -2 0 -4 -2 -4h-20c-1 0 -2 1 -2 1l-18 35l-13 -4v-29c0 -2 -1 -3 -3 -3h-17c-2 0 -3 1 -3 3v97
c0 2 1 3 3 3h43c18 0 33 -14 33 -32c0 -13 -9 -23 -22 -29zM549 370v-189c0 -2 -1 -3 -3 -3h-174c-2 0 -3 1 -3 3v143c0 2 1 3 3 3h17c2 0 3 -1 3 -3v-124h135v152h-115c-2 0 -3 1 -3 2v144c0 1 1 2 3 2h17c1 0 3 -1 3 -2v-124h114c2 0 3 -2 3 -4zM43 450l22 7
c6 1 11 6 11 12s-5 11 -11 11h-22v-30zM584 450l22 7c6 2 11 6 11 12s-5 11 -11 11h-22v-30zM514 443v18c0 10 -8 18 -18 18c-11 0 -18 -8 -18 -18v-27zM115 374h274c1 0 3 -2 3 -4v-15c0 -2 -2 -3 -3 -3h-256v-152h215c1 0 2 -1 2 -3v-127h36c2 0 3 -2 3 -3v-17
c0 -1 -1 -2 -3 -2h-56c-2 0 -3 1 -3 2v128h-213c-2 0 -3 1 -3 3v189c0 2 1 3 3 3c0 1 0 1 1 1zM300 329c-29 0 -52 -24 -52 -53c0 -30 23 -53 52 -53c30 0 53 23 53 53c0 29 -23 53 -53 53zM161 327h44c17 0 32 -14 32 -32c0 -8 -3 -15 -8 -20c4 -5 7 -12 7 -19
c0 -18 -15 -32 -32 -32h-43c-2 0 -3 1 -3 3v97c0 2 1 3 3 3zM412 324v-97c0 -1 1 -3 3 -3h36c28 0 51 23 51 52c0 28 -23 51 -51 51h-36c-2 0 -3 -1 -3 -3zM181 306v-30l22 7c6 1 11 6 11 12s-5 11 -11 11h-22zM435 246v60h14c17 0 29 -13 29 -30s-12 -30 -29 -30h-14z
M300 246c-16 0 -29 14 -29 30s13 29 29 29c17 0 30 -13 30 -29s-13 -30 -30 -30zM181 245h21c6 0 11 5 11 11c0 3 -1 6 -3 8l-29 -8v-11zM532 124l12 13c1 1 1 3 -1 4c-10 9 -21 14 -36 14c-29 0 -53 -24 -53 -55c0 -30 24 -54 53 -54c14 0 26 5 37 15c1 1 1 3 0 4l-12 12
c-1 1 -3 1 -4 1c-5 -5 -13 -8 -20 -8c-17 0 -29 14 -29 31s12 31 29 31c7 0 15 -3 20 -8c1 -1 3 -1 4 0zM169 132v-82c0 -1 1 -2 2 -2h18c1 0 3 1 3 2v82h21c1 0 3 1 3 3v16c0 1 -2 3 -3 3h-65c-2 0 -3 -2 -3 -3v-16c0 -2 1 -3 3 -3h21zM111 150v-100c0 -1 1 -3 3 -3h18
c1 0 2 2 2 3v100c0 2 -1 3 -2 3h-18c-2 0 -3 -1 -3 -3zM222 50v62c0 23 19 41 42 41s42 -18 42 -41v-62c0 -1 -1 -2 -3 -2h-18c-1 0 -3 1 -3 2v22l-36 -9v-13c0 -1 -1 -2 -3 -2h-18c-1 0 -3 1 -3 2zM410 151v-101c0 -1 1 -2 3 -2h18c1 0 2 1 2 2v101c0 1 -1 2 -2 2h-18
c-2 0 -3 -1 -3 -2zM282 93v18c0 10 -7 19 -18 19c-10 0 -18 -9 -18 -19v-26z" />
    <glyph glyph-name="otilde" unicode="&#xf5;" horiz-adv-x="707" 
d="M501 401v61c0 22 19 41 42 41s42 -19 42 -41v-61c0 -1 -2 -3 -3 -3h-18c-2 0 -3 2 -3 3v20l-36 -8v-12c0 -1 -2 -3 -3 -3h-18c-2 0 -3 2 -3 3zM335 455v-46c0 -1 -1 -2 -1 -3c0 0 -15 -9 -37 -9c-29 0 -53 23 -53 52c0 30 24 53 53 53c13 0 26 -5 36 -13c1 -2 2 -3 0 -4
l-11 -13c-1 -1 -3 -1 -4 0c-6 5 -12 7 -19 7c-16 0 -29 -13 -29 -30c0 -16 13 -29 29 -29c4 0 8 1 13 3v9l-10 -2c-2 0 -3 1 -3 3v15c0 2 1 3 3 3l30 7c1 0 3 -1 3 -3zM70 501h44c18 0 32 -14 32 -32c0 -13 -9 -24 -21 -29l21 -38c1 -2 0 -4 -3 -4h-20c-1 0 -2 1 -2 1
l-17 35l-14 -4v-29c0 -2 -1 -3 -2 -3h-18c-2 0 -3 1 -3 3v97c0 2 1 3 3 3zM169 501h60c2 0 3 -1 3 -3v-16c0 -1 -1 -3 -3 -3h-40v-18h17c2 0 4 -1 4 -3v-17c0 -2 -2 -3 -4 -3h-17v-18h40c2 0 3 -2 3 -3v-16c0 -2 -1 -3 -3 -3h-60c-2 0 -3 1 -3 3v97c0 2 1 3 3 3zM416 501h18
c2 0 3 -1 3 -3v-60c0 -23 -19 -41 -42 -41s-42 18 -42 41v60c0 2 2 3 3 3h18c2 0 3 -1 3 -3v-59c0 -11 8 -19 18 -19c11 0 19 8 19 19v59c0 2 1 3 2 3zM665 440l21 -38c1 -2 0 -4 -2 -4h-20c-1 0 -2 1 -2 1l-18 35l-13 -4v-29c0 -2 -1 -3 -3 -3h-17c-2 0 -3 1 -3 3v97
c0 2 1 3 3 3h43c18 0 33 -14 33 -32c0 -13 -9 -23 -22 -29zM596 370v-189c0 -2 -1 -3 -3 -3h-174c-2 0 -3 1 -3 3v143c0 2 1 3 3 3h17c2 0 3 -1 3 -3v-124h135v152h-115c-2 0 -3 1 -3 2v144c0 1 1 2 3 2h17c1 0 3 -1 3 -2v-124h114c2 0 3 -2 3 -4zM90 450l22 7
c6 1 11 6 11 12s-5 11 -11 11h-22v-30zM631 450l22 7c6 2 11 6 11 12s-5 11 -11 11h-22v-30zM561 443v18c0 10 -8 18 -18 18c-11 0 -18 -8 -18 -18v-27zM162 374h274c1 0 3 -2 3 -4v-15c0 -2 -2 -3 -3 -3h-256v-152h215c1 0 2 -1 2 -3v-127h36c2 0 3 -2 3 -3v-17
c0 -1 -1 -2 -3 -2h-56c-2 0 -3 1 -3 2v128h-213c-2 0 -3 1 -3 3v189c0 2 1 3 3 3c0 1 0 1 1 1zM347 329c-29 0 -52 -24 -52 -53c0 -30 23 -53 52 -53c30 0 53 23 53 53c0 29 -23 53 -53 53zM208 327h44c17 0 32 -14 32 -32c0 -8 -3 -15 -8 -20c4 -5 7 -12 7 -19
c0 -18 -15 -32 -32 -32h-43c-2 0 -3 1 -3 3v97c0 2 1 3 3 3zM459 324v-97c0 -1 1 -3 3 -3h36c28 0 51 23 51 52c0 28 -23 51 -51 51h-36c-2 0 -3 -1 -3 -3zM228 306v-30l22 7c6 1 11 6 11 12s-5 11 -11 11h-22zM482 246v60h14c17 0 29 -13 29 -30s-12 -30 -29 -30h-14z
M347 246c-16 0 -29 14 -29 30s13 29 29 29c17 0 30 -13 30 -29s-13 -30 -30 -30zM228 245h21c6 0 11 5 11 11c0 3 -1 6 -3 8l-29 -8v-11zM579 124l12 13c1 1 1 3 -1 4c-10 9 -21 14 -36 14c-29 0 -53 -24 -53 -55c0 -30 24 -54 53 -54c14 0 26 5 37 15c1 1 1 3 0 4l-12 12
c-1 1 -3 1 -4 1c-5 -5 -13 -8 -20 -8c-17 0 -29 14 -29 31s12 31 29 31c7 0 15 -3 20 -8c1 -1 3 -1 4 0zM216 132v-82c0 -1 1 -2 2 -2h18c1 0 3 1 3 2v82h21c1 0 3 1 3 3v16c0 1 -2 3 -3 3h-65c-2 0 -3 -2 -3 -3v-16c0 -2 1 -3 3 -3h21zM158 150v-100c0 -1 1 -3 3 -3h18
c1 0 2 2 2 3v100c0 2 -1 3 -2 3h-18c-2 0 -3 -1 -3 -3zM269 50v62c0 23 19 41 42 41s42 -18 42 -41v-62c0 -1 -1 -2 -3 -2h-18c-1 0 -3 1 -3 2v22l-36 -9v-13c0 -1 -1 -2 -3 -2h-18c-1 0 -3 1 -3 2zM457 151v-101c0 -1 1 -2 3 -2h18c1 0 2 1 2 2v101c0 1 -1 2 -2 2h-18
c-2 0 -3 -1 -3 -2zM329 93v18c0 10 -7 19 -18 19c-10 0 -18 -9 -18 -19v-26z" />
    <glyph glyph-name="oe" unicode="&#x153;" 
d="M454 401v61c0 22 19 41 42 41s42 -19 42 -41v-61c0 -1 -2 -3 -3 -3h-18c-2 0 -3 2 -3 3v20l-36 -8v-12c0 -1 -2 -3 -3 -3h-18c-2 0 -3 2 -3 3zM288 455v-46c0 -1 -1 -2 -1 -3c0 0 -15 -9 -37 -9c-29 0 -53 23 -53 52c0 30 24 53 53 53c13 0 26 -5 36 -13c1 -2 2 -3 0 -4
l-11 -13c-1 -1 -3 -1 -4 0c-6 5 -12 7 -19 7c-16 0 -29 -13 -29 -30c0 -16 13 -29 29 -29c4 0 8 1 13 3v9l-10 -2c-2 0 -3 1 -3 3v15c0 2 1 3 3 3l30 7c1 0 3 -1 3 -3zM23 501h44c18 0 32 -14 32 -32c0 -13 -9 -24 -21 -29l21 -38c1 -2 0 -4 -3 -4h-20c-1 0 -2 1 -2 1
l-17 35l-14 -4v-29c0 -2 -1 -3 -2 -3h-18c-2 0 -3 1 -3 3v97c0 2 1 3 3 3zM122 501h60c2 0 3 -1 3 -3v-16c0 -1 -1 -3 -3 -3h-40v-18h17c2 0 4 -1 4 -3v-17c0 -2 -2 -3 -4 -3h-17v-18h40c2 0 3 -2 3 -3v-16c0 -2 -1 -3 -3 -3h-60c-2 0 -3 1 -3 3v97c0 2 1 3 3 3zM369 501h18
c2 0 3 -1 3 -3v-60c0 -23 -19 -41 -42 -41s-42 18 -42 41v60c0 2 2 3 3 3h18c2 0 3 -1 3 -3v-59c0 -11 8 -19 18 -19c11 0 19 8 19 19v59c0 2 1 3 2 3zM618 440l21 -38c1 -2 0 -4 -2 -4h-20c-1 0 -2 1 -2 1l-18 35l-13 -4v-29c0 -2 -1 -3 -3 -3h-17c-2 0 -3 1 -3 3v97
c0 2 1 3 3 3h43c18 0 33 -14 33 -32c0 -13 -9 -23 -22 -29zM549 370v-189c0 -2 -1 -3 -3 -3h-174c-2 0 -3 1 -3 3v143c0 2 1 3 3 3h17c2 0 3 -1 3 -3v-124h135v152h-115c-2 0 -3 1 -3 2v144c0 1 1 2 3 2h17c1 0 3 -1 3 -2v-124h114c2 0 3 -2 3 -4zM43 450l22 7
c6 1 11 6 11 12s-5 11 -11 11h-22v-30zM584 450l22 7c6 2 11 6 11 12s-5 11 -11 11h-22v-30zM514 443v18c0 10 -8 18 -18 18c-11 0 -18 -8 -18 -18v-27zM115 374h274c1 0 3 -2 3 -4v-15c0 -2 -2 -3 -3 -3h-256v-152h215c1 0 2 -1 2 -3v-127h36c2 0 3 -2 3 -3v-17
c0 -1 -1 -2 -3 -2h-56c-2 0 -3 1 -3 2v128h-213c-2 0 -3 1 -3 3v189c0 2 1 3 3 3c0 1 0 1 1 1zM300 329c-29 0 -52 -24 -52 -53c0 -30 23 -53 52 -53c30 0 53 23 53 53c0 29 -23 53 -53 53zM161 327h44c17 0 32 -14 32 -32c0 -8 -3 -15 -8 -20c4 -5 7 -12 7 -19
c0 -18 -15 -32 -32 -32h-43c-2 0 -3 1 -3 3v97c0 2 1 3 3 3zM412 324v-97c0 -1 1 -3 3 -3h36c28 0 51 23 51 52c0 28 -23 51 -51 51h-36c-2 0 -3 -1 -3 -3zM181 306v-30l22 7c6 1 11 6 11 12s-5 11 -11 11h-22zM435 246v60h14c17 0 29 -13 29 -30s-12 -30 -29 -30h-14z
M300 246c-16 0 -29 14 -29 30s13 29 29 29c17 0 30 -13 30 -29s-13 -30 -30 -30zM181 245h21c6 0 11 5 11 11c0 3 -1 6 -3 8l-29 -8v-11zM532 124l12 13c1 1 1 3 -1 4c-10 9 -21 14 -36 14c-29 0 -53 -24 -53 -55c0 -30 24 -54 53 -54c14 0 26 5 37 15c1 1 1 3 0 4l-12 12
c-1 1 -3 1 -4 1c-5 -5 -13 -8 -20 -8c-17 0 -29 14 -29 31s12 31 29 31c7 0 15 -3 20 -8c1 -1 3 -1 4 0zM169 132v-82c0 -1 1 -2 2 -2h18c1 0 3 1 3 2v82h21c1 0 3 1 3 3v16c0 1 -2 3 -3 3h-65c-2 0 -3 -2 -3 -3v-16c0 -2 1 -3 3 -3h21zM111 150v-100c0 -1 1 -3 3 -3h18
c1 0 2 2 2 3v100c0 2 -1 3 -2 3h-18c-2 0 -3 -1 -3 -3zM222 50v62c0 23 19 41 42 41s42 -18 42 -41v-62c0 -1 -1 -2 -3 -2h-18c-1 0 -3 1 -3 2v22l-36 -9v-13c0 -1 -1 -2 -3 -2h-18c-1 0 -3 1 -3 2zM410 151v-101c0 -1 1 -2 3 -2h18c1 0 2 1 2 2v101c0 1 -1 2 -2 2h-18
c-2 0 -3 -1 -3 -2zM282 93v18c0 10 -7 19 -18 19c-10 0 -18 -9 -18 -19v-26z" />
    <glyph glyph-name="p" unicode="p" horiz-adv-x="648" 
d="M195 534l11 -26c38 34 97 56 158 56c158 0 264 -116 264 -290c0 -173 -106 -289 -264 -289c-47 0 -92 14 -122 38v-196c0 -7 -7 -14 -15 -14h-176c-8 0 -15 7 -15 14v707c0 8 7 15 15 15h128c7 0 12 -6 16 -15zM321 157c55 0 92 46 92 116c0 72 -37 120 -92 120
s-92 -48 -92 -120c0 -70 37 -116 92 -116z" />
    <glyph glyph-name="thorn" unicode="&#xfe;" 
d="M454 401v61c0 22 19 41 42 41s42 -19 42 -41v-61c0 -1 -2 -3 -3 -3h-18c-2 0 -3 2 -3 3v20l-36 -8v-12c0 -1 -2 -3 -3 -3h-18c-2 0 -3 2 -3 3zM288 455v-46c0 -1 -1 -2 -1 -3c0 0 -15 -9 -37 -9c-29 0 -53 23 -53 52c0 30 24 53 53 53c13 0 26 -5 36 -13c1 -2 2 -3 0 -4
l-11 -13c-1 -1 -3 -1 -4 0c-6 5 -12 7 -19 7c-16 0 -29 -13 -29 -30c0 -16 13 -29 29 -29c4 0 8 1 13 3v9l-10 -2c-2 0 -3 1 -3 3v15c0 2 1 3 3 3l30 7c1 0 3 -1 3 -3zM23 501h44c18 0 32 -14 32 -32c0 -13 -9 -24 -21 -29l21 -38c1 -2 0 -4 -3 -4h-20c-1 0 -2 1 -2 1
l-17 35l-14 -4v-29c0 -2 -1 -3 -2 -3h-18c-2 0 -3 1 -3 3v97c0 2 1 3 3 3zM122 501h60c2 0 3 -1 3 -3v-16c0 -1 -1 -3 -3 -3h-40v-18h17c2 0 4 -1 4 -3v-17c0 -2 -2 -3 -4 -3h-17v-18h40c2 0 3 -2 3 -3v-16c0 -2 -1 -3 -3 -3h-60c-2 0 -3 1 -3 3v97c0 2 1 3 3 3zM369 501h18
c2 0 3 -1 3 -3v-60c0 -23 -19 -41 -42 -41s-42 18 -42 41v60c0 2 2 3 3 3h18c2 0 3 -1 3 -3v-59c0 -11 8 -19 18 -19c11 0 19 8 19 19v59c0 2 1 3 2 3zM618 440l21 -38c1 -2 0 -4 -2 -4h-20c-1 0 -2 1 -2 1l-18 35l-13 -4v-29c0 -2 -1 -3 -3 -3h-17c-2 0 -3 1 -3 3v97
c0 2 1 3 3 3h43c18 0 33 -14 33 -32c0 -13 -9 -23 -22 -29zM549 370v-189c0 -2 -1 -3 -3 -3h-174c-2 0 -3 1 -3 3v143c0 2 1 3 3 3h17c2 0 3 -1 3 -3v-124h135v152h-115c-2 0 -3 1 -3 2v144c0 1 1 2 3 2h17c1 0 3 -1 3 -2v-124h114c2 0 3 -2 3 -4zM43 450l22 7
c6 1 11 6 11 12s-5 11 -11 11h-22v-30zM584 450l22 7c6 2 11 6 11 12s-5 11 -11 11h-22v-30zM514 443v18c0 10 -8 18 -18 18c-11 0 -18 -8 -18 -18v-27zM115 374h274c1 0 3 -2 3 -4v-15c0 -2 -2 -3 -3 -3h-256v-152h215c1 0 2 -1 2 -3v-127h36c2 0 3 -2 3 -3v-17
c0 -1 -1 -2 -3 -2h-56c-2 0 -3 1 -3 2v128h-213c-2 0 -3 1 -3 3v189c0 2 1 3 3 3c0 1 0 1 1 1zM300 329c-29 0 -52 -24 -52 -53c0 -30 23 -53 52 -53c30 0 53 23 53 53c0 29 -23 53 -53 53zM161 327h44c17 0 32 -14 32 -32c0 -8 -3 -15 -8 -20c4 -5 7 -12 7 -19
c0 -18 -15 -32 -32 -32h-43c-2 0 -3 1 -3 3v97c0 2 1 3 3 3zM412 324v-97c0 -1 1 -3 3 -3h36c28 0 51 23 51 52c0 28 -23 51 -51 51h-36c-2 0 -3 -1 -3 -3zM181 306v-30l22 7c6 1 11 6 11 12s-5 11 -11 11h-22zM435 246v60h14c17 0 29 -13 29 -30s-12 -30 -29 -30h-14z
M300 246c-16 0 -29 14 -29 30s13 29 29 29c17 0 30 -13 30 -29s-13 -30 -30 -30zM181 245h21c6 0 11 5 11 11c0 3 -1 6 -3 8l-29 -8v-11zM532 124l12 13c1 1 1 3 -1 4c-10 9 -21 14 -36 14c-29 0 -53 -24 -53 -55c0 -30 24 -54 53 -54c14 0 26 5 37 15c1 1 1 3 0 4l-12 12
c-1 1 -3 1 -4 1c-5 -5 -13 -8 -20 -8c-17 0 -29 14 -29 31s12 31 29 31c7 0 15 -3 20 -8c1 -1 3 -1 4 0zM169 132v-82c0 -1 1 -2 2 -2h18c1 0 3 1 3 2v82h21c1 0 3 1 3 3v16c0 1 -2 3 -3 3h-65c-2 0 -3 -2 -3 -3v-16c0 -2 1 -3 3 -3h21zM111 150v-100c0 -1 1 -3 3 -3h18
c1 0 2 2 2 3v100c0 2 -1 3 -2 3h-18c-2 0 -3 -1 -3 -3zM222 50v62c0 23 19 41 42 41s42 -18 42 -41v-62c0 -1 -1 -2 -3 -2h-18c-1 0 -3 1 -3 2v22l-36 -9v-13c0 -1 -1 -2 -3 -2h-18c-1 0 -3 1 -3 2zM410 151v-101c0 -1 1 -2 3 -2h18c1 0 2 1 2 2v101c0 1 -1 2 -2 2h-18
c-2 0 -3 -1 -3 -2zM282 93v18c0 10 -7 19 -18 19c-10 0 -18 -9 -18 -19v-26z" />
    <glyph glyph-name="q" unicode="q" horiz-adv-x="648" 
d="M469 549h128c8 0 15 -7 15 -15v-707c0 -7 -7 -14 -15 -14h-176c-8 0 -15 7 -15 14v196c-30 -24 -75 -38 -122 -38c-158 0 -264 116 -264 289c0 174 106 290 264 290c61 0 120 -22 158 -56l11 26c4 9 9 15 16 15zM327 157c55 0 92 46 92 116c0 72 -37 120 -92 120
s-92 -48 -92 -120c0 -70 37 -116 92 -116z" />
    <glyph glyph-name="r" unicode="r" horiz-adv-x="387" 
d="M327 550h26c8 0 14 -6 14 -14v-130c0 -8 -6 -14 -14 -14h-26c-38 0 -72 -17 -85 -42v-335c0 -8 -7 -15 -15 -15h-176c-8 0 -15 7 -15 15v521c0 7 7 14 15 14h128c8 0 13 -7 16 -15l11 -33c30 30 74 48 121 48z" />
    <glyph glyph-name="s" unicode="s" horiz-adv-x="474" 
d="M25 58l51 116c2 6 7 8 13 4c40 -25 86 -41 115 -41c27 -3 45 7 45 25c0 51 -229 35 -229 223c0 107 91 179 227 179c63 0 139 -22 190 -55c6 -4 8 -10 6 -14l-51 -118c-2 -6 -7 -8 -13 -4c-36 23 -79 39 -109 39c-27 3 -45 -7 -45 -24c0 -53 229 -32 229 -224
c0 -107 -88 -179 -221 -179c-74 0 -155 23 -202 57c-6 4 -8 10 -6 16z" />
    <glyph glyph-name="germandbls" unicode="&#xdf;" 
d="M454 401v61c0 22 19 41 42 41s42 -19 42 -41v-61c0 -1 -2 -3 -3 -3h-18c-2 0 -3 2 -3 3v20l-36 -8v-12c0 -1 -2 -3 -3 -3h-18c-2 0 -3 2 -3 3zM288 455v-46c0 -1 -1 -2 -1 -3c0 0 -15 -9 -37 -9c-29 0 -53 23 -53 52c0 30 24 53 53 53c13 0 26 -5 36 -13c1 -2 2 -3 0 -4
l-11 -13c-1 -1 -3 -1 -4 0c-6 5 -12 7 -19 7c-16 0 -29 -13 -29 -30c0 -16 13 -29 29 -29c4 0 8 1 13 3v9l-10 -2c-2 0 -3 1 -3 3v15c0 2 1 3 3 3l30 7c1 0 3 -1 3 -3zM23 501h44c18 0 32 -14 32 -32c0 -13 -9 -24 -21 -29l21 -38c1 -2 0 -4 -3 -4h-20c-1 0 -2 1 -2 1
l-17 35l-14 -4v-29c0 -2 -1 -3 -2 -3h-18c-2 0 -3 1 -3 3v97c0 2 1 3 3 3zM122 501h60c2 0 3 -1 3 -3v-16c0 -1 -1 -3 -3 -3h-40v-18h17c2 0 4 -1 4 -3v-17c0 -2 -2 -3 -4 -3h-17v-18h40c2 0 3 -2 3 -3v-16c0 -2 -1 -3 -3 -3h-60c-2 0 -3 1 -3 3v97c0 2 1 3 3 3zM369 501h18
c2 0 3 -1 3 -3v-60c0 -23 -19 -41 -42 -41s-42 18 -42 41v60c0 2 2 3 3 3h18c2 0 3 -1 3 -3v-59c0 -11 8 -19 18 -19c11 0 19 8 19 19v59c0 2 1 3 2 3zM618 440l21 -38c1 -2 0 -4 -2 -4h-20c-1 0 -2 1 -2 1l-18 35l-13 -4v-29c0 -2 -1 -3 -3 -3h-17c-2 0 -3 1 -3 3v97
c0 2 1 3 3 3h43c18 0 33 -14 33 -32c0 -13 -9 -23 -22 -29zM549 370v-189c0 -2 -1 -3 -3 -3h-174c-2 0 -3 1 -3 3v143c0 2 1 3 3 3h17c2 0 3 -1 3 -3v-124h135v152h-115c-2 0 -3 1 -3 2v144c0 1 1 2 3 2h17c1 0 3 -1 3 -2v-124h114c2 0 3 -2 3 -4zM43 450l22 7
c6 1 11 6 11 12s-5 11 -11 11h-22v-30zM584 450l22 7c6 2 11 6 11 12s-5 11 -11 11h-22v-30zM514 443v18c0 10 -8 18 -18 18c-11 0 -18 -8 -18 -18v-27zM115 374h274c1 0 3 -2 3 -4v-15c0 -2 -2 -3 -3 -3h-256v-152h215c1 0 2 -1 2 -3v-127h36c2 0 3 -2 3 -3v-17
c0 -1 -1 -2 -3 -2h-56c-2 0 -3 1 -3 2v128h-213c-2 0 -3 1 -3 3v189c0 2 1 3 3 3c0 1 0 1 1 1zM300 329c-29 0 -52 -24 -52 -53c0 -30 23 -53 52 -53c30 0 53 23 53 53c0 29 -23 53 -53 53zM161 327h44c17 0 32 -14 32 -32c0 -8 -3 -15 -8 -20c4 -5 7 -12 7 -19
c0 -18 -15 -32 -32 -32h-43c-2 0 -3 1 -3 3v97c0 2 1 3 3 3zM412 324v-97c0 -1 1 -3 3 -3h36c28 0 51 23 51 52c0 28 -23 51 -51 51h-36c-2 0 -3 -1 -3 -3zM181 306v-30l22 7c6 1 11 6 11 12s-5 11 -11 11h-22zM435 246v60h14c17 0 29 -13 29 -30s-12 -30 -29 -30h-14z
M300 246c-16 0 -29 14 -29 30s13 29 29 29c17 0 30 -13 30 -29s-13 -30 -30 -30zM181 245h21c6 0 11 5 11 11c0 3 -1 6 -3 8l-29 -8v-11zM532 124l12 13c1 1 1 3 -1 4c-10 9 -21 14 -36 14c-29 0 -53 -24 -53 -55c0 -30 24 -54 53 -54c14 0 26 5 37 15c1 1 1 3 0 4l-12 12
c-1 1 -3 1 -4 1c-5 -5 -13 -8 -20 -8c-17 0 -29 14 -29 31s12 31 29 31c7 0 15 -3 20 -8c1 -1 3 -1 4 0zM169 132v-82c0 -1 1 -2 2 -2h18c1 0 3 1 3 2v82h21c1 0 3 1 3 3v16c0 1 -2 3 -3 3h-65c-2 0 -3 -2 -3 -3v-16c0 -2 1 -3 3 -3h21zM111 150v-100c0 -1 1 -3 3 -3h18
c1 0 2 2 2 3v100c0 2 -1 3 -2 3h-18c-2 0 -3 -1 -3 -3zM222 50v62c0 23 19 41 42 41s42 -18 42 -41v-62c0 -1 -1 -2 -3 -2h-18c-1 0 -3 1 -3 2v22l-36 -9v-13c0 -1 -1 -2 -3 -2h-18c-1 0 -3 1 -3 2zM410 151v-101c0 -1 1 -2 3 -2h18c1 0 2 1 2 2v101c0 1 -1 2 -2 2h-18
c-2 0 -3 -1 -3 -2zM282 93v18c0 10 -7 19 -18 19c-10 0 -18 -9 -18 -19v-26z" />
    <glyph glyph-name="t" unicode="t" horiz-adv-x="387" 
d="M287 550h75c9 0 15 -6 15 -14l-11 -97c-1 -8 -7 -15 -15 -15h-64v-409c0 -8 -7 -15 -15 -15h-176c-8 0 -15 7 -15 15v409h-57c-7 0 -14 6 -14 14v97c0 9 7 15 14 15h57v109c0 7 7 13 15 14l176 17c8 1 15 -7 15 -14v-126z" />
    <glyph glyph-name="u" unicode="u" horiz-adv-x="592" 
d="M365 550h176c8 0 15 -7 15 -15v-521c0 -7 -7 -14 -15 -14h-128c-8 0 -13 7 -16 15l-10 25c-37 -33 -91 -55 -150 -55c-130 0 -207 83 -207 219v331c0 8 7 15 15 15h176c8 0 15 -7 15 -15v-306c0 -34 21 -57 53 -57c39 0 61 32 61 32v331c0 8 7 15 15 15z" />
    <glyph glyph-name="uacute" unicode="&#xfa;" horiz-adv-x="740" 
d="M534 401v61c0 22 19 41 42 41s42 -19 42 -41v-61c0 -1 -2 -3 -3 -3h-18c-2 0 -3 2 -3 3v20l-36 -8v-12c0 -1 -2 -3 -3 -3h-18c-2 0 -3 2 -3 3zM368 455v-46c0 -1 -1 -2 -1 -3c0 0 -15 -9 -37 -9c-29 0 -53 23 -53 52c0 30 24 53 53 53c13 0 26 -5 36 -13c1 -2 2 -3 0 -4
l-11 -13c-1 -1 -3 -1 -4 0c-6 5 -12 7 -19 7c-16 0 -29 -13 -29 -30c0 -16 13 -29 29 -29c4 0 8 1 13 3v9l-10 -2c-2 0 -3 1 -3 3v15c0 2 1 3 3 3l30 7c1 0 3 -1 3 -3zM103 501h44c18 0 32 -14 32 -32c0 -13 -9 -24 -21 -29l21 -38c1 -2 0 -4 -3 -4h-20c-1 0 -2 1 -2 1
l-17 35l-14 -4v-29c0 -2 -1 -3 -2 -3h-18c-2 0 -3 1 -3 3v97c0 2 1 3 3 3zM202 501h60c2 0 3 -1 3 -3v-16c0 -1 -1 -3 -3 -3h-40v-18h17c2 0 4 -1 4 -3v-17c0 -2 -2 -3 -4 -3h-17v-18h40c2 0 3 -2 3 -3v-16c0 -2 -1 -3 -3 -3h-60c-2 0 -3 1 -3 3v97c0 2 1 3 3 3zM449 501h18
c2 0 3 -1 3 -3v-60c0 -23 -19 -41 -42 -41s-42 18 -42 41v60c0 2 2 3 3 3h18c2 0 3 -1 3 -3v-59c0 -11 8 -19 18 -19c11 0 19 8 19 19v59c0 2 1 3 2 3zM698 440l21 -38c1 -2 0 -4 -2 -4h-20c-1 0 -2 1 -2 1l-18 35l-13 -4v-29c0 -2 -1 -3 -3 -3h-17c-2 0 -3 1 -3 3v97
c0 2 1 3 3 3h43c18 0 33 -14 33 -32c0 -13 -9 -23 -22 -29zM629 370v-189c0 -2 -1 -3 -3 -3h-174c-2 0 -3 1 -3 3v143c0 2 1 3 3 3h17c2 0 3 -1 3 -3v-124h135v152h-115c-2 0 -3 1 -3 2v144c0 1 1 2 3 2h17c1 0 3 -1 3 -2v-124h114c2 0 3 -2 3 -4zM123 450l22 7
c6 1 11 6 11 12s-5 11 -11 11h-22v-30zM664 450l22 7c6 2 11 6 11 12s-5 11 -11 11h-22v-30zM594 443v18c0 10 -8 18 -18 18c-11 0 -18 -8 -18 -18v-27zM195 374h274c1 0 3 -2 3 -4v-15c0 -2 -2 -3 -3 -3h-256v-152h215c1 0 2 -1 2 -3v-127h36c2 0 3 -2 3 -3v-17
c0 -1 -1 -2 -3 -2h-56c-2 0 -3 1 -3 2v128h-213c-2 0 -3 1 -3 3v189c0 2 1 3 3 3c0 1 0 1 1 1zM380 329c-29 0 -52 -24 -52 -53c0 -30 23 -53 52 -53c30 0 53 23 53 53c0 29 -23 53 -53 53zM241 327h44c17 0 32 -14 32 -32c0 -8 -3 -15 -8 -20c4 -5 7 -12 7 -19
c0 -18 -15 -32 -32 -32h-43c-2 0 -3 1 -3 3v97c0 2 1 3 3 3zM492 324v-97c0 -1 1 -3 3 -3h36c28 0 51 23 51 52c0 28 -23 51 -51 51h-36c-2 0 -3 -1 -3 -3zM261 306v-30l22 7c6 1 11 6 11 12s-5 11 -11 11h-22zM515 246v60h14c17 0 29 -13 29 -30s-12 -30 -29 -30h-14z
M380 246c-16 0 -29 14 -29 30s13 29 29 29c17 0 30 -13 30 -29s-13 -30 -30 -30zM261 245h21c6 0 11 5 11 11c0 3 -1 6 -3 8l-29 -8v-11zM612 124l12 13c1 1 1 3 -1 4c-10 9 -21 14 -36 14c-29 0 -53 -24 -53 -55c0 -30 24 -54 53 -54c14 0 26 5 37 15c1 1 1 3 0 4l-12 12
c-1 1 -3 1 -4 1c-5 -5 -13 -8 -20 -8c-17 0 -29 14 -29 31s12 31 29 31c7 0 15 -3 20 -8c1 -1 3 -1 4 0zM249 132v-82c0 -1 1 -2 2 -2h18c1 0 3 1 3 2v82h21c1 0 3 1 3 3v16c0 1 -2 3 -3 3h-65c-2 0 -3 -2 -3 -3v-16c0 -2 1 -3 3 -3h21zM191 150v-100c0 -1 1 -3 3 -3h18
c1 0 2 2 2 3v100c0 2 -1 3 -2 3h-18c-2 0 -3 -1 -3 -3zM302 50v62c0 23 19 41 42 41s42 -18 42 -41v-62c0 -1 -1 -2 -3 -2h-18c-1 0 -3 1 -3 2v22l-36 -9v-13c0 -1 -1 -2 -3 -2h-18c-1 0 -3 1 -3 2zM490 151v-101c0 -1 1 -2 3 -2h18c1 0 2 1 2 2v101c0 1 -1 2 -2 2h-18
c-2 0 -3 -1 -3 -2zM362 93v18c0 10 -7 19 -18 19c-10 0 -18 -9 -18 -19v-26z" />
    <glyph glyph-name="ucircumflex" unicode="&#xfb;" horiz-adv-x="754" 
d="M548 401v61c0 22 19 41 42 41s42 -19 42 -41v-61c0 -1 -2 -3 -3 -3h-18c-2 0 -3 2 -3 3v20l-36 -8v-12c0 -1 -2 -3 -3 -3h-18c-2 0 -3 2 -3 3zM382 455v-46c0 -1 -1 -2 -1 -3c0 0 -15 -9 -37 -9c-29 0 -53 23 -53 52c0 30 24 53 53 53c13 0 26 -5 36 -13c1 -2 2 -3 0 -4
l-11 -13c-1 -1 -3 -1 -4 0c-6 5 -12 7 -19 7c-16 0 -29 -13 -29 -30c0 -16 13 -29 29 -29c4 0 8 1 13 3v9l-10 -2c-2 0 -3 1 -3 3v15c0 2 1 3 3 3l30 7c1 0 3 -1 3 -3zM117 501h44c18 0 32 -14 32 -32c0 -13 -9 -24 -21 -29l21 -38c1 -2 0 -4 -3 -4h-20c-1 0 -2 1 -2 1
l-17 35l-14 -4v-29c0 -2 -1 -3 -2 -3h-18c-2 0 -3 1 -3 3v97c0 2 1 3 3 3zM216 501h60c2 0 3 -1 3 -3v-16c0 -1 -1 -3 -3 -3h-40v-18h17c2 0 4 -1 4 -3v-17c0 -2 -2 -3 -4 -3h-17v-18h40c2 0 3 -2 3 -3v-16c0 -2 -1 -3 -3 -3h-60c-2 0 -3 1 -3 3v97c0 2 1 3 3 3zM463 501h18
c2 0 3 -1 3 -3v-60c0 -23 -19 -41 -42 -41s-42 18 -42 41v60c0 2 2 3 3 3h18c2 0 3 -1 3 -3v-59c0 -11 8 -19 18 -19c11 0 19 8 19 19v59c0 2 1 3 2 3zM712 440l21 -38c1 -2 0 -4 -2 -4h-20c-1 0 -2 1 -2 1l-18 35l-13 -4v-29c0 -2 -1 -3 -3 -3h-17c-2 0 -3 1 -3 3v97
c0 2 1 3 3 3h43c18 0 33 -14 33 -32c0 -13 -9 -23 -22 -29zM643 370v-189c0 -2 -1 -3 -3 -3h-174c-2 0 -3 1 -3 3v143c0 2 1 3 3 3h17c2 0 3 -1 3 -3v-124h135v152h-115c-2 0 -3 1 -3 2v144c0 1 1 2 3 2h17c1 0 3 -1 3 -2v-124h114c2 0 3 -2 3 -4zM137 450l22 7
c6 1 11 6 11 12s-5 11 -11 11h-22v-30zM678 450l22 7c6 2 11 6 11 12s-5 11 -11 11h-22v-30zM608 443v18c0 10 -8 18 -18 18c-11 0 -18 -8 -18 -18v-27zM209 374h274c1 0 3 -2 3 -4v-15c0 -2 -2 -3 -3 -3h-256v-152h215c1 0 2 -1 2 -3v-127h36c2 0 3 -2 3 -3v-17
c0 -1 -1 -2 -3 -2h-56c-2 0 -3 1 -3 2v128h-213c-2 0 -3 1 -3 3v189c0 2 1 3 3 3c0 1 0 1 1 1zM394 329c-29 0 -52 -24 -52 -53c0 -30 23 -53 52 -53c30 0 53 23 53 53c0 29 -23 53 -53 53zM255 327h44c17 0 32 -14 32 -32c0 -8 -3 -15 -8 -20c4 -5 7 -12 7 -19
c0 -18 -15 -32 -32 -32h-43c-2 0 -3 1 -3 3v97c0 2 1 3 3 3zM506 324v-97c0 -1 1 -3 3 -3h36c28 0 51 23 51 52c0 28 -23 51 -51 51h-36c-2 0 -3 -1 -3 -3zM275 306v-30l22 7c6 1 11 6 11 12s-5 11 -11 11h-22zM529 246v60h14c17 0 29 -13 29 -30s-12 -30 -29 -30h-14z
M394 246c-16 0 -29 14 -29 30s13 29 29 29c17 0 30 -13 30 -29s-13 -30 -30 -30zM275 245h21c6 0 11 5 11 11c0 3 -1 6 -3 8l-29 -8v-11zM626 124l12 13c1 1 1 3 -1 4c-10 9 -21 14 -36 14c-29 0 -53 -24 -53 -55c0 -30 24 -54 53 -54c14 0 26 5 37 15c1 1 1 3 0 4l-12 12
c-1 1 -3 1 -4 1c-5 -5 -13 -8 -20 -8c-17 0 -29 14 -29 31s12 31 29 31c7 0 15 -3 20 -8c1 -1 3 -1 4 0zM263 132v-82c0 -1 1 -2 2 -2h18c1 0 3 1 3 2v82h21c1 0 3 1 3 3v16c0 1 -2 3 -3 3h-65c-2 0 -3 -2 -3 -3v-16c0 -2 1 -3 3 -3h21zM205 150v-100c0 -1 1 -3 3 -3h18
c1 0 2 2 2 3v100c0 2 -1 3 -2 3h-18c-2 0 -3 -1 -3 -3zM316 50v62c0 23 19 41 42 41s42 -18 42 -41v-62c0 -1 -1 -2 -3 -2h-18c-1 0 -3 1 -3 2v22l-36 -9v-13c0 -1 -1 -2 -3 -2h-18c-1 0 -3 1 -3 2zM504 151v-101c0 -1 1 -2 3 -2h18c1 0 2 1 2 2v101c0 1 -1 2 -2 2h-18
c-2 0 -3 -1 -3 -2zM376 93v18c0 10 -7 19 -18 19c-10 0 -18 -9 -18 -19v-26z" />
    <glyph glyph-name="udieresis" unicode="&#xfc;" horiz-adv-x="728" 
d="M522 401v61c0 22 19 41 42 41s42 -19 42 -41v-61c0 -1 -2 -3 -3 -3h-18c-2 0 -3 2 -3 3v20l-36 -8v-12c0 -1 -2 -3 -3 -3h-18c-2 0 -3 2 -3 3zM356 455v-46c0 -1 -1 -2 -1 -3c0 0 -15 -9 -37 -9c-29 0 -53 23 -53 52c0 30 24 53 53 53c13 0 26 -5 36 -13c1 -2 2 -3 0 -4
l-11 -13c-1 -1 -3 -1 -4 0c-6 5 -12 7 -19 7c-16 0 -29 -13 -29 -30c0 -16 13 -29 29 -29c4 0 8 1 13 3v9l-10 -2c-2 0 -3 1 -3 3v15c0 2 1 3 3 3l30 7c1 0 3 -1 3 -3zM91 501h44c18 0 32 -14 32 -32c0 -13 -9 -24 -21 -29l21 -38c1 -2 0 -4 -3 -4h-20c-1 0 -2 1 -2 1
l-17 35l-14 -4v-29c0 -2 -1 -3 -2 -3h-18c-2 0 -3 1 -3 3v97c0 2 1 3 3 3zM190 501h60c2 0 3 -1 3 -3v-16c0 -1 -1 -3 -3 -3h-40v-18h17c2 0 4 -1 4 -3v-17c0 -2 -2 -3 -4 -3h-17v-18h40c2 0 3 -2 3 -3v-16c0 -2 -1 -3 -3 -3h-60c-2 0 -3 1 -3 3v97c0 2 1 3 3 3zM437 501h18
c2 0 3 -1 3 -3v-60c0 -23 -19 -41 -42 -41s-42 18 -42 41v60c0 2 2 3 3 3h18c2 0 3 -1 3 -3v-59c0 -11 8 -19 18 -19c11 0 19 8 19 19v59c0 2 1 3 2 3zM686 440l21 -38c1 -2 0 -4 -2 -4h-20c-1 0 -2 1 -2 1l-18 35l-13 -4v-29c0 -2 -1 -3 -3 -3h-17c-2 0 -3 1 -3 3v97
c0 2 1 3 3 3h43c18 0 33 -14 33 -32c0 -13 -9 -23 -22 -29zM617 370v-189c0 -2 -1 -3 -3 -3h-174c-2 0 -3 1 -3 3v143c0 2 1 3 3 3h17c2 0 3 -1 3 -3v-124h135v152h-115c-2 0 -3 1 -3 2v144c0 1 1 2 3 2h17c1 0 3 -1 3 -2v-124h114c2 0 3 -2 3 -4zM111 450l22 7
c6 1 11 6 11 12s-5 11 -11 11h-22v-30zM652 450l22 7c6 2 11 6 11 12s-5 11 -11 11h-22v-30zM582 443v18c0 10 -8 18 -18 18c-11 0 -18 -8 -18 -18v-27zM183 374h274c1 0 3 -2 3 -4v-15c0 -2 -2 -3 -3 -3h-256v-152h215c1 0 2 -1 2 -3v-127h36c2 0 3 -2 3 -3v-17
c0 -1 -1 -2 -3 -2h-56c-2 0 -3 1 -3 2v128h-213c-2 0 -3 1 -3 3v189c0 2 1 3 3 3c0 1 0 1 1 1zM368 329c-29 0 -52 -24 -52 -53c0 -30 23 -53 52 -53c30 0 53 23 53 53c0 29 -23 53 -53 53zM229 327h44c17 0 32 -14 32 -32c0 -8 -3 -15 -8 -20c4 -5 7 -12 7 -19
c0 -18 -15 -32 -32 -32h-43c-2 0 -3 1 -3 3v97c0 2 1 3 3 3zM480 324v-97c0 -1 1 -3 3 -3h36c28 0 51 23 51 52c0 28 -23 51 -51 51h-36c-2 0 -3 -1 -3 -3zM249 306v-30l22 7c6 1 11 6 11 12s-5 11 -11 11h-22zM503 246v60h14c17 0 29 -13 29 -30s-12 -30 -29 -30h-14z
M368 246c-16 0 -29 14 -29 30s13 29 29 29c17 0 30 -13 30 -29s-13 -30 -30 -30zM249 245h21c6 0 11 5 11 11c0 3 -1 6 -3 8l-29 -8v-11zM600 124l12 13c1 1 1 3 -1 4c-10 9 -21 14 -36 14c-29 0 -53 -24 -53 -55c0 -30 24 -54 53 -54c14 0 26 5 37 15c1 1 1 3 0 4l-12 12
c-1 1 -3 1 -4 1c-5 -5 -13 -8 -20 -8c-17 0 -29 14 -29 31s12 31 29 31c7 0 15 -3 20 -8c1 -1 3 -1 4 0zM237 132v-82c0 -1 1 -2 2 -2h18c1 0 3 1 3 2v82h21c1 0 3 1 3 3v16c0 1 -2 3 -3 3h-65c-2 0 -3 -2 -3 -3v-16c0 -2 1 -3 3 -3h21zM179 150v-100c0 -1 1 -3 3 -3h18
c1 0 2 2 2 3v100c0 2 -1 3 -2 3h-18c-2 0 -3 -1 -3 -3zM290 50v62c0 23 19 41 42 41s42 -18 42 -41v-62c0 -1 -1 -2 -3 -2h-18c-1 0 -3 1 -3 2v22l-36 -9v-13c0 -1 -1 -2 -3 -2h-18c-1 0 -3 1 -3 2zM478 151v-101c0 -1 1 -2 3 -2h18c1 0 2 1 2 2v101c0 1 -1 2 -2 2h-18
c-2 0 -3 -1 -3 -2zM350 93v18c0 10 -7 19 -18 19c-10 0 -18 -9 -18 -19v-26z" />
    <glyph glyph-name="ugrave" unicode="&#xf9;" horiz-adv-x="754" 
d="M548 401v61c0 22 19 41 42 41s42 -19 42 -41v-61c0 -1 -2 -3 -3 -3h-18c-2 0 -3 2 -3 3v20l-36 -8v-12c0 -1 -2 -3 -3 -3h-18c-2 0 -3 2 -3 3zM382 455v-46c0 -1 -1 -2 -1 -3c0 0 -15 -9 -37 -9c-29 0 -53 23 -53 52c0 30 24 53 53 53c13 0 26 -5 36 -13c1 -2 2 -3 0 -4
l-11 -13c-1 -1 -3 -1 -4 0c-6 5 -12 7 -19 7c-16 0 -29 -13 -29 -30c0 -16 13 -29 29 -29c4 0 8 1 13 3v9l-10 -2c-2 0 -3 1 -3 3v15c0 2 1 3 3 3l30 7c1 0 3 -1 3 -3zM117 501h44c18 0 32 -14 32 -32c0 -13 -9 -24 -21 -29l21 -38c1 -2 0 -4 -3 -4h-20c-1 0 -2 1 -2 1
l-17 35l-14 -4v-29c0 -2 -1 -3 -2 -3h-18c-2 0 -3 1 -3 3v97c0 2 1 3 3 3zM216 501h60c2 0 3 -1 3 -3v-16c0 -1 -1 -3 -3 -3h-40v-18h17c2 0 4 -1 4 -3v-17c0 -2 -2 -3 -4 -3h-17v-18h40c2 0 3 -2 3 -3v-16c0 -2 -1 -3 -3 -3h-60c-2 0 -3 1 -3 3v97c0 2 1 3 3 3zM463 501h18
c2 0 3 -1 3 -3v-60c0 -23 -19 -41 -42 -41s-42 18 -42 41v60c0 2 2 3 3 3h18c2 0 3 -1 3 -3v-59c0 -11 8 -19 18 -19c11 0 19 8 19 19v59c0 2 1 3 2 3zM712 440l21 -38c1 -2 0 -4 -2 -4h-20c-1 0 -2 1 -2 1l-18 35l-13 -4v-29c0 -2 -1 -3 -3 -3h-17c-2 0 -3 1 -3 3v97
c0 2 1 3 3 3h43c18 0 33 -14 33 -32c0 -13 -9 -23 -22 -29zM643 370v-189c0 -2 -1 -3 -3 -3h-174c-2 0 -3 1 -3 3v143c0 2 1 3 3 3h17c2 0 3 -1 3 -3v-124h135v152h-115c-2 0 -3 1 -3 2v144c0 1 1 2 3 2h17c1 0 3 -1 3 -2v-124h114c2 0 3 -2 3 -4zM137 450l22 7
c6 1 11 6 11 12s-5 11 -11 11h-22v-30zM678 450l22 7c6 2 11 6 11 12s-5 11 -11 11h-22v-30zM608 443v18c0 10 -8 18 -18 18c-11 0 -18 -8 -18 -18v-27zM209 374h274c1 0 3 -2 3 -4v-15c0 -2 -2 -3 -3 -3h-256v-152h215c1 0 2 -1 2 -3v-127h36c2 0 3 -2 3 -3v-17
c0 -1 -1 -2 -3 -2h-56c-2 0 -3 1 -3 2v128h-213c-2 0 -3 1 -3 3v189c0 2 1 3 3 3c0 1 0 1 1 1zM394 329c-29 0 -52 -24 -52 -53c0 -30 23 -53 52 -53c30 0 53 23 53 53c0 29 -23 53 -53 53zM255 327h44c17 0 32 -14 32 -32c0 -8 -3 -15 -8 -20c4 -5 7 -12 7 -19
c0 -18 -15 -32 -32 -32h-43c-2 0 -3 1 -3 3v97c0 2 1 3 3 3zM506 324v-97c0 -1 1 -3 3 -3h36c28 0 51 23 51 52c0 28 -23 51 -51 51h-36c-2 0 -3 -1 -3 -3zM275 306v-30l22 7c6 1 11 6 11 12s-5 11 -11 11h-22zM529 246v60h14c17 0 29 -13 29 -30s-12 -30 -29 -30h-14z
M394 246c-16 0 -29 14 -29 30s13 29 29 29c17 0 30 -13 30 -29s-13 -30 -30 -30zM275 245h21c6 0 11 5 11 11c0 3 -1 6 -3 8l-29 -8v-11zM626 124l12 13c1 1 1 3 -1 4c-10 9 -21 14 -36 14c-29 0 -53 -24 -53 -55c0 -30 24 -54 53 -54c14 0 26 5 37 15c1 1 1 3 0 4l-12 12
c-1 1 -3 1 -4 1c-5 -5 -13 -8 -20 -8c-17 0 -29 14 -29 31s12 31 29 31c7 0 15 -3 20 -8c1 -1 3 -1 4 0zM263 132v-82c0 -1 1 -2 2 -2h18c1 0 3 1 3 2v82h21c1 0 3 1 3 3v16c0 1 -2 3 -3 3h-65c-2 0 -3 -2 -3 -3v-16c0 -2 1 -3 3 -3h21zM205 150v-100c0 -1 1 -3 3 -3h18
c1 0 2 2 2 3v100c0 2 -1 3 -2 3h-18c-2 0 -3 -1 -3 -3zM316 50v62c0 23 19 41 42 41s42 -18 42 -41v-62c0 -1 -1 -2 -3 -2h-18c-1 0 -3 1 -3 2v22l-36 -9v-13c0 -1 -1 -2 -3 -2h-18c-1 0 -3 1 -3 2zM504 151v-101c0 -1 1 -2 3 -2h18c1 0 2 1 2 2v101c0 1 -1 2 -2 2h-18
c-2 0 -3 -1 -3 -2zM376 93v18c0 10 -7 19 -18 19c-10 0 -18 -9 -18 -19v-26z" />
    <glyph glyph-name="v" unicode="v" horiz-adv-x="597" 
d="M396 550h189c9 0 13 -7 11 -14l-177 -522c-3 -7 -12 -14 -20 -14h-202c-8 0 -16 7 -18 14l-178 522c-3 7 2 14 10 14h188c9 0 16 -6 19 -14l80 -289l80 289c2 9 11 14 18 14z" />
    <glyph glyph-name="w" unicode="w" horiz-adv-x="838" 
d="M482 550h-126c-7 0 -15 -4 -18 -14l-72 -219l-34 219c-2 8 -10 14 -19 14h-202c-8 0 -13 -7 -10 -14l140 -522c2 -7 10 -14 18 -14h140c8 0 17 7 20 14l100 304l100 -304c3 -7 12 -14 20 -14h140c8 0 16 7 18 14l140 522c3 7 -2 14 -10 14h-202c-9 0 -17 -6 -19 -14
l-34 -219l-72 219c-3 10 -11 14 -18 14z" />
    <glyph glyph-name="x" unicode="x" horiz-adv-x="573" 
d="M373 550h189c7 0 12 -6 9 -14l-139 -254l134 -268c4 -8 -2 -14 -9 -14h-194c-9 0 -16 5 -18 13l-59 129l-59 -129c-2 -8 -9 -13 -18 -13h-194c-7 0 -13 6 -9 14l134 268l-139 254c-3 8 2 14 9 14h189c9 0 14 -6 18 -13l69 -141l69 141c4 7 9 13 18 13z" />
    <glyph glyph-name="y" unicode="y" horiz-adv-x="611" 
d="M402 550h197c9 0 13 -7 11 -14l-171 -536c-48 -150 -131 -201 -259 -201c-69 0 -137 22 -170 54c-5 5 -7 12 -5 17l56 113c3 7 10 7 14 4c29 -20 68 -34 96 -34c51 0 77 23 91 81h-82c-10 0 -16 7 -18 14l-161 488c-3 7 2 14 10 14h201c9 0 16 -6 19 -14l77 -314l76 314
c2 9 11 14 18 14z" />
    <glyph glyph-name="yacute" unicode="&#xfd;" horiz-adv-x="733" 
d="M527 401v61c0 22 19 41 42 41s42 -19 42 -41v-61c0 -1 -2 -3 -3 -3h-18c-2 0 -3 2 -3 3v20l-36 -8v-12c0 -1 -2 -3 -3 -3h-18c-2 0 -3 2 -3 3zM361 455v-46c0 -1 -1 -2 -1 -3c0 0 -15 -9 -37 -9c-29 0 -53 23 -53 52c0 30 24 53 53 53c13 0 26 -5 36 -13c1 -2 2 -3 0 -4
l-11 -13c-1 -1 -3 -1 -4 0c-6 5 -12 7 -19 7c-16 0 -29 -13 -29 -30c0 -16 13 -29 29 -29c4 0 8 1 13 3v9l-10 -2c-2 0 -3 1 -3 3v15c0 2 1 3 3 3l30 7c1 0 3 -1 3 -3zM96 501h44c18 0 32 -14 32 -32c0 -13 -9 -24 -21 -29l21 -38c1 -2 0 -4 -3 -4h-20c-1 0 -2 1 -2 1
l-17 35l-14 -4v-29c0 -2 -1 -3 -2 -3h-18c-2 0 -3 1 -3 3v97c0 2 1 3 3 3zM195 501h60c2 0 3 -1 3 -3v-16c0 -1 -1 -3 -3 -3h-40v-18h17c2 0 4 -1 4 -3v-17c0 -2 -2 -3 -4 -3h-17v-18h40c2 0 3 -2 3 -3v-16c0 -2 -1 -3 -3 -3h-60c-2 0 -3 1 -3 3v97c0 2 1 3 3 3zM442 501h18
c2 0 3 -1 3 -3v-60c0 -23 -19 -41 -42 -41s-42 18 -42 41v60c0 2 2 3 3 3h18c2 0 3 -1 3 -3v-59c0 -11 8 -19 18 -19c11 0 19 8 19 19v59c0 2 1 3 2 3zM691 440l21 -38c1 -2 0 -4 -2 -4h-20c-1 0 -2 1 -2 1l-18 35l-13 -4v-29c0 -2 -1 -3 -3 -3h-17c-2 0 -3 1 -3 3v97
c0 2 1 3 3 3h43c18 0 33 -14 33 -32c0 -13 -9 -23 -22 -29zM622 370v-189c0 -2 -1 -3 -3 -3h-174c-2 0 -3 1 -3 3v143c0 2 1 3 3 3h17c2 0 3 -1 3 -3v-124h135v152h-115c-2 0 -3 1 -3 2v144c0 1 1 2 3 2h17c1 0 3 -1 3 -2v-124h114c2 0 3 -2 3 -4zM116 450l22 7
c6 1 11 6 11 12s-5 11 -11 11h-22v-30zM657 450l22 7c6 2 11 6 11 12s-5 11 -11 11h-22v-30zM587 443v18c0 10 -8 18 -18 18c-11 0 -18 -8 -18 -18v-27zM188 374h274c1 0 3 -2 3 -4v-15c0 -2 -2 -3 -3 -3h-256v-152h215c1 0 2 -1 2 -3v-127h36c2 0 3 -2 3 -3v-17
c0 -1 -1 -2 -3 -2h-56c-2 0 -3 1 -3 2v128h-213c-2 0 -3 1 -3 3v189c0 2 1 3 3 3c0 1 0 1 1 1zM373 329c-29 0 -52 -24 -52 -53c0 -30 23 -53 52 -53c30 0 53 23 53 53c0 29 -23 53 -53 53zM234 327h44c17 0 32 -14 32 -32c0 -8 -3 -15 -8 -20c4 -5 7 -12 7 -19
c0 -18 -15 -32 -32 -32h-43c-2 0 -3 1 -3 3v97c0 2 1 3 3 3zM485 324v-97c0 -1 1 -3 3 -3h36c28 0 51 23 51 52c0 28 -23 51 -51 51h-36c-2 0 -3 -1 -3 -3zM254 306v-30l22 7c6 1 11 6 11 12s-5 11 -11 11h-22zM508 246v60h14c17 0 29 -13 29 -30s-12 -30 -29 -30h-14z
M373 246c-16 0 -29 14 -29 30s13 29 29 29c17 0 30 -13 30 -29s-13 -30 -30 -30zM254 245h21c6 0 11 5 11 11c0 3 -1 6 -3 8l-29 -8v-11zM605 124l12 13c1 1 1 3 -1 4c-10 9 -21 14 -36 14c-29 0 -53 -24 -53 -55c0 -30 24 -54 53 -54c14 0 26 5 37 15c1 1 1 3 0 4l-12 12
c-1 1 -3 1 -4 1c-5 -5 -13 -8 -20 -8c-17 0 -29 14 -29 31s12 31 29 31c7 0 15 -3 20 -8c1 -1 3 -1 4 0zM242 132v-82c0 -1 1 -2 2 -2h18c1 0 3 1 3 2v82h21c1 0 3 1 3 3v16c0 1 -2 3 -3 3h-65c-2 0 -3 -2 -3 -3v-16c0 -2 1 -3 3 -3h21zM184 150v-100c0 -1 1 -3 3 -3h18
c1 0 2 2 2 3v100c0 2 -1 3 -2 3h-18c-2 0 -3 -1 -3 -3zM295 50v62c0 23 19 41 42 41s42 -18 42 -41v-62c0 -1 -1 -2 -3 -2h-18c-1 0 -3 1 -3 2v22l-36 -9v-13c0 -1 -1 -2 -3 -2h-18c-1 0 -3 1 -3 2zM483 151v-101c0 -1 1 -2 3 -2h18c1 0 2 1 2 2v101c0 1 -1 2 -2 2h-18
c-2 0 -3 -1 -3 -2zM355 93v18c0 10 -7 19 -18 19c-10 0 -18 -9 -18 -19v-26z" />
    <glyph glyph-name="ydieresis" unicode="&#xff;" horiz-adv-x="721" 
d="M515 401v61c0 22 19 41 42 41s42 -19 42 -41v-61c0 -1 -2 -3 -3 -3h-18c-2 0 -3 2 -3 3v20l-36 -8v-12c0 -1 -2 -3 -3 -3h-18c-2 0 -3 2 -3 3zM349 455v-46c0 -1 -1 -2 -1 -3c0 0 -15 -9 -37 -9c-29 0 -53 23 -53 52c0 30 24 53 53 53c13 0 26 -5 36 -13c1 -2 2 -3 0 -4
l-11 -13c-1 -1 -3 -1 -4 0c-6 5 -12 7 -19 7c-16 0 -29 -13 -29 -30c0 -16 13 -29 29 -29c4 0 8 1 13 3v9l-10 -2c-2 0 -3 1 -3 3v15c0 2 1 3 3 3l30 7c1 0 3 -1 3 -3zM84 501h44c18 0 32 -14 32 -32c0 -13 -9 -24 -21 -29l21 -38c1 -2 0 -4 -3 -4h-20c-1 0 -2 1 -2 1
l-17 35l-14 -4v-29c0 -2 -1 -3 -2 -3h-18c-2 0 -3 1 -3 3v97c0 2 1 3 3 3zM183 501h60c2 0 3 -1 3 -3v-16c0 -1 -1 -3 -3 -3h-40v-18h17c2 0 4 -1 4 -3v-17c0 -2 -2 -3 -4 -3h-17v-18h40c2 0 3 -2 3 -3v-16c0 -2 -1 -3 -3 -3h-60c-2 0 -3 1 -3 3v97c0 2 1 3 3 3zM430 501h18
c2 0 3 -1 3 -3v-60c0 -23 -19 -41 -42 -41s-42 18 -42 41v60c0 2 2 3 3 3h18c2 0 3 -1 3 -3v-59c0 -11 8 -19 18 -19c11 0 19 8 19 19v59c0 2 1 3 2 3zM679 440l21 -38c1 -2 0 -4 -2 -4h-20c-1 0 -2 1 -2 1l-18 35l-13 -4v-29c0 -2 -1 -3 -3 -3h-17c-2 0 -3 1 -3 3v97
c0 2 1 3 3 3h43c18 0 33 -14 33 -32c0 -13 -9 -23 -22 -29zM610 370v-189c0 -2 -1 -3 -3 -3h-174c-2 0 -3 1 -3 3v143c0 2 1 3 3 3h17c2 0 3 -1 3 -3v-124h135v152h-115c-2 0 -3 1 -3 2v144c0 1 1 2 3 2h17c1 0 3 -1 3 -2v-124h114c2 0 3 -2 3 -4zM104 450l22 7
c6 1 11 6 11 12s-5 11 -11 11h-22v-30zM645 450l22 7c6 2 11 6 11 12s-5 11 -11 11h-22v-30zM575 443v18c0 10 -8 18 -18 18c-11 0 -18 -8 -18 -18v-27zM176 374h274c1 0 3 -2 3 -4v-15c0 -2 -2 -3 -3 -3h-256v-152h215c1 0 2 -1 2 -3v-127h36c2 0 3 -2 3 -3v-17
c0 -1 -1 -2 -3 -2h-56c-2 0 -3 1 -3 2v128h-213c-2 0 -3 1 -3 3v189c0 2 1 3 3 3c0 1 0 1 1 1zM361 329c-29 0 -52 -24 -52 -53c0 -30 23 -53 52 -53c30 0 53 23 53 53c0 29 -23 53 -53 53zM222 327h44c17 0 32 -14 32 -32c0 -8 -3 -15 -8 -20c4 -5 7 -12 7 -19
c0 -18 -15 -32 -32 -32h-43c-2 0 -3 1 -3 3v97c0 2 1 3 3 3zM473 324v-97c0 -1 1 -3 3 -3h36c28 0 51 23 51 52c0 28 -23 51 -51 51h-36c-2 0 -3 -1 -3 -3zM242 306v-30l22 7c6 1 11 6 11 12s-5 11 -11 11h-22zM496 246v60h14c17 0 29 -13 29 -30s-12 -30 -29 -30h-14z
M361 246c-16 0 -29 14 -29 30s13 29 29 29c17 0 30 -13 30 -29s-13 -30 -30 -30zM242 245h21c6 0 11 5 11 11c0 3 -1 6 -3 8l-29 -8v-11zM593 124l12 13c1 1 1 3 -1 4c-10 9 -21 14 -36 14c-29 0 -53 -24 -53 -55c0 -30 24 -54 53 -54c14 0 26 5 37 15c1 1 1 3 0 4l-12 12
c-1 1 -3 1 -4 1c-5 -5 -13 -8 -20 -8c-17 0 -29 14 -29 31s12 31 29 31c7 0 15 -3 20 -8c1 -1 3 -1 4 0zM230 132v-82c0 -1 1 -2 2 -2h18c1 0 3 1 3 2v82h21c1 0 3 1 3 3v16c0 1 -2 3 -3 3h-65c-2 0 -3 -2 -3 -3v-16c0 -2 1 -3 3 -3h21zM172 150v-100c0 -1 1 -3 3 -3h18
c1 0 2 2 2 3v100c0 2 -1 3 -2 3h-18c-2 0 -3 -1 -3 -3zM283 50v62c0 23 19 41 42 41s42 -18 42 -41v-62c0 -1 -1 -2 -3 -2h-18c-1 0 -3 1 -3 2v22l-36 -9v-13c0 -1 -1 -2 -3 -2h-18c-1 0 -3 1 -3 2zM471 151v-101c0 -1 1 -2 3 -2h18c1 0 2 1 2 2v101c0 1 -1 2 -2 2h-18
c-2 0 -3 -1 -3 -2zM343 93v18c0 10 -7 19 -18 19c-10 0 -18 -9 -18 -19v-26z" />
    <glyph glyph-name="z" unicode="z" horiz-adv-x="504" 
d="M60 550h404c15 0 22 -14 15 -26l-203 -368h193c9 0 15 -6 15 -14v-128c0 -7 -6 -14 -15 -14h-431c-15 0 -22 14 -15 27l191 365h-154c-7 0 -14 7 -14 15v128c0 8 7 15 14 15z" />
    <glyph glyph-name="y.alt" horiz-adv-x="597" 
d="M355 534v-303s-10 -45 -62 -45c-46 0 -67 25 -67 78v270c0 8 -7 15 -15 15h-176c-8 0 -15 -7 -15 -15v-303c0 -145 68 -212 215 -212c56 0 104 21 120 53v-29c0 -57 -27 -90 -90 -90c-62 0 -124 19 -168 50c-6 4 -12 1 -15 -6l-51 -124c-2 -5 0 -12 6 -17
c49 -36 133 -57 228 -57c170 0 296 101 296 252v483c0 8 -7 15 -15 15h-176c-8 0 -15 -7 -15 -15z" />
    <glyph glyph-name="uni0049004A" 
d="M454 401v61c0 22 19 41 42 41s42 -19 42 -41v-61c0 -1 -2 -3 -3 -3h-18c-2 0 -3 2 -3 3v20l-36 -8v-12c0 -1 -2 -3 -3 -3h-18c-2 0 -3 2 -3 3zM288 455v-46c0 -1 -1 -2 -1 -3c0 0 -15 -9 -37 -9c-29 0 -53 23 -53 52c0 30 24 53 53 53c13 0 26 -5 36 -13c1 -2 2 -3 0 -4
l-11 -13c-1 -1 -3 -1 -4 0c-6 5 -12 7 -19 7c-16 0 -29 -13 -29 -30c0 -16 13 -29 29 -29c4 0 8 1 13 3v9l-10 -2c-2 0 -3 1 -3 3v15c0 2 1 3 3 3l30 7c1 0 3 -1 3 -3zM23 501h44c18 0 32 -14 32 -32c0 -13 -9 -24 -21 -29l21 -38c1 -2 0 -4 -3 -4h-20c-1 0 -2 1 -2 1
l-17 35l-14 -4v-29c0 -2 -1 -3 -2 -3h-18c-2 0 -3 1 -3 3v97c0 2 1 3 3 3zM122 501h60c2 0 3 -1 3 -3v-16c0 -1 -1 -3 -3 -3h-40v-18h17c2 0 4 -1 4 -3v-17c0 -2 -2 -3 -4 -3h-17v-18h40c2 0 3 -2 3 -3v-16c0 -2 -1 -3 -3 -3h-60c-2 0 -3 1 -3 3v97c0 2 1 3 3 3zM369 501h18
c2 0 3 -1 3 -3v-60c0 -23 -19 -41 -42 -41s-42 18 -42 41v60c0 2 2 3 3 3h18c2 0 3 -1 3 -3v-59c0 -11 8 -19 18 -19c11 0 19 8 19 19v59c0 2 1 3 2 3zM618 440l21 -38c1 -2 0 -4 -2 -4h-20c-1 0 -2 1 -2 1l-18 35l-13 -4v-29c0 -2 -1 -3 -3 -3h-17c-2 0 -3 1 -3 3v97
c0 2 1 3 3 3h43c18 0 33 -14 33 -32c0 -13 -9 -23 -22 -29zM549 370v-189c0 -2 -1 -3 -3 -3h-174c-2 0 -3 1 -3 3v143c0 2 1 3 3 3h17c2 0 3 -1 3 -3v-124h135v152h-115c-2 0 -3 1 -3 2v144c0 1 1 2 3 2h17c1 0 3 -1 3 -2v-124h114c2 0 3 -2 3 -4zM43 450l22 7
c6 1 11 6 11 12s-5 11 -11 11h-22v-30zM584 450l22 7c6 2 11 6 11 12s-5 11 -11 11h-22v-30zM514 443v18c0 10 -8 18 -18 18c-11 0 -18 -8 -18 -18v-27zM115 374h274c1 0 3 -2 3 -4v-15c0 -2 -2 -3 -3 -3h-256v-152h215c1 0 2 -1 2 -3v-127h36c2 0 3 -2 3 -3v-17
c0 -1 -1 -2 -3 -2h-56c-2 0 -3 1 -3 2v128h-213c-2 0 -3 1 -3 3v189c0 2 1 3 3 3c0 1 0 1 1 1zM300 329c-29 0 -52 -24 -52 -53c0 -30 23 -53 52 -53c30 0 53 23 53 53c0 29 -23 53 -53 53zM161 327h44c17 0 32 -14 32 -32c0 -8 -3 -15 -8 -20c4 -5 7 -12 7 -19
c0 -18 -15 -32 -32 -32h-43c-2 0 -3 1 -3 3v97c0 2 1 3 3 3zM412 324v-97c0 -1 1 -3 3 -3h36c28 0 51 23 51 52c0 28 -23 51 -51 51h-36c-2 0 -3 -1 -3 -3zM181 306v-30l22 7c6 1 11 6 11 12s-5 11 -11 11h-22zM435 246v60h14c17 0 29 -13 29 -30s-12 -30 -29 -30h-14z
M300 246c-16 0 -29 14 -29 30s13 29 29 29c17 0 30 -13 30 -29s-13 -30 -30 -30zM181 245h21c6 0 11 5 11 11c0 3 -1 6 -3 8l-29 -8v-11zM532 124l12 13c1 1 1 3 -1 4c-10 9 -21 14 -36 14c-29 0 -53 -24 -53 -55c0 -30 24 -54 53 -54c14 0 26 5 37 15c1 1 1 3 0 4l-12 12
c-1 1 -3 1 -4 1c-5 -5 -13 -8 -20 -8c-17 0 -29 14 -29 31s12 31 29 31c7 0 15 -3 20 -8c1 -1 3 -1 4 0zM169 132v-82c0 -1 1 -2 2 -2h18c1 0 3 1 3 2v82h21c1 0 3 1 3 3v16c0 1 -2 3 -3 3h-65c-2 0 -3 -2 -3 -3v-16c0 -2 1 -3 3 -3h21zM111 150v-100c0 -1 1 -3 3 -3h18
c1 0 2 2 2 3v100c0 2 -1 3 -2 3h-18c-2 0 -3 -1 -3 -3zM222 50v62c0 23 19 41 42 41s42 -18 42 -41v-62c0 -1 -1 -2 -3 -2h-18c-1 0 -3 1 -3 2v22l-36 -9v-13c0 -1 -1 -2 -3 -2h-18c-1 0 -3 1 -3 2zM410 151v-101c0 -1 1 -2 3 -2h18c1 0 2 1 2 2v101c0 1 -1 2 -2 2h-18
c-2 0 -3 -1 -3 -2zM282 93v18c0 10 -7 19 -18 19c-10 0 -18 -9 -18 -19v-26z" />
    </font>
</defs>
</svg>
