<?xml version="1.0" standalone="no"?>
<!DOCTYPE svg PUBLIC "-//W3C//DTD SVG 20010904//EN"
 "http://www.w3.org/TR/2001/REC-SVG-20010904/DTD/svg10.dtd">
<svg version="1.0" xmlns="http://www.w3.org/2000/svg"
 width="260.000000pt" height="260.000000pt" viewBox="0 0 260.000000 260.000000"
 preserveAspectRatio="xMidYMid meet">
<metadata>
Created by potrace 1.11, written by Peter Selinger 2001-2013
</metadata>
<g transform="translate(0.000000,260.000000) scale(0.100000,-0.100000)"
fill="#000000" stroke="none">
<path d="M154 2016 c-3 -7 -4 -33 -2 -57 l3 -44 44 -2 c24 -1 45 -3 47 -5 2
-2 4 -75 5 -161 l1 -157 64 0 64 0 1 43 c1 23 1 95 1 160 l0 117 32 1 c17 1
36 1 43 0 12 -2 21 22 24 64 4 55 11 53 -161 53 -123 1 -162 -2 -166 -12z"/>
<path d="M517 2023 c-3 -4 -5 -104 -5 -220 l1 -213 63 0 c72 0 66 -8 66 98 1
35 5 61 10 60 5 -2 24 -37 42 -78 l33 -75 72 -3 c40 -2 71 1 71 7 0 5 -20 44
-44 87 l-44 78 23 21 c67 60 59 162 -17 216 -28 21 -46 24 -149 26 -65 2 -120
0 -122 -4z m197 -128 c9 -25 -4 -45 -30 -45 -35 0 -39 2 -42 33 -3 25 0 27 31
27 22 0 37 -6 41 -15z"/>
<path d="M894 2015 c-3 -8 -4 -85 -2 -172 2 -134 6 -162 22 -185 59 -88 225
-102 296 -26 42 45 46 67 46 233 l-1 160 -62 2 -63 2 -1 -52 c-1 -29 -1 -95
-1 -147 1 -108 -11 -140 -52 -136 -52 6 -55 17 -58 180 l-3 151 -58 2 c-42 1
-60 -2 -63 -12z"/>
<path d="M1307 2023 c-2 -5 -4 -104 -4 -220 l0 -213 67 0 67 0 -1 81 c0 44 2
83 5 85 3 2 12 -16 19 -39 8 -23 22 -61 32 -85 18 -43 18 -43 64 -40 l47 3 29
85 c16 47 32 87 35 90 2 3 4 -17 3 -45 -1 -27 -1 -69 -1 -92 l1 -43 65 0 c36
0 65 3 66 8 1 10 1 359 0 400 l-1 32 -77 0 c-43 0 -83 -4 -89 -8 -5 -4 -26
-61 -46 -127 l-35 -119 -32 101 c-17 56 -31 107 -31 115 0 29 -24 38 -101 38
-43 0 -80 -3 -82 -7z"/>
<path d="M1843 1811 l0 -222 66 3 66 3 -1 63 c-1 34 -1 62 0 63 1 0 21 2 46 5
58 7 108 32 134 66 28 39 30 113 4 159 -31 55 -74 71 -204 77 l-111 4 0 -221z
m187 91 c19 -16 21 -22 11 -40 -8 -15 -21 -22 -41 -22 -27 0 -30 3 -30 34 0
30 9 42 31 45 4 1 17 -7 29 -17z"/>
<path d="M728 1502 c-94 -34 -142 -105 -142 -213 -1 -135 78 -218 211 -225
107 -5 175 31 218 117 19 37 23 59 21 115 -3 75 -18 113 -63 158 -57 58 -160
78 -245 48z m139 -127 c26 -19 46 -73 39 -111 -11 -58 -76 -95 -130 -74 -66
25 -81 133 -24 183 25 21 86 22 115 2z"/>
<path d="M176 1502 c-3 -4 -5 -104 -5 -221 l-1 -212 108 1 c121 2 168 17 217
68 38 41 53 83 54 152 1 101 -61 186 -155 209 -50 13 -210 15 -218 3z m212
-133 c26 -27 34 -73 22 -120 -11 -40 -33 -58 -79 -65 l-27 -5 -1 106 -2 105
34 0 c22 0 41 -8 53 -21z"/>
<path d="M1077 1503 c-3 -5 -5 -104 -5 -220 l0 -213 64 0 c44 0 64 4 65 13 1
6 1 52 1 102 l-1 89 46 -79 c77 -135 66 -125 132 -125 38 0 60 4 63 13 2 6 4
104 3 217 l0 205 -65 0 -65 0 1 -98 1 -97 -22 32 c-12 18 -39 63 -59 101 l-38
67 -58 0 c-32 0 -61 -3 -63 -7z"/>
<path d="M1596 1468 c-9 -24 -40 -115 -70 -203 -30 -88 -57 -168 -61 -178 -7
-16 -1 -18 66 -15 l74 3 11 35 c12 35 12 35 69 35 58 0 59 -1 70 -35 l12 -35
71 -3 c40 -2 72 1 71 5 0 4 -33 103 -72 218 l-73 210 -76 3 -76 3 -16 -43z
m104 -160 c6 -24 13 -50 16 -59 3 -12 -3 -15 -28 -14 -18 1 -33 3 -32 6 10 47
27 109 30 109 2 0 8 -19 14 -42z"/>
<path d="M1925 1498 c-2 -7 -3 -105 -2 -218 l2 -205 123 -3 c111 -2 122 -1
122 15 1 10 3 35 6 56 5 31 3 37 -13 38 -10 1 -34 3 -53 4 -19 1 -40 3 -46 4
-7 1 -11 44 -12 129 0 70 -1 142 -1 160 l-1 32 -60 0 c-40 0 -62 -4 -65 -12z"/>
<path d="M2216 1503 c-3 -4 -6 -103 -6 -220 l0 -214 107 2 c153 2 213 31 254
123 51 115 0 254 -110 298 -28 12 -235 21 -245 11z m212 -134 c43 -46 34 -148
-16 -172 -15 -7 -36 -13 -47 -13 -19 1 -20 8 -21 104 l-2 102 34 0 c21 0 40
-8 52 -21z"/>
<path d="M310 998 c-19 -5 -51 -22 -71 -36 -99 -71 -114 -252 -29 -341 49 -51
87 -66 170 -66 87 0 144 24 183 77 31 42 38 62 44 125 9 93 -38 187 -113 224
-49 23 -131 31 -184 17z m147 -150 c17 -20 24 -80 13 -113 -21 -64 -113 -82
-157 -31 -24 28 -30 57 -24 109 3 26 39 59 72 66 35 8 75 -5 96 -31z"/>
<path d="M1180 1003 c-33 -11 -95 -46 -107 -61 -72 -90 -78 -215 -16 -305 41
-60 92 -82 188 -81 65 0 87 5 117 23 20 12 38 27 40 34 2 7 4 57 3 112 l0 100
-91 3 c-103 3 -106 1 -95 -63 6 -36 9 -40 36 -40 23 -1 31 -6 33 -22 7 -48
-101 -34 -128 16 -25 47 -6 129 35 151 23 12 104 10 136 -4 12 -5 19 3 28 35
7 22 15 47 17 54 11 28 -139 65 -196 48z"/>
<path d="M646 991 c-2 -3 -3 -102 -3 -218 l1 -213 63 0 63 0 1 43 c0 23 1 59
1 80 0 21 5 36 10 35 5 -2 24 -37 42 -78 l33 -75 77 -3 77 -3 -32 58 c-17 32
-40 72 -51 90 -19 32 -19 32 1 43 34 18 54 67 49 122 -9 92 -59 121 -216 124
-61 1 -114 -1 -116 -5z m198 -127 c9 -24 -12 -44 -45 -44 -26 0 -29 4 -29 30
0 27 3 30 34 30 22 0 36 -6 40 -16z"/>
<path d="M34 635 c-15 -16 -22 -30 -18 -42 16 -45 73 -57 98 -21 21 30 20 45
-4 65 -29 25 -50 24 -76 -2z"/>
</g>
</svg>
